SplineFontDB: 3.2
FontName: Chomsky
FullName: Chomsky
FamilyName: Chomsky
Weight: Regular
Copyright: Copyright (c) 2019-2020, Fredrick Brennan <copypaste @ kittens . ph>\nSee AUTHORS for all contributors.\n\nThis font is licensed under the SIL Open Font License, v 1.1.
UComments: "2019-3-21: Created with FontForge (http://fontforge.org)"
Version: 002.10
ItalicAngle: 0
UnderlinePosition: -100
UnderlineWidth: 50
Ascent: 800
Descent: 200
InvalidEm: 0
LayerCount: 3
Layer: 0 0 "Back" 1
Layer: 1 0 "Fore" 0
Layer: 2 0 "Back 2" 0
XUID: [1021 575 -1819899406 1979258]
StyleMap: 0x0000
FSType: 0
OS2Version: 0
OS2_WeightWidthSlopeOnly: 0
OS2_UseTypoMetrics: 1
CreationTime: 1553156104
ModificationTime: 1609530624
PfmFamily: 17
TTFWeight: 400
TTFWidth: 5
LineGap: 90
VLineGap: 0
OS2TypoAscent: 0
OS2TypoAOffset: 1
OS2TypoDescent: 0
OS2TypoDOffset: 1
OS2TypoLinegap: 90
OS2WinAscent: 0
OS2WinAOffset: 1
OS2WinDescent: 0
OS2WinDOffset: 1
HheadAscent: 0
HheadAOffset: 1
HheadDescent: 0
HheadDOffset: 1
OS2Vendor: 'QQQQ'
Lookup: 260 0 0 "'mark' Mark Positioning in Latin lookup 1" { "'mark' Mark Positioning in Latin lookup 1-1"  } ['mark' ('DFLT' <'dflt' > 'latn' <'dflt' > ) ]
MarkAttachClasses: 1
DEI: 91125
LangName: 1033
Encoding: UnicodeBmp
UnicodeInterp: none
NameList: AGL For New Fonts
DisplaySize: -96
AntiAlias: 1
FitToEm: 0
WidthSeparation: 150
WinInfo: 112 14 6
BeginPrivate: 0
EndPrivate
Grid
-1000 719.820068359 m 0
 2000 719.820068359 l 1024
  Spiro
    -1000 719.82 {
    2000 719.82 o
    0 0 z
  EndSpiro
  Named: "top of 5"
-1000 761 m 0
 2000 761 l 1024
  Spiro
    -1000 761 {
    2000 761 o
    0 0 z
  EndSpiro
  Named: "N top"
-1000 510 m 0
 2000 510 l 1024
  Spiro
    -1000 510 {
    2000 510 o
    0 0 z
  EndSpiro
  Named: "x-height"
EndSplineSet

StartChar: T
Encoding: 84 84 0
Width: 719
VWidth: 0
InSpiro: 1
Flags: HMW
AnchorPoint: "mark_top" 413.975 820 basechar 0
LayerCount: 3
Back
SplineSet
457.221679688 251.75390625 m 1
 213.57421875 149.211914062 l 1
 213.594726562 177.836914062 l 1
 328.223632812 226.689453125 l 1
 328.221679688 471.223632812 l 1
 213.640625 422.87890625 l 1
 213.661132812 451.50390625 l 1
 457.288085938 555.333007812 l 1
 457.221679688 251.75390625 l 1
  Spiro
    457.222 251.754 v
    213.575 149.212 v
    213.595 177.837 v
    328.224 226.69 v
    328.222 471.223 v
    213.641 422.878 v
    213.661 451.503 v
    457.288 555.333 v
    0 0 z
  EndSpiro
485.272460938 375.498046875 m 1
 565.517578125 455.743164062 l 1
 645.762695312 375.498046875 l 1
 565.517578125 295.251953125 l 1
 485.272460938 375.498046875 l 1
  Spiro
    485.272 375.498 v
    565.518 455.743 v
    645.763 375.498 v
    565.518 295.252 v
    0 0 z
  EndSpiro
328.489257812 594.189453125 m 1
 338.078125 579.8046875 l 1
 286.404296875 544.909179688 246.32421875 492.939453125 226.37109375 433.866210938 c 0
 208.469726562 380.8671875 206.97265625 322.036132812 224.657226562 268.96484375 c 0
 242.341796875 215.893554688 279.702148438 169.364257812 328.493164062 142 c 0
 370.578125 118.396484375 420.375976562 109.243164062 468.271484375 115.09765625 c 0
 516.166992188 120.952148438 561.958007812 141.39453125 599.37109375 171.866210938 c 0
 636.6796875 202.251953125 665.795898438 242.551757812 683.211914062 287.407226562 c 1
 702.380859375 287.407226562 l 1
 704.099609375 241.626953125 693.6015625 195.461914062 672.37109375 154.866210938 c 0
 648.821289062 109.833984375 612.185546875 71.9091796875 568.534179688 45.8896484375 c 0
 524.883789062 19.8701171875 474.44140625 5.6396484375 423.65625 3.8330078125 c 0
 330.602539062 0.5234375 236.779296875 39.7275390625 173.870117188 108.373046875 c 0
 110.9609375 177.018554688 80.62890625 275.291015625 97.6552734375 366.833007812 c 0
 108.17578125 423.393554688 136.189453125 476.630859375 177.1328125 517.047851562 c 0
 218.076171875 557.463867188 271.724609375 584.827148438 328.489257812 594.189453125 c 1
  Spiro
    328.489 594.189 v
    338.078 579.805 v
    226.371 433.866 o
    328.493 142 o
    599.371 171.866 o
    683.212 287.407 v
    702.381 287.407 v
    672.371 154.866 o
    423.656 3.83331 o
    97.6557 366.833 o
    0 0 z
  EndSpiro
550.993164062 575.252929688 m 1
 578.993164062 575.252929688 l 1
 578.993164062 123 l 1
 550.993164062 123 l 1
 550.993164062 575.252929688 l 1
  Spiro
    550.993 575.253 v
    578.993 575.253 v
    578.993 123 v
    550.993 123 v
    0 0 z
  EndSpiro
184.6875 527.079101562 m 1
 158.198242188 538.754882812 136.524414062 560.920898438 125.365234375 587.6328125 c 0
 114.20703125 614.34375 113.686523438 645.205078125 123.303710938 672.508789062 c 0
 131.137695312 694.75 145.446289062 714.543945312 163.555664062 729.646484375 c 0
 181.665039062 744.749023438 203.451171875 755.209960938 226.303710938 761.022460938 c 0
 251.493164062 767.427734375 277.921875 768.2421875 303.721679688 765.095703125 c 0
 329.520507812 761.948242188 354.682617188 754.846679688 379.303710938 746.522460938 c 0
 415.984375 734.120117188 452.341796875 720.466796875 490.126953125 712.008789062 c 0
 519.48828125 705.436523438 548.751953125 696.9765625 578.803710938 695.522460938 c 0
 588.958984375 695.030273438 599.493164062 696.1171875 608.4296875 700.966796875 c 0
 612.897460938 703.392578125 616.885742188 706.751953125 619.833984375 710.893554688 c 0
 622.782226562 715.03515625 624.65625 719.947265625 625.126953125 725.008789062 c 0
 625.63671875 730.481445312 624.497070312 736.072265625 622.043945312 740.991210938 c 0
 619.58984375 745.909179688 615.87109375 750.142578125 611.530273438 753.513671875 c 0
 602.849609375 760.2578125 592.02734375 763.6015625 581.303710938 766.022460938 c 0
 570.641601562 768.428710938 559.823242188 770.083007812 548.991210938 771.546875 c 1
 548.991210938 790.719726562 l 1
 561.455078125 791.66796875 574.001953125 791.537109375 586.439453125 790.295898438 c 0
 609.848632812 787.959960938 633.030273438 781.713867188 653.677734375 770.440429688 c 0
 674.32421875 759.166015625 692.3203125 742.52734375 703.439453125 721.795898438 c 0
 715.525390625 699.264648438 718.90234375 672.12109375 712.216796875 647.442382812 c 0
 705.53125 622.763671875 689.102539062 601.143554688 667.939453125 586.795898438 c 0
 649.237304688 574.1171875 627.147460938 566.924804688 604.725585938 564.1328125 c 0
 582.303710938 561.340820312 559.52734375 562.770507812 537.181640625 566.116210938 c 0
 492.489257812 572.806640625 448.970703125 585.627929688 404.939453125 595.795898438 c 0
 359.995117188 606.174804688 315.630859375 619.05078125 270.439453125 628.295898438 c 0
 252.186523438 632.030273438 233.166992188 634.295898438 215.004882812 630.140625 c 0
 205.923828125 628.0625 197.161132812 624.322265625 189.745117188 618.68359375 c 0
 182.330078125 613.045898438 176.3203125 605.4765625 172.939453125 596.795898438 c 0
 168.989257812 586.65234375 168.783203125 575.045898438 172.654296875 564.87109375 c 0
 176.524414062 554.696289062 184.430664062 546.114257812 194.271484375 541.458984375 c 1
 184.6875 527.079101562 l 1
  Spiro
    123.304 672.509 o
    226.304 761.022 o
    379.304 746.522 o
    490.127 712.009 o
    578.804 695.522 o
    625.127 725.009 o
    581.304 766.022 o
    548.991 771.547 v
    548.991 790.72 v
    586.44 790.296 o
    703.44 721.796 o
    667.94 586.796 o
    404.94 595.796 o
    270.44 628.296 o
    172.94 596.796 o
    194.271 541.459 v
    184.688 527.079 v
    0 0 z
  EndSpiro
EndSplineSet
Fore
SplineSet
457.221679688 251.75390625 m 1
 213.57421875 149.211914062 l 1
 213.594726562 177.836914062 l 1
 328.223632812 226.689453125 l 1
 328.221679688 471.223632812 l 1
 213.640625 422.87890625 l 1
 213.661132812 451.50390625 l 1
 457.288085938 555.333007812 l 1
 457.221679688 251.75390625 l 1
485.272460938 375.498046875 m 1
 565.517578125 455.743164062 l 1
 645.762695312 375.498046875 l 1
 565.517578125 295.251953125 l 1
 485.272460938 375.498046875 l 1
328.489257812 594.189453125 m 1
 338.078125 579.8046875 l 1
 286.404296875 544.909179688 246.32421875 492.939453125 226.37109375 433.866210938 c 0
 208.469726562 380.8671875 206.97265625 322.036132812 224.657226562 268.96484375 c 0
 242.341796875 215.893554688 279.702148438 169.364257812 328.493164062 142 c 0
 370.578125 118.396484375 420.375976562 109.243164062 468.271484375 115.09765625 c 0
 516.166992188 120.952148438 561.958007812 141.39453125 599.37109375 171.866210938 c 0
 636.6796875 202.251953125 665.795898438 242.551757812 683.211914062 287.407226562 c 1
 702.380859375 287.407226562 l 1
 704.099609375 241.626953125 693.6015625 195.461914062 672.37109375 154.866210938 c 0
 648.821289062 109.833984375 612.185546875 71.9091796875 568.534179688 45.8896484375 c 0
 524.883789062 19.8701171875 474.44140625 5.6396484375 423.65625 3.8330078125 c 0
 330.602539062 0.5234375 236.779296875 39.7275390625 173.870117188 108.373046875 c 0
 110.9609375 177.018554688 80.62890625 275.291015625 97.6552734375 366.833007812 c 0
 108.17578125 423.393554688 136.189453125 476.630859375 177.1328125 517.047851562 c 0
 218.076171875 557.463867188 271.724609375 584.827148438 328.489257812 594.189453125 c 1
550.993164062 575.252929688 m 1
 578.993164062 575.252929688 l 1
 578.993164062 123 l 1
 550.993164062 123 l 1
 550.993164062 575.252929688 l 1
184.6875 527.079101562 m 1
 158.198242188 538.754882812 136.524414062 560.920898438 125.365234375 587.6328125 c 0
 114.20703125 614.34375 113.686523438 645.205078125 123.303710938 672.508789062 c 0
 131.137695312 694.75 145.446289062 714.543945312 163.555664062 729.646484375 c 0
 181.665039062 744.749023438 203.451171875 755.209960938 226.303710938 761.022460938 c 0
 251.493164062 767.427734375 277.921875 768.2421875 303.721679688 765.095703125 c 0
 329.520507812 761.948242188 354.682617188 754.846679688 379.303710938 746.522460938 c 0
 415.984375 734.120117188 452.341796875 720.466796875 490.126953125 712.008789062 c 0
 519.48828125 705.436523438 548.751953125 696.9765625 578.803710938 695.522460938 c 0
 588.958984375 695.030273438 599.493164062 696.1171875 608.4296875 700.966796875 c 0
 612.897460938 703.392578125 616.885742188 706.751953125 619.833984375 710.893554688 c 0
 622.782226562 715.03515625 624.65625 719.947265625 625.126953125 725.008789062 c 0
 625.63671875 730.481445312 624.497070312 736.072265625 622.043945312 740.991210938 c 0
 619.58984375 745.909179688 615.87109375 750.142578125 611.530273438 753.513671875 c 0
 602.849609375 760.2578125 592.02734375 763.6015625 581.303710938 766.022460938 c 0
 570.641601562 768.428710938 559.823242188 770.083007812 548.991210938 771.546875 c 1
 548.991210938 790.719726562 l 1
 561.455078125 791.66796875 574.001953125 791.537109375 586.439453125 790.295898438 c 0
 609.848632812 787.959960938 633.030273438 781.713867188 653.677734375 770.440429688 c 0
 674.32421875 759.166015625 692.3203125 742.52734375 703.439453125 721.795898438 c 0
 715.525390625 699.264648438 718.90234375 672.12109375 712.216796875 647.442382812 c 0
 705.53125 622.763671875 689.102539062 601.143554688 667.939453125 586.795898438 c 0
 649.237304688 574.1171875 627.147460938 566.924804688 604.725585938 564.1328125 c 0
 582.303710938 561.340820312 559.52734375 562.770507812 537.181640625 566.116210938 c 0
 492.489257812 572.806640625 448.970703125 585.627929688 404.939453125 595.795898438 c 0
 359.995117188 606.174804688 315.630859375 619.05078125 270.439453125 628.295898438 c 0
 252.186523438 632.030273438 233.166992188 634.295898438 215.004882812 630.140625 c 0
 205.923828125 628.0625 197.161132812 624.322265625 189.745117188 618.68359375 c 0
 182.330078125 613.045898438 176.3203125 605.4765625 172.939453125 596.795898438 c 0
 168.989257812 586.65234375 168.783203125 575.045898438 172.654296875 564.87109375 c 0
 176.524414062 554.696289062 184.430664062 546.114257812 194.271484375 541.458984375 c 1
 184.6875 527.079101562 l 1
EndSplineSet
EndChar

StartChar: h
Encoding: 104 104 1
Width: 526
VWidth: 0
InSpiro: 1
Flags: HMW
LayerCount: 3
Back
SplineSet
456.4921875 386.422851562 m 1
 438.85546875 408.169921875 l 1
 498.142578125 456.250976562 l 1
 515.779296875 434.502929688 l 1
 456.4921875 386.422851562 l 1
  Spiro
    456.491 386.42 v
    438.855 408.167 v
    498.142 456.248 v
    515.779 434.5 v
    0 0 z
  EndSpiro
472.748046875 412.5 m 1
 472.771484375 138.807617188 l 2
 472.7734375 111.6328125 472.484375 84.3115234375 467.73828125 57.5546875 c 0
 462.991210938 30.7978515625 453.788085938 4.7119140625 439.45703125 -18.376953125 c 0
 418.942382812 -51.4296875 388.10546875 -77.798828125 352.650390625 -93.806640625 c 0
 315.483398438 -110.587890625 273.453125 -116.295898438 233.094726562 -110.450195312 c 1
 233.094726562 -86.490234375 l 1
 254.963867188 -81.7548828125 275.360351562 -70.6474609375 291.458007812 -55.1044921875 c 0
 309.412109375 -37.76953125 321.864257812 -15.287109375 329.704101562 8.40625 c 0
 342.494140625 47.0595703125 343.348632812 88.5068359375 343.348632812 129.220703125 c 2
 343.348632812 368.89453125 l 1
 283.90234375 418.127929688 l 1
 217.833984375 356.25 l 1
 217.833984375 386.166992188 l 1
 352.935546875 512.69921875 l 1
 472.748046875 412.5 l 1
  Spiro
    472.771 138.808 ]
    439.457 -18.3769 o
    352.65 -93.8069 o
    233.094 -110.45 v
    233.094 -86.49 v
    291.458 -55.1049 o
    329.704 8.40652 o
    343.348 129.221 [
    343.348 368.895 v
    283.902 418.128 v
    217.834 356.25 v
    217.834 386.167 v
    352.935 512.699 v
    472.748 412.5 v
    0 0 z
  EndSpiro
228.3046875 119.6328125 m 1
 260.8125 87.0390625 l 1
 291.862304688 108.625 l 1
 309.79296875 86.0791015625 l 1
 185.163085938 -0.203125 l 1
 82.3623046875 87 l 1
 44.015625 63.033203125 l 1
 26.978515625 86.0791015625 l 1
 94.087890625 129.220703125 l 1
 94.087890625 584.600585938 l 2
 94.087890625 589.598632812 94.0029296875 594.6328125 92.951171875 599.518554688 c 0
 91.8984375 604.403320312 89.8916015625 609.088867188 86.9990234375 613.1640625 c 0
 82.5 619.504882812 76.048828125 624.229492188 69.2109375 627.9296875 c 0
 61.8994140625 631.88671875 54.107421875 634.909179688 46.154296875 637.330078125 c 1
 46.15234375 651.709960938 l 1
 209.129882812 766.752929688 l 1
 228.3046875 766.752929688 l 1
 228.3046875 119.6328125 l 1
  Spiro
    228.304 119.633 v
    260.812 87.0387 v
    291.862 108.625 v
    309.793 86.0791 v
    185.163 -0.203125 v
    82.3625 87 v
    44.0149 63.0332 v
    26.978 86.0791 v
    94.087 129.221 v
    94.087 584.601 ]
    86.9992 613.164 o
    69.2106 627.93 o
    46.1542 637.33 v
    46.1519 651.71 v
    209.13 766.753 v
    228.304 766.753 v
    206 119.633 z
  EndSpiro
EndSplineSet
Fore
SplineSet
456.4921875 386.422851562 m 1
 438.85546875 408.169921875 l 1
 498.142578125 456.250976562 l 1
 515.779296875 434.502929688 l 1
 456.4921875 386.422851562 l 1
472.748046875 412.5 m 1
 472.771484375 138.807617188 l 2
 472.7734375 111.6328125 472.484375 84.3115234375 467.73828125 57.5546875 c 0
 462.991210938 30.7978515625 453.788085938 4.7119140625 439.45703125 -18.376953125 c 0
 418.942382812 -51.4296875 388.10546875 -77.798828125 352.650390625 -93.806640625 c 0
 315.483398438 -110.587890625 273.453125 -116.295898438 233.094726562 -110.450195312 c 1
 233.094726562 -86.490234375 l 1
 254.963867188 -81.7548828125 275.360351562 -70.6474609375 291.458007812 -55.1044921875 c 0
 309.412109375 -37.76953125 321.864257812 -15.287109375 329.704101562 8.40625 c 0
 342.494140625 47.0595703125 343.348632812 88.5068359375 343.348632812 129.220703125 c 2
 343.348632812 368.89453125 l 1
 283.90234375 418.127929688 l 1
 217.833984375 356.25 l 1
 217.833984375 386.166992188 l 1
 352.935546875 512.69921875 l 1
 472.748046875 412.5 l 1
228.3046875 119.6328125 m 1
 260.8125 87.0390625 l 1
 291.862304688 108.625 l 1
 309.79296875 86.0791015625 l 1
 185.163085938 -0.203125 l 1
 82.3623046875 87 l 1
 44.015625 63.033203125 l 1
 26.978515625 86.0791015625 l 1
 94.087890625 129.220703125 l 1
 94.087890625 584.600585938 l 2
 94.087890625 589.598632812 94.0029296875 594.6328125 92.951171875 599.518554688 c 0
 91.8984375 604.403320312 89.8916015625 609.088867188 86.9990234375 613.1640625 c 0
 82.5 619.504882812 76.048828125 624.229492188 69.2109375 627.9296875 c 0
 61.8994140625 631.88671875 54.107421875 634.909179688 46.154296875 637.330078125 c 1
 46.15234375 651.709960938 l 1
 209.129882812 766.752929688 l 1
 228.3046875 766.752929688 l 1
 228.3046875 119.6328125 l 1
EndSplineSet
EndChar

StartChar: e
Encoding: 101 101 2
Width: 406
VWidth: 0
Flags: HMW
AnchorPoint: "ogonek" 223.801 68 basechar 0
AnchorPoint: "mark_top" 236.801 572 basechar 0
LayerCount: 3
Back
SplineSet
24.4375 64.5087890625 m 1
 6.80078125 86.255859375 l 1
 66.087890625 134.336914062 l 1
 83.724609375 112.588867188 l 1
 24.4375 64.5087890625 l 1
  Spiro
    24.4374 64.5069 v
    6.80136 86.2539 v
    66.0884 134.335 v
    83.7259 112.587 v
    0 0 z
  EndSpiro
54.0888671875 111.252929688 m 1
 54.0888671875 388.068359375 l 1
 293.762695312 512.69921875 l 1
 394.42578125 359.307617188 l 1
 394.42578125 354.514648438 l 1
 137.670898438 194.75 l 9
 137.670898438 218.717773438 l 17
 284.17578125 311.372070312 l 1
 197.893554688 436.002929688 l 1
 178.71875 425.209960938 l 9
 178.71875 177.155273438 l 17
 298.556640625 95.666015625 l 1
 408.806640625 181.94921875 l 1
 423.186523438 157.981445312 l 1
 217.067382812 -9.7900390625 l 1
 54.0888671875 111.252929688 l 1
EndSplineSet
Fore
SplineSet
24.4375 64.5087890625 m 1
 6.80078125 86.255859375 l 1
 66.087890625 134.336914062 l 1
 83.724609375 112.588867188 l 1
 24.4375 64.5087890625 l 1
54.0888671875 111.252929688 m 1
 54.0888671875 388.068359375 l 1
 293.762695312 512.69921875 l 1
 394.42578125 359.307617188 l 1
 394.42578125 354.514648438 l 1
 137.670898438 194.75 l 1
 137.670898438 218.717773438 l 1
 284.17578125 311.372070312 l 1
 197.893554688 436.002929688 l 1
 178.71875 425.209960938 l 1
 178.71875 177.155273438 l 1
 298.556640625 95.666015625 l 1
 408.806640625 181.94921875 l 1
 423.186523438 157.981445312 l 1
 217.067382812 -9.7900390625 l 1
 54.0888671875 111.252929688 l 1
EndSplineSet
EndChar

StartChar: N
Encoding: 78 78 3
Width: 693
VWidth: 0
InSpiro: 1
Flags: HMW
AnchorPoint: "mark_top" 435 804 basechar 0
LayerCount: 3
Back
SplineSet
584.274414062 422 m 1024
  Spiro
    584.276 422 {
    0 0 z
  EndSpiro
478.607421875 632.333007812 m 1
 440.405273438 589.668945312 l 1
 426.026367188 604.049804688 l 1
 550.607421875 748 l 1
 570.274414062 747.666992188 l 1
 577.030273438 739.096679688 584.876953125 731.379882812 593.607421875 724.833007812 c 0
 603.772460938 717.212890625 615.193359375 711.146484375 627.44140625 707.7734375 c 0
 639.690429688 704.399414062 652.823242188 703.844726562 665.107421875 707.083007812 c 0
 676.548828125 710.099609375 687.134765625 716.4453125 694.951171875 725.328125 c 0
 702.766601562 734.211914062 707.744140625 745.5625 708.94140625 757.333007812 c 1
 722.607421875 757 l 1
 733.28125 736.571289062 737.079101562 712.641601562 733.344726562 689.897460938 c 0
 729.610351562 667.153320312 718.39453125 645.807617188 702.274414062 629.333007812 c 0
 688.538085938 615.294921875 671.408203125 604.747070312 652.999023438 597.899414062 c 0
 634.590820312 591.05078125 614.915039062 587.780273438 595.274414062 587.666992188 c 0
 570.708007812 587.524414062 546.055664062 592.352539062 523.607421875 602.333007812 c 0
 507.0546875 609.693359375 491.751953125 619.8671875 478.607421875 632.333007812 c 1
  Spiro
    478.609 632.333 v
    440.407 589.669 v
    426.028 604.05 v
    550.609 748 v
    570.276 747.667 v
    593.609 724.833 o
    665.109 707.083 o
    708.943 757.333 v
    722.609 757 v
    702.276 629.333 o
    595.276 587.667 o
    523.609 602.333 o
    436.333 632.333 z
  EndSpiro
579.162109375 258.474609375 m 1
 582.053710938 312.9375 583.758789062 367.462890625 584.274414062 422 c 0
 585.013671875 500.194335938 583.309570312 578.412109375 579.163085938 656.5 c 1
 607.163085938 656.5 l 1
 607.163085938 0 l 1
 569.346679688 0 l 1
 268.8125 508.776367188 l 1
 234.3125 567.5 l 2
 222.301757812 587.943359375 208.919921875 607.670898438 193.1015625 625.333007812 c 0
 187.01171875 632.1328125 180.317382812 638.58984375 172.254882812 642.87109375 c 0
 164.193359375 647.153320312 154.619140625 648.90234375 145.768554688 646.666992188 c 0
 138.064453125 644.721679688 131.259765625 639.908203125 126.173828125 633.803710938 c 0
 121.087890625 627.69921875 117.547851562 620.443359375 114.768554688 613 c 0
 112.481445312 606.875976562 110.6875 600.572265625 109.301757812 594.18359375 c 1
 90.1240234375 598.961914062 l 1
 83.1865234375 632.709960938 89.5322265625 669.065429688 107.749023438 698.309570312 c 0
 122.0078125 721.202148438 143.46484375 739.672851562 168.510742188 749.677734375 c 0
 193.557617188 759.681640625 222.098632812 760.977539062 247.748046875 752.642578125 c 0
 267.64453125 746.177734375 285.665039062 734.029296875 299.081054688 717.9765625 c 0
 313.931640625 700.209960938 325.084960938 679.671875 338.748046875 660.9765625 c 2
 579.162109375 258.474609375 l 1
  Spiro
    579.164 258.475 v
    584.276 422 o
    579.165 656.5 v
    607.165 656.5 v
    607.165 0 v
    569.348 0 v
    268.814 508.776 v
    234.314 567.5 ]
    193.103 625.333 o
    145.77 646.667 o
    114.77 613 o
    109.303 594.184 v
    90.1257 598.962 v
    107.75 698.31 o
    247.75 752.643 o
    299.083 717.977 ]
    338.75 660.977 v
    536.888 258.475 z
  EndSpiro
198.1640625 656.5 m 1
 226.1640625 656.5 l 1
 226.1640625 120.5 l 1
 198.1640625 120.5 l 1
 198.1640625 656.5 l 1
  Spiro
    198.165 656.5 v
    226.165 656.5 v
    226.165 120.5 v
    198.165 120.5 v
    0 0 z
  EndSpiro
348.96875 119.649414062 m 1
 382.50390625 157.981445312 l 1
 396.8828125 143.599609375 l 1
 267.984375 0 l 1
 253.454101562 15.6826171875 235.862304688 28.7939453125 215.984375 36.6669921875 c 0
 202.05078125 42.1845703125 186.62109375 44.904296875 171.963867188 41.7783203125 c 0
 164.635742188 40.21484375 157.59375 37.169921875 151.614257812 32.6552734375 c 0
 145.633789062 28.1396484375 140.756835938 22.1533203125 137.651367188 15.3330078125 c 0
 134.56640625 8.5595703125 133.245117188 1.0087890625 133.713867188 -6.419921875 c 0
 134.18359375 -13.8486328125 136.411132812 -21.13671875 139.984375 -27.6669921875 c 0
 145.716796875 -38.142578125 154.866210938 -46.640625 165.54296875 -51.98828125 c 0
 176.220703125 -57.3349609375 188.438476562 -59.544921875 200.318359375 -58.3330078125 c 1
 195.651367188 -77 l 1
 174.041992188 -80.525390625 151.541992188 -78.451171875 130.942382812 -71.0302734375 c 0
 110.342773438 -63.609375 91.6845703125 -50.8564453125 77.318359375 -34.3330078125 c 0
 57.458984375 -11.494140625 46.0830078125 18.5849609375 46 48.849609375 c 0
 45.91796875 79.1142578125 57.1591796875 109.180664062 76.6513671875 132.333007812 c 0
 94.720703125 153.796875 119.515625 169.243164062 146.362304688 177.397460938 c 0
 173.208007812 185.55078125 201.995117188 186.640625 229.6640625 181.985351562 c 0
 274.619140625 174.421875 316.759765625 151.911132812 348.96875 119.649414062 c 1
  Spiro
    348.97 119.65 v
    382.506 157.981 v
    396.885 143.6 v
    267.986 0 v
    215.986 36.6667 o
    137.653 15.3333 o
    139.986 -27.6667 o
    200.32 -58.3333 v
    195.653 -77 v
    77.3196 -34.3333 o
    76.653 132.333 o
    229.665 181.986 o
    0 0 z
  EndSpiro
146.94140625 278.833007812 m 1
 128.158203125 283.783203125 111.00390625 294.7109375 98.552734375 309.620117188 c 0
 86.1015625 324.529296875 78.4306640625 343.323242188 76.6513671875 362.666992188 c 0
 73.69140625 394.844726562 87.3408203125 427.62109375 110.651367188 450 c 0
 125.0546875 463.827148438 142.948242188 473.944335938 162.150390625 479.416015625 c 0
 181.3515625 484.888671875 201.856445312 485.712890625 221.44140625 481.833007812 c 1
 219.44140625 348.834960938 l 1
 187.44140625 348.833007812 l 2
 181.829101562 348.833007812 176.193359375 348.802734375 170.643554688 347.961914062 c 0
 165.094726562 347.12109375 159.62890625 345.455078125 154.78125 342.625976562 c 0
 149.93359375 339.797851562 145.73828125 335.797851562 142.90625 330.952148438 c 0
 140.07421875 326.106445312 138.640625 320.4375 138.94140625 314.833007812 c 0
 139.416992188 305.989257812 144.409179688 297.493164062 151.94140625 292.833007812 c 1
 146.94140625 278.833007812 l 1
  Spiro
    76.653 362.667 o
    110.653 450 o
    221.443 481.833 v
    219.443 348.835 v
    187.443 348.833 ]
    138.943 314.833 o
    151.943 292.833 v
    146.943 278.833 v
    104.601 278.896 z
  EndSpiro
EndSplineSet
Fore
SplineSet
584.274414062 422 m 1024
478.607421875 632.333007812 m 1
 440.405273438 589.668945312 l 1
 426.026367188 604.049804688 l 1
 550.607421875 748 l 1
 570.274414062 747.666992188 l 1
 577.030273438 739.096679688 584.876953125 731.379882812 593.607421875 724.833007812 c 0
 603.772460938 717.212890625 615.193359375 711.146484375 627.44140625 707.7734375 c 0
 639.690429688 704.399414062 652.823242188 703.844726562 665.107421875 707.083007812 c 0
 676.548828125 710.099609375 687.134765625 716.4453125 694.951171875 725.328125 c 0
 702.766601562 734.211914062 707.744140625 745.5625 708.94140625 757.333007812 c 1
 722.607421875 757 l 1
 733.28125 736.571289062 737.079101562 712.641601562 733.344726562 689.897460938 c 0
 729.610351562 667.153320312 718.39453125 645.807617188 702.274414062 629.333007812 c 0
 688.538085938 615.294921875 671.408203125 604.747070312 652.999023438 597.899414062 c 0
 634.590820312 591.05078125 614.915039062 587.780273438 595.274414062 587.666992188 c 0
 570.708007812 587.524414062 546.055664062 592.352539062 523.607421875 602.333007812 c 0
 507.0546875 609.693359375 491.751953125 619.8671875 478.607421875 632.333007812 c 1
579.162109375 258.474609375 m 1
 582.053710938 312.9375 583.758789062 367.462890625 584.274414062 422 c 0
 585.013671875 500.194335938 583.309570312 578.412109375 579.163085938 656.5 c 1
 607.163085938 656.5 l 1
 607.163085938 0 l 1
 569.346679688 0 l 1
 268.8125 508.776367188 l 1
 234.3125 567.5 l 2
 222.301757812 587.943359375 208.919921875 607.670898438 193.1015625 625.333007812 c 0
 187.01171875 632.1328125 180.317382812 638.58984375 172.254882812 642.87109375 c 0
 164.193359375 647.153320312 154.619140625 648.90234375 145.768554688 646.666992188 c 0
 138.064453125 644.721679688 131.259765625 639.908203125 126.173828125 633.803710938 c 0
 121.087890625 627.69921875 117.547851562 620.443359375 114.768554688 613 c 0
 112.481445312 606.875976562 110.6875 600.572265625 109.301757812 594.18359375 c 1
 90.1240234375 598.961914062 l 1
 83.1865234375 632.709960938 89.5322265625 669.065429688 107.749023438 698.309570312 c 0
 122.0078125 721.202148438 143.46484375 739.672851562 168.510742188 749.677734375 c 0
 193.557617188 759.681640625 222.098632812 760.977539062 247.748046875 752.642578125 c 0
 267.64453125 746.177734375 285.665039062 734.029296875 299.081054688 717.9765625 c 0
 313.931640625 700.209960938 325.084960938 679.671875 338.748046875 660.9765625 c 1
 579.162109375 258.474609375 l 1
198.1640625 656.5 m 1
 226.1640625 656.5 l 1
 226.1640625 120.5 l 1
 198.1640625 120.5 l 1
 198.1640625 656.5 l 1
348.96875 119.649414062 m 1
 382.50390625 157.981445312 l 1
 396.8828125 143.599609375 l 1
 267.984375 0 l 1
 253.454101562 15.6826171875 235.862304688 28.7939453125 215.984375 36.6669921875 c 0
 202.05078125 42.1845703125 186.62109375 44.904296875 171.963867188 41.7783203125 c 0
 164.635742188 40.21484375 157.59375 37.169921875 151.614257812 32.6552734375 c 0
 145.633789062 28.1396484375 140.756835938 22.1533203125 137.651367188 15.3330078125 c 0
 134.56640625 8.5595703125 133.245117188 1.0087890625 133.713867188 -6.419921875 c 0
 134.18359375 -13.8486328125 136.411132812 -21.13671875 139.984375 -27.6669921875 c 0
 145.716796875 -38.142578125 154.866210938 -46.640625 165.54296875 -51.98828125 c 0
 176.220703125 -57.3349609375 188.438476562 -59.544921875 200.318359375 -58.3330078125 c 1
 195.651367188 -77 l 1
 174.041992188 -80.525390625 151.541992188 -78.451171875 130.942382812 -71.0302734375 c 0
 110.342773438 -63.609375 91.6845703125 -50.8564453125 77.318359375 -34.3330078125 c 0
 57.458984375 -11.494140625 46.0830078125 18.5849609375 46 48.849609375 c 0
 45.91796875 79.1142578125 57.1591796875 109.180664062 76.6513671875 132.333007812 c 0
 94.720703125 153.796875 119.515625 169.243164062 146.362304688 177.397460938 c 0
 173.208007812 185.55078125 201.995117188 186.640625 229.6640625 181.985351562 c 0
 274.619140625 174.421875 316.759765625 151.911132812 348.96875 119.649414062 c 1
146.94140625 278.833007812 m 1
 128.158203125 283.783203125 111.00390625 294.7109375 98.552734375 309.620117188 c 0
 86.1015625 324.529296875 78.4306640625 343.323242188 76.6513671875 362.666992188 c 0
 73.69140625 394.844726562 87.3408203125 427.62109375 110.651367188 450 c 0
 125.0546875 463.827148438 142.948242188 473.944335938 162.150390625 479.416015625 c 0
 181.3515625 484.888671875 201.856445312 485.712890625 221.44140625 481.833007812 c 1
 219.44140625 348.834960938 l 1
 187.44140625 348.833007812 l 2
 181.829101562 348.833007812 176.193359375 348.802734375 170.643554688 347.961914062 c 0
 165.094726562 347.12109375 159.62890625 345.455078125 154.78125 342.625976562 c 0
 149.93359375 339.797851562 145.73828125 335.797851562 142.90625 330.952148438 c 0
 140.07421875 326.106445312 138.640625 320.4375 138.94140625 314.833007812 c 0
 139.416992188 305.989257812 144.409179688 297.493164062 151.94140625 292.833007812 c 1
 146.94140625 278.833007812 l 1
EndSplineSet
EndChar

StartChar: w
Encoding: 119 119 4
Width: 716
VWidth: 0
InSpiro: 1
Flags: HMW
AnchorPoint: "mark_top" 450.68 560 basechar 0
LayerCount: 3
Back
SplineSet
67.9658203125 43.2529296875 m 1
 50.3291015625 65 l 1
 109.616210938 113.081054688 l 1
 127.252929688 91.3330078125 l 1
 67.9658203125 43.2529296875 l 1
  Spiro
    67.9661 43.2521 v
    50.3301 64.9991 v
    109.618 113.08 v
    127.255 91.3321 v
    0 0 z
  EndSpiro
299.016601562 70.75 m 1
 355.725585938 104.001953125 l 1
 367.016601562 71 l 1
 213.2109375 -14.162109375 l 1
 95.330078125 70.908203125 l 1
 95.330078125 290 l 2
 95.330078125 301.814453125 95.55859375 313.631835938 95.2734375 325.443359375 c 0
 94.9892578125 337.254882812 93.9560546875 349.129882812 90.74609375 360.5 c 0
 85.71484375 378.3203125 74.8984375 394.026367188 62.046875 407.356445312 c 0
 49.1953125 420.6875 34.685546875 432.560546875 23.74609375 447.5 c 0
 12.6728515625 462.622070312 5.7802734375 481.004882812 5.681640625 499.747070312 c 0
 5.5830078125 518.490234375 11.9365234375 536.966796875 22.173828125 552.666992188 c 0
 34.7119140625 571.89453125 52.705078125 587.271484375 72.8525390625 598.272460938 c 0
 93 609.272460938 115.466796875 615.958007812 138.330078125 618 c 1
 143.223632812 598.935546875 l 2
 142.010742188 598.584960938 140.806640625 598.205078125 139.612304688 597.794921875 c 0
 129.844726562 594.4453125 120.633789062 589.139648438 113.506835938 581.666992188 c 0
 104.145507812 571.848632812 99.017578125 558.08203125 99.9580078125 544.547851562 c 0
 100.897460938 531.014648438 107.553710938 518.31640625 116.709960938 508.306640625 c 0
 125.865234375 498.295898438 137.30078125 490.694335938 148.702148438 483.341796875 c 0
 160.103515625 475.990234375 171.59765625 468.642578125 181.62109375 459.5 c 0
 198.546875 444.061523438 210.23046875 423.228515625 215.366210938 400.903320312 c 0
 220.502929688 378.577148438 220.185546875 355.409179688 220.163085938 332.5 c 2
 219.9609375 122.5859375 l 1
 299.016601562 70.75 l 1
  Spiro
    299.017 70.75 v
    355.726 104.002 v
    367.017 71 v
    213.212 -14.1621 v
    95.331 70.9082 v
    95.331 290 ]
    90.746 360.5 o
    23.7461 447.5 o
    22.1741 552.667 o
    138.331 618 v
    143.224 598.936 v
    139.613 597.795 o
    113.508 581.667 o
    181.621 459.5 o
    220.164 332.5 [
    219.962 122.586 v
    303.603 70.75 z
  EndSpiro
667.834960938 423.2265625 m 1
 650.198242188 444.973632812 l 1
 709.483398438 493.0546875 l 1
 727.120117188 471.306640625 l 1
 667.834960938 423.2265625 l 1
  Spiro
    667.834 423.226 v
    650.198 444.973 v
    709.485 493.054 v
    727.122 471.306 v
    0 0 z
  EndSpiro
543.288085938 70.908203125 m 17
 543.288085938 386.275390625 l 1
 498.995117188 426.5 l 1
 603.745117188 513.25 l 9
 668.120117188 456.809570312 l 1
 667.916992188 108.979492188 l 9
 435.815429688 -14.162109375 l 25
 452.954101562 30.6669921875 l 25
 543.288085938 70.908203125 l 17
  Spiro
    543.289 70.9082 v
    543.289 386.275 v
    498.996 426.5 v
    603.746 513.25 v
    668.121 456.81 v
    667.919 108.979 v
    435.816 -14.1621 v
    452.955 30.6667 v
    0 0 z
  EndSpiro
378.391601562 513.25 m 1
 479.891601562 424.25 l 17
 442.766601562 394.083007812 l 1
 442.565429688 122.5859375 l 1
 521.620117188 70.75 l 1
 578.329101562 104.001953125 l 1
 589.620117188 71 l 1
 435.815429688 -14.162109375 l 1
 317.934570312 70.908203125 l 1
 317.934570312 386.275390625 l 1
 273.641601562 426.5 l 1
 378.391601562 513.25 l 1
  Spiro
    378.393 513.25 v
    479.893 424.25 v
    442.768 394.083 v
    442.566 122.586 v
    521.621 70.75 v
    578.33 104.002 v
    589.621 71 v
    435.816 -14.1621 v
    317.935 70.9082 v
    317.935 386.275 v
    273.643 426.5 v
    0 0 z
  EndSpiro
EndSplineSet
Fore
SplineSet
67.9658203125 43.2529296875 m 1
 50.3291015625 65 l 1
 109.616210938 113.081054688 l 1
 127.252929688 91.3330078125 l 1
 67.9658203125 43.2529296875 l 1
299.016601562 70.75 m 1
 355.725585938 104.001953125 l 1
 367.016601562 71 l 1
 213.2109375 -14.162109375 l 1
 95.330078125 70.908203125 l 1
 95.330078125 290 l 2
 95.330078125 301.814453125 95.55859375 313.631835938 95.2734375 325.443359375 c 0
 94.9892578125 337.254882812 93.9560546875 349.129882812 90.74609375 360.5 c 0
 85.71484375 378.3203125 74.8984375 394.026367188 62.046875 407.356445312 c 0
 49.1953125 420.6875 34.685546875 432.560546875 23.74609375 447.5 c 0
 12.6728515625 462.622070312 5.7802734375 481.004882812 5.681640625 499.747070312 c 0
 5.5830078125 518.490234375 11.9365234375 536.966796875 22.173828125 552.666992188 c 0
 34.7119140625 571.89453125 52.705078125 587.271484375 72.8525390625 598.272460938 c 0
 93 609.272460938 115.466796875 615.958007812 138.330078125 618 c 1
 143.223632812 598.935546875 l 1
 142.010742188 598.584960938 140.806640625 598.205078125 139.612304688 597.794921875 c 0
 129.844726562 594.4453125 120.633789062 589.139648438 113.506835938 581.666992188 c 0
 104.145507812 571.848632812 99.017578125 558.08203125 99.9580078125 544.547851562 c 0
 100.897460938 531.014648438 107.553710938 518.31640625 116.709960938 508.306640625 c 0
 125.865234375 498.295898438 137.30078125 490.694335938 148.702148438 483.341796875 c 0
 160.103515625 475.990234375 171.59765625 468.642578125 181.62109375 459.5 c 0
 198.546875 444.061523438 210.23046875 423.228515625 215.366210938 400.903320312 c 0
 220.502929688 378.577148438 220.185546875 355.409179688 220.163085938 332.5 c 2
 219.9609375 122.5859375 l 1
 299.016601562 70.75 l 1
667.834960938 423.2265625 m 1
 650.198242188 444.973632812 l 1
 709.483398438 493.0546875 l 1
 727.120117188 471.306640625 l 1
 667.834960938 423.2265625 l 1
543.288085938 70.908203125 m 1
 543.288085938 386.275390625 l 1
 498.995117188 426.5 l 1
 603.745117188 513.25 l 1
 668.120117188 456.809570312 l 1
 667.916992188 108.979492188 l 1
 435.815429688 -14.162109375 l 1
 452.954101562 30.6669921875 l 1
 543.288085938 70.908203125 l 1
378.391601562 513.25 m 1
 479.891601562 424.25 l 1
 442.766601562 394.083007812 l 1
 442.565429688 122.5859375 l 1
 521.620117188 70.75 l 1
 578.329101562 104.001953125 l 1
 589.620117188 71 l 1
 435.815429688 -14.162109375 l 1
 317.934570312 70.908203125 l 1
 317.934570312 386.275390625 l 1
 273.641601562 426.5 l 1
 378.391601562 513.25 l 1
EndSplineSet
EndChar

StartChar: Y
Encoding: 89 89 5
Width: 714
VWidth: 0
InSpiro: 1
Flags: HMW
AnchorPoint: "mark_top" 369 792 basechar 0
LayerCount: 3
Back
SplineSet
647.237304688 615.922851562 m 1
 629.600585938 637.669921875 l 1
 688.887695312 685.750976562 l 1
 706.524414062 664.002929688 l 1
 647.237304688 615.922851562 l 1
  Spiro
    647.237 615.92 v
    629.601 637.667 v
    688.888 685.748 v
    706.525 664 v
    0 0 z
  EndSpiro
70.8916015625 613.388671875 m 1
 71.7626953125 636.06640625 78.90625 658.458007812 91.2529296875 677.5 c 0
 104.88671875 698.526367188 124.750976562 715.364257812 147.490234375 725.89453125 c 0
 170.23046875 736.424804688 195.852539062 740.817382812 220.752929688 738 c 0
 236.223632812 736.25 251.419921875 731.668945312 265.034179688 724.1171875 c 0
 278.6484375 716.564453125 290.602539062 705.9921875 299.579101562 693.271484375 c 0
 308.555664062 680.55078125 314.448242188 665.77734375 317.499023438 650.510742188 c 0
 320.55078125 635.243164062 320.752929688 619.569335938 320.752929688 604 c 2
 320.752929688 63.5 l 1
 180.329101562 63.5 l 1
 180.329101562 602 l 2
 180.329101562 610.690429688 180.357421875 619.450195312 178.663085938 627.973632812 c 0
 176.96875 636.497070312 173.350585938 644.807617188 167.252929688 651 c 0
 162.841796875 655.479492188 157.212890625 658.7578125 151.122070312 660.314453125 c 0
 145.03125 661.872070312 138.538085938 661.712890625 132.47265625 660.059570312 c 0
 120.342773438 656.750976562 110.311523438 647.727539062 103.752929688 637 c 0
 99.3388671875 629.780273438 96.3330078125 621.71484375 94.8291015625 613.388671875 c 1
 70.8916015625 613.388671875 l 1
  Spiro
    91.2544 677.5 o
    220.754 738 o
    320.754 604 [
    320.754 63.5 v
    180.33 63.5 v
    180.33 602 ]
    167.254 651 o
    103.754 637 o
    94.8303 613.388 v
    70.8928 613.388 v
    22.1384 613.388 z
  EndSpiro
122.690429688 231.498046875 m 1
 103.907226562 236.448242188 86.7529296875 247.375 74.3017578125 262.28515625 c 0
 61.8515625 277.194335938 54.1796875 295.98828125 52.400390625 315.33203125 c 0
 49.4404296875 347.509765625 63.08984375 380.286132812 86.400390625 402.665039062 c 0
 100.803710938 416.4921875 118.698242188 426.609375 137.899414062 432.081054688 c 0
 157.100585938 437.553710938 177.60546875 438.377929688 197.190429688 434.498046875 c 1
 195.190429688 301.5 l 1
 163.190429688 301.498046875 l 2
 157.578125 301.498046875 151.942382812 301.467773438 146.392578125 300.626953125 c 0
 140.84375 299.786132812 135.377929688 298.120117188 130.530273438 295.291015625 c 0
 125.682617188 292.462890625 121.487304688 288.462890625 118.655273438 283.6171875 c 0
 115.823242188 278.771484375 114.389648438 273.102539062 114.690429688 267.498046875 c 0
 115.166015625 258.654296875 120.159179688 250.158203125 127.690429688 245.498046875 c 1
 122.690429688 231.498046875 l 1
  Spiro
    52.4019 315.332 o
    86.4019 402.665 o
    197.192 434.498 v
    195.192 301.5 v
    163.192 301.498 ]
    114.692 267.498 o
    127.692 245.498 v
    122.692 231.498 v
    104.601 278.896 z
  EndSpiro
401.252929688 277.7265625 m 1
 401.002929688 306.9765625 l 1
 416.21875 323.064453125 437.875 332.8828125 460.002929688 333.7265625 c 0
 484.534179688 334.662109375 509.276367188 324.447265625 526.002929688 306.4765625 c 1
 526.002929688 276.9765625 l 1
 509.346679688 295.661132812 484 306.25390625 459.002929688 304.9765625 c 0
 437.196289062 303.862304688 415.9765625 293.849609375 401.252929688 277.7265625 c 1
  Spiro
    401.004 307 v
    460.004 333.75 o
    526.004 306.5 v
    526.004 277 v
    459.004 305 o
    401.254 277.75 v
    338.242 448.25 z
  EndSpiro
401.252929688 447.788085938 m 1
 415.9765625 431.665039062 437.196289062 421.65234375 459.002929688 420.538085938 c 0
 484 419.260742188 509.346679688 429.853515625 526.002929688 448.538085938 c 1
 526.002929688 419.038085938 l 1
 509.276367188 401.068359375 484.534179688 390.852539062 460.002929688 391.788085938 c 0
 437.875 392.631835938 416.21875 402.450195312 401.002929688 418.538085938 c 1
 401.252929688 447.788085938 l 1
  Spiro
    401.254 447.788 v
    459.004 420.538 o
    526.004 448.538 v
    526.004 419.038 v
    460.004 391.788 o
    401.004 418.538 v
    338.242 448.25 z
  EndSpiro
414.298828125 40 m 1
 385.6328125 39.9541015625 l 1
 385.634765625 733.333007812 l 1
 414.296875 733.333007812 l 1
 414.298828125 40 l 1
  Spiro
    414.3 40 v
    385.634 39.9543 v
    385.636 733.333 v
    414.298 733.333 v
    0 0 z
  EndSpiro
655.586914062 651.75 m 1
 656.34375 147 l 2
 656.375 125.676757812 655.788085938 103.982421875 649.001953125 83.7685546875 c 0
 642.21484375 63.5537109375 629.331054688 45.369140625 612.182617188 32.697265625 c 0
 595.033203125 20.025390625 574.166015625 12.943359375 552.998046875 10.3740234375 c 0
 531.830078125 7.8046875 510.353515625 9.4267578125 489.252929688 12.5 c 0
 438.901367188 19.8330078125 389.711914062 33.5908203125 339.71484375 43.0458984375 c 0
 314.716796875 47.7734375 289.501953125 51.849609375 264.073242188 52.6572265625 c 0
 238.64453125 53.4658203125 212.307617188 50.943359375 189.84375 39 c 0
 180.30078125 33.9267578125 171.61328125 27.0791015625 165.073242188 18.474609375 c 0
 158.534179688 9.8701171875 154.250976562 -0.515625 153.34375 -11.28515625 c 0
 152.5 -21.306640625 154.604492188 -31.5458984375 159.259765625 -40.4609375 c 0
 163.916015625 -49.3759765625 171.044921875 -56.9169921875 179.438476562 -62.4580078125 c 0
 196.225585938 -73.5400390625 217.260742188 -76.41796875 237.34375 -75.28515625 c 0
 280.043945312 -72.876953125 320.872070312 -57.615234375 362.603515625 -48.25390625 c 0
 404.333984375 -38.8935546875 446.685546875 -32.060546875 489.34375 -29 c 0
 520.791992188 -26.744140625 552.98828125 -26.748046875 583.134765625 -35.984375 c 0
 598.20703125 -40.603515625 612.625976562 -47.625 625 -57.3916015625 c 0
 637.375 -67.1591796875 647.619140625 -79.69921875 654.252929688 -94 c 0
 660.736328125 -107.9765625 663.716796875 -123.546875 662.952148438 -138.934570312 c 0
 662.1875 -154.322265625 657.727539062 -169.4609375 650.450195312 -183.041015625 c 0
 635.897460938 -210.201171875 610.604492188 -230.71875 582.34375 -243 c 0
 570.48046875 -248.155273438 558.01953125 -251.9296875 545.295898438 -254.258789062 c 1
 540.51953125 -235.099609375 l 2
 544.0078125 -234.397460938 547.411132812 -233.270507812 550.627929688 -231.75 c 0
 557.963867188 -228.283203125 564.33203125 -222.721679688 568.5546875 -215.793945312 c 0
 572.778320312 -208.865234375 574.7734375 -200.577148438 574.002929688 -192.5 c 0
 573.30859375 -185.215820312 570.385742188 -178.189453125 565.869140625 -172.43359375 c 0
 561.3515625 -166.676757812 555.303710938 -162.201171875 548.65234375 -159.153320312 c 0
 535.34765625 -153.05859375 520.1328125 -152.623046875 505.564453125 -154 c 0
 469.01171875 -157.456054688 433.205078125 -166.383789062 397.002929688 -172.5 c 0
 361.16015625 -178.555664062 325.619140625 -186.33984375 289.708984375 -191.986328125 c 0
 253.798828125 -197.6328125 216.49609375 -200.059570312 181.564453125 -190 c 0
 160.5703125 -183.954101562 140.782226562 -173.38671875 124.71875 -158.579101562 c 0
 108.654296875 -143.770507812 96.4375 -124.80078125 89.7529296875 -104 c 0
 79.548828125 -72.2421875 82.666015625 -36.6630859375 97.1318359375 -6.60546875 c 0
 111.596679688 23.451171875 136.850585938 47.8408203125 166.564453125 63 c 0
 198.552734375 79.3193359375 235.435546875 84.833984375 271.213867188 81.7578125 c 0
 306.9921875 78.681640625 341.286132812 66.6328125 376.375976562 59 c 0
 401.203125 53.599609375 427.651367188 51.4140625 451.564453125 60 c 0
 464.444335938 64.6240234375 476.237304688 72.251953125 485.6953125 82.142578125 c 0
 495.15234375 92.033203125 502.237304688 104.07421875 506.973632812 116.913085938 c 0
 516.447265625 142.58984375 516.533203125 170.630859375 516.533203125 198 c 2
 516.53515625 594.186523438 l 1
 462.502929688 635.75 l 1
 399.002929688 585.75 l 1
 399.002929688 620.5 l 1
 550.002929688 742.75 l 1
 655.586914062 651.75 l 1
  Spiro
    656.344 147 ]
    489.254 12.5 o
    189.844 39 o
    153.344 -11.2852 o
    237.344 -75.2852 o
    489.344 -29 o
    654.254 -94 o
    582.344 -243 o
    545.297 -254.259 v
    540.521 -235.1 v
    550.629 -231.75 o
    574.004 -192.5 o
    505.565 -154 o
    397.004 -172.5 o
    181.565 -190 o
    89.7544 -104 o
    166.565 63 o
    376.376 59 o
    451.565 60 o
    516.534 198 [
    516.536 594.186 v
    462.504 635.75 v
    399.004 585.75 v
    399.004 620.5 v
    550.004 742.75 v
    655.587 651.75 v
    0 0 z
  EndSpiro
EndSplineSet
Fore
SplineSet
647.237304688 615.922851562 m 1
 629.600585938 637.669921875 l 1
 688.887695312 685.750976562 l 1
 706.524414062 664.002929688 l 1
 647.237304688 615.922851562 l 1
70.8916015625 613.388671875 m 1
 71.7626953125 636.06640625 78.90625 658.458007812 91.2529296875 677.5 c 0
 104.88671875 698.526367188 124.750976562 715.364257812 147.490234375 725.89453125 c 0
 170.23046875 736.424804688 195.852539062 740.817382812 220.752929688 738 c 0
 236.223632812 736.25 251.419921875 731.668945312 265.034179688 724.1171875 c 0
 278.6484375 716.564453125 290.602539062 705.9921875 299.579101562 693.271484375 c 0
 308.555664062 680.55078125 314.448242188 665.77734375 317.499023438 650.510742188 c 0
 320.55078125 635.243164062 320.752929688 619.569335938 320.752929688 604 c 2
 320.752929688 63.5 l 1
 180.329101562 63.5 l 1
 180.329101562 602 l 2
 180.329101562 610.690429688 180.357421875 619.450195312 178.663085938 627.973632812 c 0
 176.96875 636.497070312 173.350585938 644.807617188 167.252929688 651 c 0
 162.841796875 655.479492188 157.212890625 658.7578125 151.122070312 660.314453125 c 0
 145.03125 661.872070312 138.538085938 661.712890625 132.47265625 660.059570312 c 0
 120.342773438 656.750976562 110.311523438 647.727539062 103.752929688 637 c 0
 99.3388671875 629.780273438 96.3330078125 621.71484375 94.8291015625 613.388671875 c 1
 70.8916015625 613.388671875 l 1
122.690429688 231.498046875 m 1
 103.907226562 236.448242188 86.7529296875 247.375 74.3017578125 262.28515625 c 0
 61.8515625 277.194335938 54.1796875 295.98828125 52.400390625 315.33203125 c 0
 49.4404296875 347.509765625 63.08984375 380.286132812 86.400390625 402.665039062 c 0
 100.803710938 416.4921875 118.698242188 426.609375 137.899414062 432.081054688 c 0
 157.100585938 437.553710938 177.60546875 438.377929688 197.190429688 434.498046875 c 1
 195.190429688 301.5 l 1
 163.190429688 301.498046875 l 2
 157.578125 301.498046875 151.942382812 301.467773438 146.392578125 300.626953125 c 0
 140.84375 299.786132812 135.377929688 298.120117188 130.530273438 295.291015625 c 0
 125.682617188 292.462890625 121.487304688 288.462890625 118.655273438 283.6171875 c 0
 115.823242188 278.771484375 114.389648438 273.102539062 114.690429688 267.498046875 c 0
 115.166015625 258.654296875 120.159179688 250.158203125 127.690429688 245.498046875 c 1
 122.690429688 231.498046875 l 1
401.252929688 277.7265625 m 1
 401.002929688 306.9765625 l 1
 416.21875 323.064453125 437.875 332.8828125 460.002929688 333.7265625 c 0
 484.534179688 334.662109375 509.276367188 324.447265625 526.002929688 306.4765625 c 1
 526.002929688 276.9765625 l 1
 509.346679688 295.661132812 484 306.25390625 459.002929688 304.9765625 c 0
 437.196289062 303.862304688 415.9765625 293.849609375 401.252929688 277.7265625 c 1
401.252929688 447.788085938 m 1
 415.9765625 431.665039062 437.196289062 421.65234375 459.002929688 420.538085938 c 0
 484 419.260742188 509.346679688 429.853515625 526.002929688 448.538085938 c 1
 526.002929688 419.038085938 l 1
 509.276367188 401.068359375 484.534179688 390.852539062 460.002929688 391.788085938 c 0
 437.875 392.631835938 416.21875 402.450195312 401.002929688 418.538085938 c 1
 401.252929688 447.788085938 l 1
414.298828125 40 m 1
 385.6328125 39.9541015625 l 1
 385.634765625 733.333007812 l 1
 414.296875 733.333007812 l 1
 414.298828125 40 l 1
655.586914062 651.75 m 1
 656.34375 147 l 2
 656.375 125.676757812 655.788085938 103.982421875 649.001953125 83.7685546875 c 0
 642.21484375 63.5537109375 629.331054688 45.369140625 612.182617188 32.697265625 c 0
 595.033203125 20.025390625 574.166015625 12.943359375 552.998046875 10.3740234375 c 0
 531.830078125 7.8046875 510.353515625 9.4267578125 489.252929688 12.5 c 0
 438.901367188 19.8330078125 389.711914062 33.5908203125 339.71484375 43.0458984375 c 0
 314.716796875 47.7734375 289.501953125 51.849609375 264.073242188 52.6572265625 c 0
 238.64453125 53.4658203125 212.307617188 50.943359375 189.84375 39 c 0
 180.30078125 33.9267578125 171.61328125 27.0791015625 165.073242188 18.474609375 c 0
 158.534179688 9.8701171875 154.250976562 -0.515625 153.34375 -11.28515625 c 0
 152.5 -21.306640625 154.604492188 -31.5458984375 159.259765625 -40.4609375 c 0
 163.916015625 -49.3759765625 171.044921875 -56.9169921875 179.438476562 -62.4580078125 c 0
 196.225585938 -73.5400390625 217.260742188 -76.41796875 237.34375 -75.28515625 c 0
 280.043945312 -72.876953125 320.872070312 -57.615234375 362.603515625 -48.25390625 c 0
 404.333984375 -38.8935546875 446.685546875 -32.060546875 489.34375 -29 c 0
 520.791992188 -26.744140625 552.98828125 -26.748046875 583.134765625 -35.984375 c 0
 598.20703125 -40.603515625 612.625976562 -47.625 625 -57.3916015625 c 0
 637.375 -67.1591796875 647.619140625 -79.69921875 654.252929688 -94 c 0
 660.736328125 -107.9765625 663.716796875 -123.546875 662.952148438 -138.934570312 c 0
 662.1875 -154.322265625 657.727539062 -169.4609375 650.450195312 -183.041015625 c 0
 635.897460938 -210.201171875 610.604492188 -230.71875 582.34375 -243 c 0
 570.48046875 -248.155273438 558.01953125 -251.9296875 545.295898438 -254.258789062 c 1
 540.51953125 -235.099609375 l 1
 544.0078125 -234.397460938 547.411132812 -233.270507812 550.627929688 -231.75 c 0
 557.963867188 -228.283203125 564.33203125 -222.721679688 568.5546875 -215.793945312 c 0
 572.778320312 -208.865234375 574.7734375 -200.577148438 574.002929688 -192.5 c 0
 573.30859375 -185.215820312 570.385742188 -178.189453125 565.869140625 -172.43359375 c 0
 561.3515625 -166.676757812 555.303710938 -162.201171875 548.65234375 -159.153320312 c 0
 535.34765625 -153.05859375 520.1328125 -152.623046875 505.564453125 -154 c 0
 469.01171875 -157.456054688 433.205078125 -166.383789062 397.002929688 -172.5 c 0
 361.16015625 -178.555664062 325.619140625 -186.33984375 289.708984375 -191.986328125 c 0
 253.798828125 -197.6328125 216.49609375 -200.059570312 181.564453125 -190 c 0
 160.5703125 -183.954101562 140.782226562 -173.38671875 124.71875 -158.579101562 c 0
 108.654296875 -143.770507812 96.4375 -124.80078125 89.7529296875 -104 c 0
 79.548828125 -72.2421875 82.666015625 -36.6630859375 97.1318359375 -6.60546875 c 0
 111.596679688 23.451171875 136.850585938 47.8408203125 166.564453125 63 c 0
 198.552734375 79.3193359375 235.435546875 84.833984375 271.213867188 81.7578125 c 0
 306.9921875 78.681640625 341.286132812 66.6328125 376.375976562 59 c 0
 401.203125 53.599609375 427.651367188 51.4140625 451.564453125 60 c 0
 464.444335938 64.6240234375 476.237304688 72.251953125 485.6953125 82.142578125 c 0
 495.15234375 92.033203125 502.237304688 104.07421875 506.973632812 116.913085938 c 0
 516.447265625 142.58984375 516.533203125 170.630859375 516.533203125 198 c 2
 516.53515625 594.186523438 l 1
 462.502929688 635.75 l 1
 399.002929688 585.75 l 1
 399.002929688 620.5 l 1
 550.002929688 742.75 l 1
 655.586914062 651.75 l 1
EndSplineSet
EndChar

StartChar: M
Encoding: 77 77 6
Width: 1085
VWidth: 0
InSpiro: 1
Flags: HMW
LayerCount: 3
Back
SplineSet
955.504882812 598.147460938 m 1
 937.868164062 619.89453125 l 1
 997.155273438 667.975585938 l 1
 1014.79199219 646.227539062 l 1
 955.504882812 598.147460938 l 1
  Spiro
    955.504 598.145 v
    937.868 619.892 v
    997.155 667.973 v
    1014.79 646.225 v
    0 0 z
  EndSpiro
823.75 125.8671875 m 1
 823.75 560.630859375 l 1
 712.73828125 649.94140625 l 1
 626.708984375 597.833007812 l 1
 615.161132812 619.166015625 l 1
 828.708984375 747.333007812 l 1
 962.759765625 627.7421875 l 1
 962.759765625 138.807617188 l 1
 1006.20898438 100.984375 l 1
 1062.84667969 138.806640625 l 1
 1077.2265625 124.426757812 l 1
 924.455078125 -0.203125 l 1
 809.412109375 95.666015625 l 1
 775.857421875 71.69921875 l 1
 766.271484375 86.0791015625 l 1
 823.75 125.8671875 l 1
  Spiro
    823.75 125.867 v
    823.75 560.631 v
    712.739 649.942 v
    626.709 597.833 v
    615.161 619.166 v
    828.709 747.333 v
    962.759 627.742 v
    962.759 138.808 v
    1006.21 100.984 v
    1062.84 138.807 v
    1077.22 124.427 v
    924.455 -0.203275 v
    809.412 95.666 v
    775.857 71.6991 v
    766.271 86.0789 v
    0 0 z
  EndSpiro
809.412109375 95.666015625 m 1024
  Spiro
    809.412 95.666 {
    0 0 z
  EndSpiro
809.412109375 95.666015625 m 1024
  Spiro
    809.412 95.666 {
    0 0 z
  EndSpiro
632.009765625 148.393554688 m 1024
  Spiro
    632.01 148.394 {
    0 0 z
  EndSpiro
707.034179688 278.188476562 m 1
 706.784179688 307.438476562 l 1
 722 323.526367188 743.65625 333.344726562 765.784179688 334.188476562 c 0
 790.315429688 335.124023438 815.057617188 324.909179688 831.784179688 306.938476562 c 1
 831.784179688 277.438476562 l 1
 815.127929688 296.123046875 789.78125 306.715820312 764.784179688 305.438476562 c 0
 742.977539062 304.32421875 721.7578125 294.311523438 707.034179688 278.188476562 c 1
  Spiro
    706.784 307.462 v
    765.784 334.212 o
    831.784 306.962 v
    831.784 277.462 v
    764.784 305.462 o
    707.034 278.212 v
    338.242 448.25 z
  EndSpiro
707.034179688 448.25 m 1
 721.7578125 432.126953125 742.977539062 422.114257812 764.784179688 421 c 0
 789.78125 419.72265625 815.127929688 430.315429688 831.784179688 449 c 1
 831.784179688 419.5 l 1
 815.057617188 401.530273438 790.315429688 391.314453125 765.784179688 392.25 c 0
 743.65625 393.09375 722 402.912109375 706.784179688 419 c 1
 707.034179688 448.25 l 1
  Spiro
    707.034 448.25 v
    764.784 421 o
    831.784 449 v
    831.784 419.5 v
    765.784 392.25 o
    706.784 419 v
    338.242 448.25 z
  EndSpiro
396.8984375 251.333007812 m 1024
  Spiro
    396.898 251.333 {
    0 0 z
  EndSpiro
720.079101562 99.5625 m 1
 691.4140625 99.5166015625 l 1
 691.415039062 737.991210938 l 1
 720.077148438 737.991210938 l 1
 720.079101562 99.5625 l 1
  Spiro
    720.08 99.5625 v
    691.414 99.5168 v
    691.416 737.991 v
    720.078 737.991 v
    0 0 z
  EndSpiro
502.586914062 565.424804688 m 1
 380.500976562 649 l 1
 358.728515625 634.831054688 339.780273438 615.99609375 326.791992188 593.5 c 0
 320.677734375 582.909179688 316.038085938 571.438476562 313.443359375 559.48828125 c 0
 310.848632812 547.538085938 310.501953125 535.228515625 310.501953125 523 c 2
 310.500976562 299.5 l 2
 310.500976562 284.751953125 309.87109375 269.802734375 305.391601562 255.750976562 c 0
 300.913085938 241.69921875 292.975585938 228.86328125 283.000976562 218 c 0
 264.952148438 198.342773438 241.146484375 184.666992188 216.251953125 175.052734375 c 0
 191.358398438 165.438476562 164.958007812 159.8359375 138.337890625 157.965820312 c 1
 133.462890625 177.028320312 l 1
 142.553710938 178.013671875 151.301757812 181.801757812 158.317382812 187.666992188 c 0
 163.942382812 192.370117188 168.444335938 198.350585938 171.724609375 204.908203125 c 0
 175.005859375 211.46484375 177.090820312 218.575195312 178.3828125 225.79296875 c 0
 180.965820312 240.227539062 180.650390625 255.002929688 180.650390625 269.666992188 c 2
 180.650390625 427 l 2
 180.650390625 448.29296875 181.299804688 469.7734375 186.452148438 490.43359375 c 0
 191.604492188 511.092773438 200.8984375 530.657226562 213.250976562 548 c 0
 234.9296875 578.435546875 265.930664062 600.758789062 297.500976562 620.75 c 2
 497.79296875 747.580078125 l 1
 632.009765625 636.501953125 l 1
 637.8046875 631.669921875 l 1
 632.024414062 626.013671875 l 1
 632.009765625 148.393554688 l 1
 695.208984375 100.984375 l 1
 751.846679688 138.806640625 l 1
 766.227539062 124.426757812 l 1
 598.455078125 -0.203125 l 1
 483.412109375 95.666015625 l 1
 449.857421875 71.69921875 l 1
 440.271484375 86.0791015625 l 1
 502.584960938 129.221679688 l 1
 502.586914062 565.424804688 l 1
  Spiro
    502.587 565.425 v
    380.501 649 v
    326.792 593.5 o
    310.502 523 [
    310.501 299.5 ]
    283.001 218 o
    138.338 157.966 v
    133.463 177.028 v
    158.317 187.667 o
    180.65 269.667 [
    180.65 427 ]
    213.251 548 o
    297.501 620.75 [
    497.793 747.58 v
    632.01 636.502 v
    637.805 631.67 v
    632.024 626.014 v
    632.01 148.394 v
    695.209 100.984 v
    751.847 138.807 v
    766.227 124.427 v
    598.455 -0.203275 v
    483.412 95.666 v
    449.857 71.6991 v
    440.271 86.0789 v
    502.585 129.222 v
    0 0 z
  EndSpiro
384.034179688 278.188476562 m 1
 383.784179688 307.438476562 l 1
 399 323.526367188 420.65625 333.344726562 442.784179688 334.188476562 c 0
 467.315429688 335.124023438 492.057617188 324.909179688 508.784179688 306.938476562 c 1
 508.784179688 277.438476562 l 1
 492.127929688 296.123046875 466.78125 306.715820312 441.784179688 305.438476562 c 0
 419.977539062 304.32421875 398.7578125 294.311523438 384.034179688 278.188476562 c 1
  Spiro
    383.784 307.462 v
    442.784 334.212 o
    508.784 306.962 v
    508.784 277.462 v
    441.784 305.462 o
    384.034 278.212 v
    338.242 448.25 z
  EndSpiro
384.034179688 448.25 m 1
 398.7578125 432.126953125 419.977539062 422.114257812 441.784179688 421 c 0
 466.78125 419.72265625 492.12890625 430.315429688 508.784179688 449 c 1
 508.784179688 419.5 l 1
 492.057617188 401.530273438 467.315429688 391.314453125 442.784179688 392.25 c 0
 420.65625 393.09375 399 402.912109375 383.784179688 419 c 1
 384.034179688 448.25 l 1
  Spiro
    384.034 448.25 v
    441.784 421 o
    508.784 449 v
    508.784 419.5 v
    442.784 392.25 o
    383.784 419 v
    338.242 448.25 z
  EndSpiro
368.232421875 432.163085938 m 1
 368.232421875 651.62109375 l 1
 396.8984375 651.666992188 l 1
 396.8984375 251.333007812 l 1
 397.0625 155.330078125 l 2
 397.092773438 137.23046875 396.071289062 118.815429688 389.700195312 101.874023438 c 0
 383.329101562 84.9326171875 372.380859375 69.9375 359.231445312 57.5 c 0
 336.870117188 36.349609375 308.528320312 21.8125 278.563476562 14.7822265625 c 0
 263.580078125 11.2666015625 248.215820312 9.69140625 232.869140625 8.544921875 c 0
 217.522460938 7.3984375 201.950195312 6.7431640625 187.231445312 2.25 c 0
 177.797851562 -0.6298828125 168.701171875 -5.3291015625 162.068359375 -12.630859375 c 0
 155.436523438 -19.931640625 151.658203125 -29.927734375 152.564453125 -39.75 c 0
 153.27734375 -47.47265625 156.77734375 -54.833984375 161.977539062 -60.587890625 c 0
 167.177734375 -66.341796875 173.958984375 -70.5537109375 181.231445312 -73.25 c 0
 188.920898438 -76.1005859375 197.19921875 -77.3154296875 205.390625 -76.931640625 c 1
 205.390625 -100.8671875 l 1
 175.116210938 -104.768554688 143.434570312 -93.9560546875 121.3984375 -72.8330078125 c 0
 98.2568359375 -50.6513671875 85.7861328125 -18.38671875 85.453125 13.6669921875 c 0
 85.1708984375 40.794921875 93.771484375 68.2626953125 111.064453125 89.1669921875 c 0
 122.196289062 102.622070312 136.723632812 113.138671875 152.729492188 120.122070312 c 0
 168.736328125 127.104492188 186.078125 130.586914062 203.453125 132.333007812 c 0
 228.631835938 134.864257812 254.204101562 133.969726562 279.03125 138.86328125 c 0
 291.4453125 141.309570312 303.627929688 145.241210938 314.747070312 151.278320312 c 0
 325.8671875 157.315429688 335.85546875 165.474609375 343.786132812 175.333007812 c 0
 354.826171875 189.056640625 361.615234375 205.87890625 364.905273438 223.182617188 c 0
 368.1953125 240.485351562 368.231445312 258.219726562 368.231445312 275.833007812 c 2
 368.232421875 432.163085938 l 1
  Spiro
    368.232 651.621 v
    396.898 651.667 v
    396.898 251.333 v
    397.062 155.33 ]
    359.231 57.5 o
    187.231 2.25 o
    152.565 -39.75 o
    181.231 -73.25 o
    205.391 -76.9321 v
    205.391 -100.867 v
    121.398 -72.8333 o
    85.4531 13.6667 o
    111.065 89.1667 o
    203.453 132.333 o
    343.786 175.333 o
    368.231 275.833 [
    368.232 432.163 v
    0 0 z
  EndSpiro
71.232421875 287.364257812 m 1
 57.1708984375 312.6171875 52.345703125 343.055664062 58.7080078125 371.25 c 0
 62.1181640625 386.359375 68.76953125 400.779296875 78.4150390625 412.8984375 c 0
 88.060546875 425.018554688 100.688476562 434.6640625 114.708007812 441.25 c 0
 139.099609375 452.708007812 166.58203125 455.095703125 193.208007812 459.25 c 0
 200.545898438 460.39453125 207.869140625 461.63671875 215.169921875 463 c 1
 223.465820312 345.204101562 l 1
 147.640625 345.203125 l 2
 141.51171875 345.203125 135.352539062 345.138671875 129.311523438 344.106445312 c 0
 123.270507812 343.073242188 117.368164062 341.075195312 112.098632812 337.947265625 c 0
 101.557617188 331.69140625 93.9560546875 320.90625 91.015625 309.006835938 c 0
 89.2705078125 301.948242188 89.0595703125 294.518554688 90.357421875 287.364257812 c 1
 71.232421875 287.364257812 l 1
  Spiro
    58.7082 371.25 o
    114.708 441.25 o
    193.208 459.25 o
    215.17 463 v
    223.466 345.205 v
    147.64 345.203 ]
    91.0152 309.007 o
    90.3577 287.365 v
    71.2327 287.365 v
    24.8781 284.5 z
  EndSpiro
71.171875 624.80078125 m 1
 75.2099609375 635.58203125 81.9482421875 645.353515625 90.6494140625 652.892578125 c 0
 97.8603515625 659.140625 106.438476562 663.818359375 115.625 666.392578125 c 0
 127.400390625 669.692382812 139.954101562 669.409179688 151.97265625 667.151367188 c 0
 163.991210938 664.893554688 175.592773438 660.872070312 187.31640625 657.392578125 c 0
 201.181640625 653.278320312 215.397460938 650.032226562 229.84765625 649.419921875 c 0
 244.297851562 648.806640625 258.83984375 650.762695312 272.649414062 655.059570312 c 0
 294.436523438 661.838867188 314.14453125 674.21484375 331.74609375 688.735351562 c 0
 349.346679688 703.255859375 365.185546875 719.78125 380.649414062 736.559570312 c 0
 384.577148438 740.821289062 388.473632812 745.11328125 392.338867188 749.431640625 c 1
 373.155273438 759.0234375 l 1
 369.524414062 755.2890625 365.833007812 751.611328125 362.0234375 748.059570312 c 0
 354.8828125 741.40234375 347.021484375 735.143554688 337.727539062 732.154296875 c 0
 328.596679688 729.217773438 318.737304688 729.65234375 309.227539062 730.904296875 c 0
 301.353515625 731.940429688 293.532226562 733.365234375 285.7734375 735.059570312 c 0
 271.509765625 738.173828125 257.623046875 742.778320312 243.814453125 747.518554688 c 0
 230.005859375 752.258789062 216.03125 756.864257812 201.541992188 758.654296875 c 0
 188.547851562 760.258789062 175.247070312 759.510742188 162.577148438 756.208984375 c 0
 149.907226562 752.907226562 137.932617188 747.172851562 127.041992188 739.904296875 c 0
 106.854492188 726.4296875 90.2197265625 708.036132812 77.0419921875 687.654296875 c 0
 66.3583984375 671.129882812 57.947265625 653.145507812 52 634.388671875 c 1
 71.171875 624.80078125 l 1
  Spiro
    90.6496 652.893 o
    115.625 666.393 o
    187.316 657.393 o
    272.649 655.06 o
    380.649 736.56 o
    392.339 749.432 v
    373.156 759.024 v
    362.024 748.06 o
    337.728 732.155 o
    309.228 730.905 o
    285.774 735.06 o
    201.542 758.655 o
    127.042 739.905 o
    77.0421 687.655 o
    52 634.389 v
    71.172 624.801 v
    29.6031 630.021 z
  EndSpiro
EndSplineSet
Fore
SplineSet
955.504882812 598.147460938 m 1
 937.868164062 619.89453125 l 1
 997.155273438 667.975585938 l 1
 1014.79199219 646.227539062 l 1
 955.504882812 598.147460938 l 1
823.75 125.8671875 m 1
 823.75 560.630859375 l 1
 712.73828125 649.94140625 l 1
 626.708984375 597.833007812 l 1
 615.161132812 619.166015625 l 1
 828.708984375 747.333007812 l 1
 962.759765625 627.7421875 l 1
 962.759765625 138.807617188 l 1
 1006.20898438 100.984375 l 1
 1062.84667969 138.806640625 l 1
 1077.2265625 124.426757812 l 1
 924.455078125 -0.203125 l 1
 809.412109375 95.666015625 l 1
 775.857421875 71.69921875 l 1
 766.271484375 86.0791015625 l 1
 823.75 125.8671875 l 1
809.412109375 95.666015625 m 1024
809.412109375 95.666015625 m 1024
632.009765625 148.393554688 m 1024
707.034179688 278.188476562 m 1
 706.784179688 307.438476562 l 1
 722 323.526367188 743.65625 333.344726562 765.784179688 334.188476562 c 0
 790.315429688 335.124023438 815.057617188 324.909179688 831.784179688 306.938476562 c 1
 831.784179688 277.438476562 l 1
 815.127929688 296.123046875 789.78125 306.715820312 764.784179688 305.438476562 c 0
 742.977539062 304.32421875 721.7578125 294.311523438 707.034179688 278.188476562 c 1
707.034179688 448.25 m 1
 721.7578125 432.126953125 742.977539062 422.114257812 764.784179688 421 c 0
 789.78125 419.72265625 815.127929688 430.315429688 831.784179688 449 c 1
 831.784179688 419.5 l 1
 815.057617188 401.530273438 790.315429688 391.314453125 765.784179688 392.25 c 0
 743.65625 393.09375 722 402.912109375 706.784179688 419 c 1
 707.034179688 448.25 l 1
396.8984375 251.333007812 m 1024
720.079101562 99.5625 m 1
 691.4140625 99.5166015625 l 1
 691.415039062 737.991210938 l 1
 720.077148438 737.991210938 l 1
 720.079101562 99.5625 l 1
502.586914062 565.424804688 m 1
 380.500976562 649 l 1
 358.728515625 634.831054688 339.780273438 615.99609375 326.791992188 593.5 c 0
 320.677734375 582.909179688 316.038085938 571.438476562 313.443359375 559.48828125 c 0
 310.848632812 547.538085938 310.501953125 535.228515625 310.501953125 523 c 2
 310.500976562 299.5 l 2
 310.500976562 284.751953125 309.87109375 269.802734375 305.391601562 255.750976562 c 0
 300.913085938 241.69921875 292.975585938 228.86328125 283.000976562 218 c 0
 264.952148438 198.342773438 241.146484375 184.666992188 216.251953125 175.052734375 c 0
 191.358398438 165.438476562 164.958007812 159.8359375 138.337890625 157.965820312 c 1
 133.462890625 177.028320312 l 1
 142.553710938 178.013671875 151.301757812 181.801757812 158.317382812 187.666992188 c 0
 163.942382812 192.370117188 168.444335938 198.350585938 171.724609375 204.908203125 c 0
 175.005859375 211.46484375 177.090820312 218.575195312 178.3828125 225.79296875 c 0
 180.965820312 240.227539062 180.650390625 255.002929688 180.650390625 269.666992188 c 2
 180.650390625 427 l 2
 180.650390625 448.29296875 181.299804688 469.7734375 186.452148438 490.43359375 c 0
 191.604492188 511.092773438 200.8984375 530.657226562 213.250976562 548 c 0
 234.9296875 578.435546875 265.930664062 600.758789062 297.500976562 620.75 c 2
 497.79296875 747.580078125 l 1
 632.009765625 636.501953125 l 1
 637.8046875 631.669921875 l 1
 632.024414062 626.013671875 l 1
 632.009765625 148.393554688 l 1
 695.208984375 100.984375 l 1
 751.846679688 138.806640625 l 1
 766.227539062 124.426757812 l 1
 598.455078125 -0.203125 l 1
 483.412109375 95.666015625 l 1
 449.857421875 71.69921875 l 1
 440.271484375 86.0791015625 l 1
 502.584960938 129.221679688 l 1
 502.586914062 565.424804688 l 1
384.034179688 278.188476562 m 1
 383.784179688 307.438476562 l 1
 399 323.526367188 420.65625 333.344726562 442.784179688 334.188476562 c 0
 467.315429688 335.124023438 492.057617188 324.909179688 508.784179688 306.938476562 c 1
 508.784179688 277.438476562 l 1
 492.127929688 296.123046875 466.78125 306.715820312 441.784179688 305.438476562 c 0
 419.977539062 304.32421875 398.7578125 294.311523438 384.034179688 278.188476562 c 1
384.034179688 448.25 m 1
 398.7578125 432.126953125 419.977539062 422.114257812 441.784179688 421 c 0
 466.78125 419.72265625 492.12890625 430.315429688 508.784179688 449 c 1
 508.784179688 419.5 l 1
 492.057617188 401.530273438 467.315429688 391.314453125 442.784179688 392.25 c 0
 420.65625 393.09375 399 402.912109375 383.784179688 419 c 1
 384.034179688 448.25 l 1
368.232421875 432.163085938 m 1
 368.232421875 651.62109375 l 1
 396.8984375 651.666992188 l 1
 396.8984375 251.333007812 l 1
 397.0625 155.330078125 l 2
 397.092773438 137.23046875 396.071289062 118.815429688 389.700195312 101.874023438 c 0
 383.329101562 84.9326171875 372.380859375 69.9375 359.231445312 57.5 c 0
 336.870117188 36.349609375 308.528320312 21.8125 278.563476562 14.7822265625 c 0
 263.580078125 11.2666015625 248.215820312 9.69140625 232.869140625 8.544921875 c 0
 217.522460938 7.3984375 201.950195312 6.7431640625 187.231445312 2.25 c 0
 177.797851562 -0.6298828125 168.701171875 -5.3291015625 162.068359375 -12.630859375 c 0
 155.436523438 -19.931640625 151.658203125 -29.927734375 152.564453125 -39.75 c 0
 153.27734375 -47.47265625 156.77734375 -54.833984375 161.977539062 -60.587890625 c 0
 167.177734375 -66.341796875 173.958984375 -70.5537109375 181.231445312 -73.25 c 0
 188.920898438 -76.1005859375 197.19921875 -77.3154296875 205.390625 -76.931640625 c 1
 205.390625 -100.8671875 l 1
 175.116210938 -104.768554688 143.434570312 -93.9560546875 121.3984375 -72.8330078125 c 0
 98.2568359375 -50.6513671875 85.7861328125 -18.38671875 85.453125 13.6669921875 c 0
 85.1708984375 40.794921875 93.771484375 68.2626953125 111.064453125 89.1669921875 c 0
 122.196289062 102.622070312 136.723632812 113.138671875 152.729492188 120.122070312 c 0
 168.736328125 127.104492188 186.078125 130.586914062 203.453125 132.333007812 c 0
 228.631835938 134.864257812 254.204101562 133.969726562 279.03125 138.86328125 c 0
 291.4453125 141.309570312 303.627929688 145.241210938 314.747070312 151.278320312 c 0
 325.8671875 157.315429688 335.85546875 165.474609375 343.786132812 175.333007812 c 0
 354.826171875 189.056640625 361.615234375 205.87890625 364.905273438 223.182617188 c 0
 368.1953125 240.485351562 368.231445312 258.219726562 368.231445312 275.833007812 c 2
 368.232421875 432.163085938 l 1
71.232421875 287.364257812 m 1
 57.1708984375 312.6171875 52.345703125 343.055664062 58.7080078125 371.25 c 0
 62.1181640625 386.359375 68.76953125 400.779296875 78.4150390625 412.8984375 c 0
 88.060546875 425.018554688 100.688476562 434.6640625 114.708007812 441.25 c 0
 139.099609375 452.708007812 166.58203125 455.095703125 193.208007812 459.25 c 0
 200.545898438 460.39453125 207.869140625 461.63671875 215.169921875 463 c 1
 223.465820312 345.204101562 l 1
 147.640625 345.203125 l 2
 141.51171875 345.203125 135.352539062 345.138671875 129.311523438 344.106445312 c 0
 123.270507812 343.073242188 117.368164062 341.075195312 112.098632812 337.947265625 c 0
 101.557617188 331.69140625 93.9560546875 320.90625 91.015625 309.006835938 c 0
 89.2705078125 301.948242188 89.0595703125 294.518554688 90.357421875 287.364257812 c 1
 71.232421875 287.364257812 l 1
71.171875 624.80078125 m 1
 75.2099609375 635.58203125 81.9482421875 645.353515625 90.6494140625 652.892578125 c 0
 97.8603515625 659.140625 106.438476562 663.818359375 115.625 666.392578125 c 0
 127.400390625 669.692382812 139.954101562 669.409179688 151.97265625 667.151367188 c 0
 163.991210938 664.893554688 175.592773438 660.872070312 187.31640625 657.392578125 c 0
 201.181640625 653.278320312 215.397460938 650.032226562 229.84765625 649.419921875 c 0
 244.297851562 648.806640625 258.83984375 650.762695312 272.649414062 655.059570312 c 0
 294.436523438 661.838867188 314.14453125 674.21484375 331.74609375 688.735351562 c 0
 349.346679688 703.255859375 365.185546875 719.78125 380.649414062 736.559570312 c 0
 384.577148438 740.821289062 388.473632812 745.11328125 392.338867188 749.431640625 c 1
 373.155273438 759.0234375 l 1
 369.524414062 755.2890625 365.833007812 751.611328125 362.0234375 748.059570312 c 0
 354.8828125 741.40234375 347.021484375 735.143554688 337.727539062 732.154296875 c 0
 328.596679688 729.217773438 318.737304688 729.65234375 309.227539062 730.904296875 c 0
 301.353515625 731.940429688 293.532226562 733.365234375 285.7734375 735.059570312 c 0
 271.509765625 738.173828125 257.623046875 742.778320312 243.814453125 747.518554688 c 0
 230.005859375 752.258789062 216.03125 756.864257812 201.541992188 758.654296875 c 0
 188.547851562 760.258789062 175.247070312 759.510742188 162.577148438 756.208984375 c 0
 149.907226562 752.907226562 137.932617188 747.172851562 127.041992188 739.904296875 c 0
 106.854492188 726.4296875 90.2197265625 708.036132812 77.0419921875 687.654296875 c 0
 66.3583984375 671.129882812 57.947265625 653.145507812 52 634.388671875 c 1
 71.171875 624.80078125 l 1
EndSplineSet
EndChar

StartChar: a
Encoding: 97 97 7
Width: 490
VWidth: 0
InSpiro: 1
Flags: HMW
AnchorPoint: "ogonek" 395.658 84 basechar 0
AnchorPoint: "mark_top" 267.658 556 basechar 0
LayerCount: 3
Back
SplineSet
391.547851562 375.634765625 m 1
 373.911132812 397.381835938 l 1
 433.198242188 445.462890625 l 1
 450.834960938 423.71484375 l 1
 391.547851562 375.634765625 l 1
  Spiro
    391.548 375.633 v
    373.912 397.38 v
    433.199 445.461 v
    450.836 423.713 v
    0 0 z
  EndSpiro
178.334960938 270.333007812 m 1
 169.104492188 256.54296875 162.965820312 240.716796875 160.334960938 224.333007812 c 0
 155.4921875 194.17578125 162.091796875 162.685546875 176.334960938 135.666992188 c 0
 183.057617188 122.9140625 191.673828125 111.048828125 202.498046875 101.526367188 c 0
 213.321289062 92.0029296875 226.493164062 84.958984375 240.668945312 82.3330078125 c 0
 253.403320312 79.974609375 266.8046875 81.244140625 278.819335938 86.0791015625 c 1
 279.668945312 72.2919921875 l 1
 173.364257812 -5 l 1
 132.387695312 0.337890625 92.9189453125 20.4189453125 66.6689453125 52.3330078125 c 0
 48.22265625 74.7587890625 37.1015625 103.727539062 38.8349609375 132.712890625 c 0
 39.9609375 151.537109375 46.314453125 169.87109375 56.0458984375 186.024414062 c 0
 65.7783203125 202.177734375 78.6767578125 216.255859375 92.8349609375 228.712890625 c 0
 114.76171875 248.002929688 139.622070312 263.827148438 165.793945312 276.786132812 c 1
 178.334960938 270.333007812 l 1
  Spiro
    178.336 270.333 v
    160.336 224.333 o
    176.336 135.667 o
    240.67 82.3333 o
    278.82 86.0791 v
    279.67 72.2917 v
    173.365 -5 v
    66.6696 52.3333 o
    38.8364 132.713 o
    92.836 228.713 o
    165.795 276.786 v
    152.573 267.5 z
  EndSpiro
489.729492188 110.029296875 m 1
 494.467773438 90.8115234375 l 1
 355.276367188 -4.775390625 l 1
 274.024414062 76.6201171875 l 1
 274.026367188 359.307617188 l 1
 149.393554688 436 l 1
 141.93359375 432.990234375 134.86328125 429.000976562 128.465820312 424.123046875 c 0
 120.591796875 418.119140625 113.703125 410.720703125 108.83984375 402.095703125 c 0
 103.975585938 393.470703125 101.266601562 383.587890625 101.458984375 373.688476562 c 0
 101.727539062 359.928710938 107.650390625 346.673828125 116.336914062 336 c 0
 128.901367188 320.561523438 146.373046875 309.859375 164.34375 301.299804688 c 0
 182.314453125 292.739257812 201.166015625 286.157226562 220.173828125 280.25 c 0
 241.620117188 273.584960938 263.357421875 267.87109375 285.252929688 262.875 c 1
 285.252929688 233.125 l 1
 261.853515625 240.362304688 238.33984375 247.22265625 214.8671875 254.21875 c 0
 190.663085938 261.43359375 166.361328125 268.745117188 143.545898438 279.577148438 c 0
 120.729492188 290.408203125 99.0478515625 305.383789062 85.4541015625 326.669921875 c 0
 78.2841796875 337.897460938 73.6005859375 350.810546875 72.6982421875 364.100585938 c 0
 71.865234375 376.387695312 74.2998046875 388.8515625 79.5029296875 400.013671875 c 0
 84.7060546875 411.17578125 92.5732421875 420.995117188 101.842773438 429.102539062 c 0
 111.756835938 437.774414062 123.3359375 444.290039062 135.013671875 450.3828125 c 2
 245.263671875 507.905273438 l 1
 398.65625 408.970703125 l 1
 398.65625 129.220703125 l 1
 446.59375 81.2900390625 l 1
 489.729492188 110.029296875 l 1
  Spiro
    489.73 110.029 v
    494.469 90.8116 v
    355.277 -4.77539 v
    274.025 76.62 v
    274.027 359.308 v
    149.395 436 v
    128.467 424.123 o
    101.46 373.688 o
    116.338 336 o
    220.175 280.25 o
    285.254 262.875 v
    285.254 233.125 v
    214.868 254.219 o
    85.4551 326.67 o
    72.6997 364.101 o
    101.844 429.103 o
    135.015 450.383 [
    245.265 507.905 v
    398.657 408.971 v
    398.657 129.221 v
    446.595 81.29 v
    463.465 110.029 z
  EndSpiro
EndSplineSet
Fore
SplineSet
391.547851562 375.634765625 m 1
 373.911132812 397.381835938 l 1
 433.198242188 445.462890625 l 1
 450.834960938 423.71484375 l 1
 391.547851562 375.634765625 l 1
178.334960938 270.333007812 m 1
 169.104492188 256.54296875 162.965820312 240.716796875 160.334960938 224.333007812 c 0
 155.4921875 194.17578125 162.091796875 162.685546875 176.334960938 135.666992188 c 0
 183.057617188 122.9140625 191.673828125 111.048828125 202.498046875 101.526367188 c 0
 213.321289062 92.0029296875 226.493164062 84.958984375 240.668945312 82.3330078125 c 0
 253.403320312 79.974609375 266.8046875 81.244140625 278.819335938 86.0791015625 c 1
 279.668945312 72.2919921875 l 1
 173.364257812 -5 l 1
 132.387695312 0.337890625 92.9189453125 20.4189453125 66.6689453125 52.3330078125 c 0
 48.22265625 74.7587890625 37.1015625 103.727539062 38.8349609375 132.712890625 c 0
 39.9609375 151.537109375 46.314453125 169.87109375 56.0458984375 186.024414062 c 0
 65.7783203125 202.177734375 78.6767578125 216.255859375 92.8349609375 228.712890625 c 0
 114.76171875 248.002929688 139.622070312 263.827148438 165.793945312 276.786132812 c 1
 178.334960938 270.333007812 l 1
489.729492188 110.029296875 m 1
 494.467773438 90.8115234375 l 1
 355.276367188 -4.775390625 l 1
 274.024414062 76.6201171875 l 1
 274.026367188 359.307617188 l 1
 149.393554688 436 l 1
 141.93359375 432.990234375 134.86328125 429.000976562 128.465820312 424.123046875 c 0
 120.591796875 418.119140625 113.703125 410.720703125 108.83984375 402.095703125 c 0
 103.975585938 393.470703125 101.266601562 383.587890625 101.458984375 373.688476562 c 0
 101.727539062 359.928710938 107.650390625 346.673828125 116.336914062 336 c 0
 128.901367188 320.561523438 146.373046875 309.859375 164.34375 301.299804688 c 0
 182.314453125 292.739257812 201.166015625 286.157226562 220.173828125 280.25 c 0
 241.620117188 273.584960938 263.357421875 267.87109375 285.252929688 262.875 c 1
 285.252929688 233.125 l 1
 261.853515625 240.362304688 238.33984375 247.22265625 214.8671875 254.21875 c 0
 190.663085938 261.43359375 166.361328125 268.745117188 143.545898438 279.577148438 c 0
 120.729492188 290.408203125 99.0478515625 305.383789062 85.4541015625 326.669921875 c 0
 78.2841796875 337.897460938 73.6005859375 350.810546875 72.6982421875 364.100585938 c 0
 71.865234375 376.387695312 74.2998046875 388.8515625 79.5029296875 400.013671875 c 0
 84.7060546875 411.17578125 92.5732421875 420.995117188 101.842773438 429.102539062 c 0
 111.756835938 437.774414062 123.3359375 444.290039062 135.013671875 450.3828125 c 2
 245.263671875 507.905273438 l 1
 398.65625 408.970703125 l 1
 398.65625 129.220703125 l 1
 446.59375 81.2900390625 l 1
 489.729492188 110.029296875 l 1
EndSplineSet
EndChar

StartChar: g
Encoding: 103 103 8
Width: 488
VWidth: 0
InSpiro: 1
Flags: HMW
AnchorPoint: "cedilla" 191.342 -168 basechar 0
AnchorPoint: "mark_top" 295.342 568 basechar 0
LayerCount: 3
Back
SplineSet
407.828125 383.662109375 m 1
 390.19140625 405.409179688 l 1
 449.478515625 453.490234375 l 1
 467.115234375 431.7421875 l 1
 407.828125 383.662109375 l 1
  Spiro
    407.827 383.66 v
    390.191 405.407 v
    449.478 453.488 v
    467.115 431.74 v
    0 0 z
  EndSpiro
419.375976562 409.736328125 m 1
 419.372070312 138.809570312 l 2
 419.372070312 125.66796875 419.579101562 112.467773438 421.729492188 99.5029296875 c 0
 423.87890625 86.537109375 427.875976562 73.8642578125 433.756835938 62.111328125 c 0
 438.194335938 53.2431640625 443.329101562 44.6142578125 445.971679688 35.056640625 c 0
 448.614257812 25.5 448.84765625 15.2421875 446.271484375 5.6669921875 c 0
 443.545898438 -4.466796875 437.673828125 -13.662109375 429.896484375 -20.7080078125 c 0
 422.487304688 -27.421875 413.583007812 -32.2138671875 404.836914062 -37.060546875 c 0
 396.091796875 -41.90625 387.62109375 -47.2353515625 379.452148438 -53 c 2
 194.536132812 -183.5 l 1
 176.814453125 -157.0234375 148.51171875 -137.849609375 117.3515625 -131.209960938 c 0
 82.6904296875 -123.82421875 44.9833984375 -132.211914062 16.7216796875 -153.59375 c 1
 2.341796875 -144.009765625 l 1
 14.099609375 -112.778320312 35.263671875 -85.158203125 62.361328125 -65.681640625 c 0
 89.458984375 -46.205078125 122.384765625 -34.9482421875 155.734375 -33.7578125 c 0
 203.706054688 -32.0458984375 252.045898438 -51.7412109375 285.162109375 -86.490234375 c 1
 292.235351562 -85.6396484375 299.06640625 -82.8740234375 304.75 -78.578125 c 0
 310.43359375 -74.283203125 314.942382812 -68.478515625 317.8359375 -61.96875 c 0
 320.904296875 -55.06640625 322.157226562 -47.4228515625 321.91015625 -39.873046875 c 0
 321.663085938 -32.32421875 319.958007812 -24.875 317.491210938 -17.7353515625 c 0
 312.557617188 -3.45703125 304.807617188 9.66015625 298.635742188 23.4482421875 c 0
 293.114257812 35.783203125 288.890625 48.734375 286.72265625 62.0732421875 c 0
 284.5546875 75.412109375 284.413085938 88.986328125 284.452148438 102.5 c 2
 285.158203125 349.400390625 l 1
 170.115234375 426.095703125 l 1
 170.115234375 162.775390625 l 1
 306.452148438 77.5 l 1
 194.083007812 -0.203125 l 1
 50.2783203125 100.459960938 l 1
 50.2783203125 388.068359375 l 1
 275.572265625 517.4921875 l 1
 419.375976562 409.736328125 l 1
  Spiro
    419.376 409.736 v
    419.372 138.81 ]
    433.757 62.1113 ]
    446.272 5.66666 o
    429.897 -20.7083 o
    379.452 -53 [
    194.536 -183.5 v
    117.352 -131.21 o
    16.7215 -153.594 v
    2.34177 -144.01 v
    155.735 -33.7578 o
    285.162 -86.49 v
    317.836 -61.9684 o
    298.636 23.4484 o
    284.452 102.5 [
    285.158 349.401 v
    170.115 426.096 v
    170.115 162.775 v
    306.452 77.5 v
    194.083 -0.203125 v
    50.2779 100.46 v
    50.2779 388.068 v
    275.572 517.492 v
    0 0 z
  EndSpiro
EndSplineSet
Fore
SplineSet
407.828125 383.662109375 m 1
 390.19140625 405.409179688 l 1
 449.478515625 453.490234375 l 1
 467.115234375 431.7421875 l 1
 407.828125 383.662109375 l 1
419.375976562 409.736328125 m 1
 419.372070312 138.809570312 l 2
 419.372070312 125.66796875 419.579101562 112.467773438 421.729492188 99.5029296875 c 0
 423.87890625 86.537109375 427.875976562 73.8642578125 433.756835938 62.111328125 c 0
 438.194335938 53.2431640625 443.329101562 44.6142578125 445.971679688 35.056640625 c 0
 448.614257812 25.5 448.84765625 15.2421875 446.271484375 5.6669921875 c 0
 443.545898438 -4.466796875 437.673828125 -13.662109375 429.896484375 -20.7080078125 c 0
 422.487304688 -27.421875 413.583007812 -32.2138671875 404.836914062 -37.060546875 c 0
 396.091796875 -41.90625 387.62109375 -47.2353515625 379.452148438 -53 c 2
 194.536132812 -183.5 l 1
 176.814453125 -157.0234375 148.51171875 -137.849609375 117.3515625 -131.209960938 c 0
 82.6904296875 -123.82421875 44.9833984375 -132.211914062 16.7216796875 -153.59375 c 1
 2.341796875 -144.009765625 l 1
 14.099609375 -112.778320312 35.263671875 -85.158203125 62.361328125 -65.681640625 c 0
 89.458984375 -46.205078125 122.384765625 -34.9482421875 155.734375 -33.7578125 c 0
 203.706054688 -32.0458984375 252.045898438 -51.7412109375 285.162109375 -86.490234375 c 1
 292.235351562 -85.6396484375 299.06640625 -82.8740234375 304.75 -78.578125 c 0
 310.43359375 -74.283203125 314.942382812 -68.478515625 317.8359375 -61.96875 c 0
 320.904296875 -55.06640625 322.157226562 -47.4228515625 321.91015625 -39.873046875 c 0
 321.663085938 -32.32421875 319.958007812 -24.875 317.491210938 -17.7353515625 c 0
 312.557617188 -3.45703125 304.807617188 9.66015625 298.635742188 23.4482421875 c 0
 293.114257812 35.783203125 288.890625 48.734375 286.72265625 62.0732421875 c 0
 284.5546875 75.412109375 284.413085938 88.986328125 284.452148438 102.5 c 2
 285.158203125 349.400390625 l 1
 170.115234375 426.095703125 l 1
 170.115234375 162.775390625 l 1
 306.452148438 77.5 l 1
 194.083007812 -0.203125 l 1
 50.2783203125 100.459960938 l 1
 50.2783203125 388.068359375 l 1
 275.572265625 517.4921875 l 1
 419.375976562 409.736328125 l 1
EndSplineSet
EndChar

StartChar: o
Encoding: 111 111 9
Width: 472
VWidth: 0
Flags: HMW
AnchorPoint: "mark_top" 256 560 basechar 0
LayerCount: 3
Back
SplineSet
32.63671875 67.6982421875 m 1
 15 89.4453125 l 1
 74.287109375 137.526367188 l 1
 91.923828125 115.778320312 l 1
 32.63671875 67.6982421875 l 1
  Spiro
    32.6358 67.6968 v
    14.9998 89.4438 v
    74.2868 137.525 v
    91.9238 115.777 v
    0 0 z
  EndSpiro
66.1904296875 107.180664062 m 1
 66.1923828125 388.068359375 l 1
 291.485351562 517.4921875 l 1
 435.290039062 407.2421875 l 1
 435.290039062 134.014648438 l 1
 214.790039062 -0.203125 l 1
 165.196289062 35.7001953125 115.560546875 70.92578125 66.1904296875 107.180664062 c 1
195.615234375 153.188476562 m 1
 310.659179688 76.4921875 l 1
 310.659179688 364.100585938 l 1
 195.615234375 440.796875 l 1
 195.615234375 153.188476562 l 1
EndSplineSet
Fore
SplineSet
32.63671875 67.6982421875 m 1
 15 89.4453125 l 1
 74.287109375 137.526367188 l 1
 91.923828125 115.778320312 l 1
 32.63671875 67.6982421875 l 1
66.1904296875 107.180664062 m 1
 66.1923828125 388.068359375 l 1
 291.485351562 517.4921875 l 1
 435.290039062 407.2421875 l 1
 435.290039062 134.014648438 l 1
 214.790039062 -0.203125 l 1
 165.196289062 35.7001953125 115.560546875 70.92578125 66.1904296875 107.180664062 c 1
195.615234375 153.188476562 m 1
 310.659179688 76.4921875 l 1
 310.659179688 364.100585938 l 1
 195.615234375 440.796875 l 1
 195.615234375 153.188476562 l 1
EndSplineSet
EndChar

StartChar: k
Encoding: 107 107 10
Width: 557
VWidth: 0
InSpiro: 1
Flags: HMW
AnchorPoint: "cedilla" 104 112 basechar 0
LayerCount: 3
Back
SplineSet
566.424804688 114.83984375 m 1
 585.598632812 90.8720703125 l 1
 432.20703125 -9.7900390625 l 1
 235.674804688 277.818359375 l 1
 384.271484375 507.905273438 l 1
 393.856445312 507.900390625 l 1
 400.358398438 496.001953125 410.213867188 485.958984375 421.987304688 479.232421875 c 0
 433.759765625 472.506835938 447.416015625 469.1171875 460.967773438 469.557617188 c 0
 473.721679688 469.97265625 486.349609375 473.76953125 497.217773438 480.456054688 c 0
 508.084960938 487.142578125 517.166992188 496.703125 523.286132812 507.900390625 c 1
 542.456054688 507.900390625 l 1
 540.353515625 493.561523438 537.241210938 479.365234375 533.024414062 465.5 c 0
 528.095703125 449.296875 521.642578125 433.4765625 512.73046875 419.075195312 c 0
 503.818359375 404.672851562 492.286132812 391.762695312 478.274414062 382.25 c 0
 464.990234375 373.231445312 449.58203125 367.3828125 433.666992188 365.26171875 c 0
 417.752929688 363.140625 401.411132812 364.666992188 386.024414062 369.25 c 0
 367.58203125 374.743164062 350.469726562 384.590820312 336.3359375 397.650390625 c 1
 326.75 378.481445312 l 1
 523.286132812 86.080078125 l 1
 566.424804688 114.83984375 l 1
  Spiro
    566.425 114.84 v
    585.598 90.8721 v
    432.207 -9.79004 v
    235.675 277.818 v
    384.271 507.905 v
    393.856 507.9 v
    460.968 469.558 o
    523.286 507.9 v
    542.456 507.9 v
    533.024 465.5 o
    478.274 382.25 o
    386.024 369.25 o
    336.336 397.65 v
    326.75 378.481 v
    523.286 86.08 v
    540.099 114.84 z
  EndSpiro
216.326171875 119.6328125 m 1
 254.673828125 81.2861328125 l 1
 283.435546875 105.252929688 l 1
 297.815429688 86.0791015625 l 1
 173.185546875 -0.203125 l 1
 67.728515625 90.8720703125 l 1
 29.380859375 66.9052734375 l 1
 15 86.0791015625 l 1
 82.109375 129.220703125 l 1
 82.109375 584.600585938 l 2
 82.109375 589.59765625 82.0244140625 594.6328125 80.97265625 599.517578125 c 0
 79.919921875 604.403320312 77.9130859375 609.088867188 75.021484375 613.1640625 c 0
 70.521484375 619.504882812 64.0712890625 624.229492188 57.232421875 627.930664062 c 0
 49.921875 631.88671875 42.12890625 634.909179688 34.17578125 637.330078125 c 1
 34.173828125 651.709960938 l 1
 197.15234375 766.752929688 l 1
 216.326171875 766.752929688 l 1
 216.326171875 119.6328125 l 1
  Spiro
    216.326 119.633 v
    254.674 81.2861 v
    283.435 105.253 v
    297.815 86.0791 v
    173.185 -0.203125 v
    67.7285 90.8721 v
    29.3809 66.9053 v
    15 86.0791 v
    82.1094 129.221 v
    82.1094 584.601 ]
    75.0212 613.164 o
    57.2326 627.93 o
    34.1762 637.33 v
    34.1739 651.71 v
    197.152 766.753 v
    216.326 766.753 v
    206 119.633 z
  EndSpiro
EndSplineSet
Fore
SplineSet
566.424804688 114.83984375 m 1
 585.598632812 90.8720703125 l 1
 432.20703125 -9.7900390625 l 1
 235.674804688 277.818359375 l 1
 384.271484375 507.905273438 l 1
 393.856445312 507.900390625 l 1
 400.358398438 496.001953125 410.213867188 485.958984375 421.987304688 479.232421875 c 0
 433.759765625 472.506835938 447.416015625 469.1171875 460.967773438 469.557617188 c 0
 473.721679688 469.97265625 486.349609375 473.76953125 497.217773438 480.456054688 c 0
 508.084960938 487.142578125 517.166992188 496.703125 523.286132812 507.900390625 c 1
 542.456054688 507.900390625 l 1
 540.353515625 493.561523438 537.241210938 479.365234375 533.024414062 465.5 c 0
 528.095703125 449.296875 521.642578125 433.4765625 512.73046875 419.075195312 c 0
 503.818359375 404.672851562 492.286132812 391.762695312 478.274414062 382.25 c 0
 464.990234375 373.231445312 449.58203125 367.3828125 433.666992188 365.26171875 c 0
 417.752929688 363.140625 401.411132812 364.666992188 386.024414062 369.25 c 0
 367.58203125 374.743164062 350.469726562 384.590820312 336.3359375 397.650390625 c 1
 326.75 378.481445312 l 1
 523.286132812 86.080078125 l 1
 566.424804688 114.83984375 l 1
216.326171875 119.6328125 m 1
 254.673828125 81.2861328125 l 1
 283.435546875 105.252929688 l 1
 297.815429688 86.0791015625 l 1
 173.185546875 -0.203125 l 1
 67.728515625 90.8720703125 l 1
 29.380859375 66.9052734375 l 1
 15 86.0791015625 l 1
 82.109375 129.220703125 l 1
 82.109375 584.600585938 l 2
 82.109375 589.59765625 82.0244140625 594.6328125 80.97265625 599.517578125 c 0
 79.919921875 604.403320312 77.9130859375 609.088867188 75.021484375 613.1640625 c 0
 70.521484375 619.504882812 64.0712890625 624.229492188 57.232421875 627.930664062 c 0
 49.921875 631.88671875 42.12890625 634.909179688 34.17578125 637.330078125 c 1
 34.173828125 651.709960938 l 1
 197.15234375 766.752929688 l 1
 216.326171875 766.752929688 l 1
 216.326171875 119.6328125 l 1
EndSplineSet
EndChar

StartChar: z
Encoding: 122 122 11
Width: 432
VWidth: 0
InSpiro: 1
Flags: HMW
AnchorPoint: "mark_top" 207.316 564 basechar 0
LayerCount: 3
Back
SplineSet
71.9775390625 215.502929688 m 1
 287.548828125 215.502929688 l 1
 369.037109375 311.372070312 l 1
 354.65625 325.752929688 l 1
 331.477539062 301.786132812 l 1
 114.982421875 301.786132812 l 1
 33.4931640625 205.916015625 l 1
 47.8740234375 191.536132812 l 1
 71.9775390625 215.502929688 l 1
  Spiro
    71.9777 215.503 v
    287.548 215.503 v
    369.037 311.372 v
    354.656 325.753 v
    331.477 301.786 v
    114.982 301.786 v
    33.4934 205.916 v
    47.8743 191.536 v
    0 0 z
  EndSpiro
114.986328125 134.009765625 m 1
 145.49609375 171.5 l 2
 199.9140625 238.3671875 259.880859375 300.516601562 314.766601562 367 c 0
 347.493164062 406.642578125 377.255859375 448.79296875 402.596679688 493.51953125 c 1
 393.006835938 507.900390625 l 1
 363.893554688 488.271484375 329.915039062 476.108398438 295.043945312 472 c 0
 255.631835938 467.356445312 215.606445312 472.62890625 177.043945312 482 c 0
 149.405273438 488.716796875 122.282226562 497.50390625 95.80859375 507.905273438 c 1
 19.11328125 364.100585938 l 1
 38.287109375 354.514648438 l 1
 62.2568359375 392.860351562 l 1
 93.6728515625 378.220703125 127.602539062 368.995117188 162.106445312 365.709960938 c 0
 202.63671875 361.8515625 243.932617188 366.22265625 282.756835938 378.48046875 c 1
 239.170898438 326.801757812 193.65234375 276.796875 149.043945312 226 c 0
 109.25 180.685546875 70.61328125 133.612304688 43.0419921875 79.9765625 c 0
 31.412109375 57.3505859375 21.7509765625 33.708984375 14.31640625 9.3798828125 c 1
 23.90625 -0.203125 l 1
 47.12890625 17.7958984375 74.3984375 30.46484375 103.043945312 37 c 0
 144.01953125 46.34765625 187.0390625 43.220703125 228.043945312 34 c 0
 258.34765625 27.185546875 287.905273438 17.1591796875 316.30859375 4.58984375 c 1
 421.765625 134.014648438 l 1
 407.385742188 143.600585938 l 1
 378.624023438 110.046875 l 1
 335.569335938 132.173828125 287.923828125 145.318359375 239.61328125 148.39453125 c 0
 197.657226562 151.067382812 155.23046875 146.169921875 114.986328125 134.009765625 c 1
  Spiro
    114.986 134.01 v
    145.496 171.5 ]
    314.766 367 o
    402.596 493.52 v
    393.006 507.9 v
    295.044 472 o
    177.044 482 o
    95.808 507.905 v
    19.1135 364.101 v
    38.2874 354.515 v
    62.2565 392.86 v
    162.106 365.71 o
    282.756 378.48 v
    149.044 226 o
    43.042 79.9762 o
    14.3165 9.38 v
    23.9065 -0.20312 v
    103.044 37 o
    228.044 34 o
    316.308 4.58984 v
    421.765 134.015 v
    407.385 143.601 v
    378.624 110.047 v
    239.613 148.395 o
    122.33 134.01 z
  EndSpiro
EndSplineSet
Fore
SplineSet
71.9775390625 215.502929688 m 1
 287.548828125 215.502929688 l 1
 369.037109375 311.372070312 l 1
 354.65625 325.752929688 l 1
 331.477539062 301.786132812 l 1
 114.982421875 301.786132812 l 1
 33.4931640625 205.916015625 l 1
 47.8740234375 191.536132812 l 1
 71.9775390625 215.502929688 l 1
114.986328125 134.009765625 m 1
 145.49609375 171.5 l 2
 199.9140625 238.3671875 259.880859375 300.516601562 314.766601562 367 c 0
 347.493164062 406.642578125 377.255859375 448.79296875 402.596679688 493.51953125 c 1
 393.006835938 507.900390625 l 1
 363.893554688 488.271484375 329.915039062 476.108398438 295.043945312 472 c 0
 255.631835938 467.356445312 215.606445312 472.62890625 177.043945312 482 c 0
 149.405273438 488.716796875 122.282226562 497.50390625 95.80859375 507.905273438 c 1
 19.11328125 364.100585938 l 1
 38.287109375 354.514648438 l 1
 62.2568359375 392.860351562 l 1
 93.6728515625 378.220703125 127.602539062 368.995117188 162.106445312 365.709960938 c 0
 202.63671875 361.8515625 243.932617188 366.22265625 282.756835938 378.48046875 c 1
 239.170898438 326.801757812 193.65234375 276.796875 149.043945312 226 c 0
 109.25 180.685546875 70.61328125 133.612304688 43.0419921875 79.9765625 c 0
 31.412109375 57.3505859375 21.7509765625 33.708984375 14.31640625 9.3798828125 c 1
 23.90625 -0.203125 l 1
 47.12890625 17.7958984375 74.3984375 30.46484375 103.043945312 37 c 0
 144.01953125 46.34765625 187.0390625 43.220703125 228.043945312 34 c 0
 258.34765625 27.185546875 287.905273438 17.1591796875 316.30859375 4.58984375 c 1
 421.765625 134.014648438 l 1
 407.385742188 143.600585938 l 1
 378.624023438 110.046875 l 1
 335.569335938 132.173828125 287.923828125 145.318359375 239.61328125 148.39453125 c 0
 197.657226562 151.067382812 155.23046875 146.169921875 114.986328125 134.009765625 c 1
EndSplineSet
EndChar

StartChar: r
Encoding: 114 114 12
Width: 399
VWidth: 0
InSpiro: 1
Flags: HMW
AnchorPoint: "cedilla" 140 12 basechar 0
AnchorPoint: "mark_top" 264 576 basechar 0
LayerCount: 3
Back
SplineSet
219.391601562 430.333007812 m 1
 292.225585938 513 l 1
 302.55859375 513 l 1
 311.88671875 498.447265625 328.616210938 488.923828125 345.891601562 488.333007812 c 0
 355.140625 488.016601562 364.461914062 490.146484375 372.65625 494.446289062 c 0
 380.850585938 498.747070312 387.897460938 505.208984375 392.891601562 513 c 1
 422.725585938 513 l 1
 420.434570312 494.33984375 417.083007812 475.783203125 412.05859375 457.666992188 c 0
 407.711914062 441.994140625 401.98828125 426.546875 393.166015625 412.8828125 c 0
 384.344726562 399.21875 372.1328125 387.538085938 357.391601562 380.666992188 c 0
 345.771484375 375.249023438 332.809570312 372.87890625 319.997070312 373.364257812 c 0
 307.185546875 373.849609375 294.560546875 377.0703125 282.724609375 382 c 0
 257.970703125 392.310546875 236.372070312 409.578125 219.391601562 430.333007812 c 1
  Spiro
    219.392 430.333 v
    292.226 513 v
    302.559 513 v
    345.892 488.333 o
    392.892 513 v
    422.725 513 v
    412.059 457.667 o
    357.392 380.667 o
    282.725 382 o
    210.5 419.667 z
  EndSpiro
327.375 125.333984375 m 1
 346.05859375 103 l 1
 196.771484375 -4.9970703125 l 1
 86.90234375 81.2861328125 l 1
 53.34765625 57.318359375 l 1
 38.9677734375 76.4921875 l 1
 101.282226562 119.6328125 l 1
 101.282226562 383.275390625 l 1
 67.728515625 426.416015625 l 1
 29.380859375 402.44921875 l 1
 15 421.622070312 l 1
 149.217773438 512.69921875 l 1
 233.913085938 421.622070312 l 1
 233.913085938 119.6328125 l 1
 273.391601562 88.5 l 1
 327.375 125.333984375 l 1
  Spiro
    327.375 125.334 v
    346.059 103 v
    196.772 -4.99707 v
    86.9023 81.2861 v
    53.3477 57.3184 v
    38.9678 76.4922 v
    101.283 119.633 v
    101.283 383.275 v
    67.7285 426.416 v
    29.3809 402.449 v
    15 421.622 v
    149.218 512.699 v
    233.913 421.622 v
    233.913 119.633 v
    273.392 88.5 v
    0 0 z
  EndSpiro
EndSplineSet
Fore
SplineSet
219.391601562 430.333007812 m 1
 292.225585938 513 l 1
 302.55859375 513 l 1
 311.88671875 498.447265625 328.616210938 488.923828125 345.891601562 488.333007812 c 0
 355.140625 488.016601562 364.461914062 490.146484375 372.65625 494.446289062 c 0
 380.850585938 498.747070312 387.897460938 505.208984375 392.891601562 513 c 1
 422.725585938 513 l 1
 420.434570312 494.33984375 417.083007812 475.783203125 412.05859375 457.666992188 c 0
 407.711914062 441.994140625 401.98828125 426.546875 393.166015625 412.8828125 c 0
 384.344726562 399.21875 372.1328125 387.538085938 357.391601562 380.666992188 c 0
 345.771484375 375.249023438 332.809570312 372.87890625 319.997070312 373.364257812 c 0
 307.185546875 373.849609375 294.560546875 377.0703125 282.724609375 382 c 0
 257.970703125 392.310546875 236.372070312 409.578125 219.391601562 430.333007812 c 1
327.375 125.333984375 m 1
 346.05859375 103 l 1
 196.771484375 -4.9970703125 l 1
 86.90234375 81.2861328125 l 1
 53.34765625 57.318359375 l 1
 38.9677734375 76.4921875 l 1
 101.282226562 119.6328125 l 1
 101.282226562 383.275390625 l 1
 67.728515625 426.416015625 l 1
 29.380859375 402.44921875 l 1
 15 421.622070312 l 1
 149.217773438 512.69921875 l 1
 233.913085938 421.622070312 l 1
 233.913085938 119.6328125 l 1
 273.391601562 88.5 l 1
 327.375 125.333984375 l 1
EndSplineSet
EndChar

StartChar: i
Encoding: 105 105 13
Width: 309
VWidth: 0
Flags: HMW
LayerCount: 3
Back
SplineSet
66.1884765625 647.614257812 m 1
 161.700195312 731.479492188 l 1
 246.934570312 634.405273438 l 1
 151.424804688 550.541992188 l 1
 66.1884765625 647.614257812 l 1
  Spiro
    66.1874 647.617 v
    161.699 731.481 v
    246.935 634.407 v
    151.424 550.543 v
    0 0 z
  EndSpiro
299.537109375 114.83984375 m 1
 323.50390625 95.666015625 l 1
 179.700195312 -4.9970703125 l 1
 83.8310546875 81.2861328125 l 1
 50.2763671875 57.318359375 l 1
 35.896484375 76.4921875 l 1
 98.2109375 119.6328125 l 1
 98.2109375 383.275390625 l 1
 64.6572265625 426.416015625 l 1
 26.3095703125 402.44921875 l 1
 11.9287109375 421.622070312 l 1
 146.146484375 512.69921875 l 1
 222.841796875 421.622070312 l 1
 222.841796875 119.6328125 l 1
 256.396484375 86.0791015625 l 1
 299.537109375 114.83984375 l 1
EndSplineSet
Fore
SplineSet
66.1884765625 647.614257812 m 1
 161.700195312 731.479492188 l 1
 246.934570312 634.405273438 l 1
 151.424804688 550.541992188 l 1
 66.1884765625 647.614257812 l 1
299.537109375 114.83984375 m 1
 323.50390625 95.666015625 l 1
 179.700195312 -4.9970703125 l 1
 83.8310546875 81.2861328125 l 1
 50.2763671875 57.318359375 l 1
 35.896484375 76.4921875 l 1
 98.2109375 119.6328125 l 1
 98.2109375 383.275390625 l 1
 64.6572265625 426.416015625 l 1
 26.3095703125 402.44921875 l 1
 11.9287109375 421.622070312 l 1
 146.146484375 512.69921875 l 1
 222.841796875 421.622070312 l 1
 222.841796875 119.6328125 l 1
 256.396484375 86.0791015625 l 1
 299.537109375 114.83984375 l 1
EndSplineSet
EndChar

StartChar: s
Encoding: 115 115 14
Width: 426
VWidth: 0
InSpiro: 1
Flags: HMW
AnchorPoint: "cedilla" 186.316 0 basechar 0
AnchorPoint: "mark_top" 250.316 560 basechar 0
LayerCount: 3
Back
SplineSet
398.626953125 505 m 1
 401.942382812 485.630859375 400.04296875 465.39453125 393.185546875 446.978515625 c 0
 386.329101562 428.5625 374.534179688 412.016601562 359.383789062 399.5 c 0
 343.033203125 385.991210938 322.82421875 377.23046875 301.80078125 374.418945312 c 0
 280.778320312 371.608398438 259.0078125 374.734375 239.58203125 383.25 c 0
 211.640625 395.498046875 188.854492188 419.033203125 177.458007812 447.333007812 c 1
 177.459960938 317.061523438 l 1
 227.293945312 266.166992188 l 1
 132.125 186 l 1
 48.4609375 252 l 1
 48.4609375 392 l 1
 255.126953125 512 l 1
 265.485351562 496.69921875 279.696289062 483.874023438 296.383789062 475.942382812 c 0
 306.594726562 471.088867188 317.823242188 468.134765625 329.126953125 468.319335938 c 0
 340.430664062 468.502929688 351.788085938 472.0078125 360.716796875 478.942382812 c 0
 370.354492188 486.42578125 376.859375 497.868164062 378.168945312 510 c 1
 398.626953125 505 l 1
  Spiro
    398.628 505 v
    359.385 399.5 o
    239.583 383.25 o
    177.459 447.333 v
    177.461 317.062 v
    227.295 266.167 v
    132.126 186 v
    48.4616 252 v
    48.4612 392 v
    255.128 512 v
    296.385 475.942 o
    360.718 478.942 o
    378.17 510 v
    81.543 -25.8767 z
  EndSpiro
101.336914062 -25.876953125 m 2
 76.7939453125 -29 l 1
 58.2802734375 -8.5263671875 48.83203125 19.845703125 51.3076171875 47.337890625 c 0
 53.7822265625 74.830078125 68.09375 100.954101562 89.6064453125 118.25 c 0
 106.814453125 132.084960938 128.336914062 140.330078125 150.341796875 142.14453125 c 0
 172.34765625 143.958007812 194.768554688 139.444335938 214.606445312 129.75 c 0
 241.872070312 116.42578125 264.169921875 93.2919921875 276.73046875 65.6669921875 c 1
 276.728515625 195.9375 l 1
 213.505859375 246.286132812 l 1
 313.505859375 329.286132812 l 1
 405.727539062 261 l 1
 405.728515625 110 l 1
 208.293945312 -10 l 1
 198.069335938 8.146484375 181.883789062 23.0419921875 162.611328125 30.943359375 c 0
 152.975585938 34.8935546875 142.553710938 37.0771484375 132.14453125 36.7421875 c 0
 121.735351562 36.408203125 111.264648438 33.4755859375 102.793945312 27.4169921875 c 0
 96.787109375 23.1201171875 91.849609375 17.2099609375 89.203125 10.314453125 c 0
 86.556640625 3.4189453125 86.3232421875 -4.443359375 88.9296875 -11.3544921875 c 0
 91.22265625 -17.43359375 95.6826171875 -22.67578125 101.336914062 -25.876953125 c 2
  Spiro
    76.7949 -29 v
    89.607 118.25 o
    214.607 129.75 o
    276.731 65.6667 v
    276.729 195.938 v
    213.506 246.286 v
    313.506 329.286 v
    405.729 261 v
    405.729 110 v
    208.295 -10 v
    102.795 27.4167 o
    88.9303 -11.3542 o
    101.338 -25.8767 v
    81.543 -25.8767 z
  EndSpiro
406.793945312 510 m 1
 403.043945312 473.313476562 394.23828125 436.979492188 378.994140625 403.400390625 c 0
 371.288085938 386.424804688 361.721679688 370.251953125 350.029296875 355.731445312 c 0
 338.336914062 341.2109375 324.436523438 328.647460938 310.293945312 316.5 c 2
 185.383789062 209.209960938 l 2
 162.833007812 189.83984375 140.768554688 169.8984375 119.444335938 149.184570312 c 0
 107.3203125 137.408203125 95.34375 125.404296875 84.9462890625 112.079101562 c 0
 74.548828125 98.7548828125 65.814453125 83.876953125 61.359375 67.5732421875 c 0
 56.5009765625 49.7919921875 57.0712890625 30.37890625 64.1396484375 13.35546875 c 0
 71.20703125 -3.6689453125 84.6875 -17.9658203125 101.336914062 -25.876953125 c 1
 91.5849609375 -52.123046875 l 1
 67.4990234375 -42.806640625 47.5771484375 -23.3681640625 37.4189453125 0.375 c 0
 27.259765625 24.1181640625 27.00390625 51.5263671875 34.6943359375 76.1796875 c 0
 46.0283203125 112.515625 72.4736328125 141.991210938 99.4775390625 168.815429688 c 0
 121.252929688 190.444335938 144.260742188 210.791992188 167.54296875 230.790039062 c 2
 292.45703125 338.080078125 l 2
 304.931640625 348.793945312 317.197265625 359.8671875 327.546875 372.64453125 c 0
 337.897460938 385.421875 346.404296875 399.642578125 353.28515625 414.577148438 c 0
 367.11328125 444.590820312 375.124023438 477.131835938 378.543945312 510 c 1
 406.793945312 510 l 1
  Spiro
    406.795 510 v
    378.995 403.4 o
    310.295 316.5 [
    185.385 209.21 ]
    119.445 149.185 o
    61.3603 67.5735 o
    101.338 -25.8767 v
    91.585 -52.1233 v
    34.6949 76.18 o
    99.478 168.815 o
    167.544 230.79 [
    292.458 338.08 ]
    353.286 414.577 o
    378.545 510 v
    388.478 510 z
  EndSpiro
EndSplineSet
Fore
SplineSet
398.626953125 505 m 1
 401.942382812 485.630859375 400.04296875 465.39453125 393.185546875 446.978515625 c 0
 386.329101562 428.5625 374.534179688 412.016601562 359.383789062 399.5 c 0
 343.033203125 385.991210938 322.82421875 377.23046875 301.80078125 374.418945312 c 0
 280.778320312 371.608398438 259.0078125 374.734375 239.58203125 383.25 c 0
 211.640625 395.498046875 188.854492188 419.033203125 177.458007812 447.333007812 c 1
 177.459960938 317.061523438 l 1
 227.293945312 266.166992188 l 1
 132.125 186 l 1
 48.4609375 252 l 1
 48.4609375 392 l 1
 255.126953125 512 l 1
 265.485351562 496.69921875 279.696289062 483.874023438 296.383789062 475.942382812 c 0
 306.594726562 471.088867188 317.823242188 468.134765625 329.126953125 468.319335938 c 0
 340.430664062 468.502929688 351.788085938 472.0078125 360.716796875 478.942382812 c 0
 370.354492188 486.42578125 376.859375 497.868164062 378.168945312 510 c 1
 398.626953125 505 l 1
101.336914062 -25.876953125 m 1
 76.7939453125 -29 l 1
 58.2802734375 -8.5263671875 48.83203125 19.845703125 51.3076171875 47.337890625 c 0
 53.7822265625 74.830078125 68.09375 100.954101562 89.6064453125 118.25 c 0
 106.814453125 132.084960938 128.336914062 140.330078125 150.341796875 142.14453125 c 0
 172.34765625 143.958007812 194.768554688 139.444335938 214.606445312 129.75 c 0
 241.872070312 116.42578125 264.169921875 93.2919921875 276.73046875 65.6669921875 c 1
 276.728515625 195.9375 l 1
 213.505859375 246.286132812 l 1
 313.505859375 329.286132812 l 1
 405.727539062 261 l 1
 405.728515625 110 l 1
 208.293945312 -10 l 1
 198.069335938 8.146484375 181.883789062 23.0419921875 162.611328125 30.943359375 c 0
 152.975585938 34.8935546875 142.553710938 37.0771484375 132.14453125 36.7421875 c 0
 121.735351562 36.408203125 111.264648438 33.4755859375 102.793945312 27.4169921875 c 0
 96.787109375 23.1201171875 91.849609375 17.2099609375 89.203125 10.314453125 c 0
 86.556640625 3.4189453125 86.3232421875 -4.443359375 88.9296875 -11.3544921875 c 0
 91.22265625 -17.43359375 95.6826171875 -22.67578125 101.336914062 -25.876953125 c 1
406.793945312 510 m 1
 403.043945312 473.313476562 394.23828125 436.979492188 378.994140625 403.400390625 c 0
 371.288085938 386.424804688 361.721679688 370.251953125 350.029296875 355.731445312 c 0
 338.336914062 341.2109375 324.436523438 328.647460938 310.293945312 316.5 c 2
 185.383789062 209.209960938 l 2
 162.833007812 189.83984375 140.768554688 169.8984375 119.444335938 149.184570312 c 0
 107.3203125 137.408203125 95.34375 125.404296875 84.9462890625 112.079101562 c 0
 74.548828125 98.7548828125 65.814453125 83.876953125 61.359375 67.5732421875 c 0
 56.5009765625 49.7919921875 57.0712890625 30.37890625 64.1396484375 13.35546875 c 0
 71.20703125 -3.6689453125 84.6875 -17.9658203125 101.336914062 -25.876953125 c 1
 91.5849609375 -52.123046875 l 1
 67.4990234375 -42.806640625 47.5771484375 -23.3681640625 37.4189453125 0.375 c 0
 27.259765625 24.1181640625 27.00390625 51.5263671875 34.6943359375 76.1796875 c 0
 46.0283203125 112.515625 72.4736328125 141.991210938 99.4775390625 168.815429688 c 0
 121.252929688 190.444335938 144.260742188 210.791992188 167.54296875 230.790039062 c 2
 292.45703125 338.080078125 l 2
 304.931640625 348.793945312 317.197265625 359.8671875 327.546875 372.64453125 c 0
 337.897460938 385.421875 346.404296875 399.642578125 353.28515625 414.577148438 c 0
 367.11328125 444.590820312 375.124023438 477.131835938 378.543945312 510 c 1
 406.793945312 510 l 1
EndSplineSet
EndChar

StartChar: m
Encoding: 109 109 15
Width: 781
VWidth: 0
Flags: HMW
AnchorPoint: "mark_top" 380 564 basechar 0
LayerCount: 3
Back
SplineSet
780.987304688 81.6689453125 m 1
 632.654296875 -14.583984375 l 1
 533.5546875 71.666015625 l 1
 575.543945312 110.046875 l 1
 575.543945312 356.514648438 l 1
 506.1796875 419.666992188 l 1
 430.82421875 374 l 1
 404.82421875 396.833007812 l 1
 585.95703125 509.905273438 l 1
 690.587890625 419.666015625 l 1
 690.587890625 133.666015625 l 1
 737.32421875 86 l 1
 780.32421875 118.333007812 l 1
 780.987304688 81.6689453125 l 1
505.513671875 74.0009765625 m 1
 395.654296875 -14.583984375 l 1
 296.5546875 71.666015625 l 1
 338.543945312 110.046875 l 1
 338.543945312 356.514648438 l 1
 269.1796875 419.666992188 l 1
 193.82421875 374 l 1
 167.82421875 396.833007812 l 1
 348.95703125 509.905273438 l 1
 453.587890625 419.666015625 l 1
 453.587890625 120.333984375 l 1
 505.513671875 74.0009765625 l 1
680.723632812 376.922851562 m 1
 663.086914062 398.669921875 l 1
 722.374023438 446.750976562 l 1
 740.010742188 425.002929688 l 1
 680.723632812 376.922851562 l 1
  Spiro
    680.723 376.92 v
    663.087 398.667 v
    722.374 446.748 v
    740.011 425 v
    0 0 z
  EndSpiro
225.5 419 m 1
 225.5 110.046875 l 1
 268.641601562 71.69921875 l 1
 172.772460938 -14.583984375 l 1
 57.728515625 76.4921875 l 1
 96.0771484375 110.046875 l 1
 96.0771484375 375.688476562 l 1
 57.728515625 418.829101562 l 1
 19.380859375 394.861328125 l 1
 5 414.036132812 l 1
 144.010742188 509.905273438 l 1
 225.5 419 l 1
  Spiro
    225.5 419 v
    225.5 110.047 v
    268.642 71.6992 v
    172.772 -14.584 v
    57.7285 76.4922 v
    96.077 110.047 v
    96.077 375.688 v
    57.7285 418.829 v
    19.3808 394.861 v
    5 414.036 v
    144.011 509.905 v
    229.489 417 z
  EndSpiro
EndSplineSet
Fore
SplineSet
780.987304688 81.6689453125 m 1
 632.654296875 -14.583984375 l 1
 533.5546875 71.666015625 l 1
 575.543945312 110.046875 l 1
 575.543945312 356.514648438 l 1
 506.1796875 419.666992188 l 1
 430.82421875 374 l 1
 404.82421875 396.833007812 l 1
 585.95703125 509.905273438 l 1
 690.587890625 419.666015625 l 1
 690.587890625 133.666015625 l 1
 737.32421875 86 l 1
 780.32421875 118.333007812 l 1
 780.987304688 81.6689453125 l 1
505.513671875 74.0009765625 m 1
 395.654296875 -14.583984375 l 1
 296.5546875 71.666015625 l 1
 338.543945312 110.046875 l 1
 338.543945312 356.514648438 l 1
 269.1796875 419.666992188 l 1
 193.82421875 374 l 1
 167.82421875 396.833007812 l 1
 348.95703125 509.905273438 l 1
 453.587890625 419.666015625 l 1
 453.587890625 120.333984375 l 1
 505.513671875 74.0009765625 l 1
680.723632812 376.922851562 m 1
 663.086914062 398.669921875 l 1
 722.374023438 446.750976562 l 1
 740.010742188 425.002929688 l 1
 680.723632812 376.922851562 l 1
225.5 419 m 1
 225.5 110.046875 l 1
 268.641601562 71.69921875 l 1
 172.772460938 -14.583984375 l 1
 57.728515625 76.4921875 l 1
 96.0771484375 110.046875 l 1
 96.0771484375 375.688476562 l 1
 57.728515625 418.829101562 l 1
 19.380859375 394.861328125 l 1
 5 414.036132812 l 1
 144.010742188 509.905273438 l 1
 225.5 419 l 1
EndSplineSet
EndChar

StartChar: n
Encoding: 110 110 16
Width: 557
VWidth: 0
InSpiro: 1
Flags: HMW
AnchorPoint: "mark_top" 262 564 basechar 0
LayerCount: 3
Back
SplineSet
444.723632812 376.922851562 m 1
 427.086914062 398.669921875 l 1
 486.374023438 446.750976562 l 1
 504.010742188 425.002929688 l 1
 444.723632812 376.922851562 l 1
  Spiro
    444.723 376.92 v
    427.087 398.667 v
    486.374 446.748 v
    504.011 425 v
    0 0 z
  EndSpiro
537.077148438 114.83984375 m 1
 556.25 86.0791015625 l 1
 407.654296875 -14.583984375 l 1
 306.990234375 76.4921875 l 1
 340.543945312 110.046875 l 1
 340.543945312 356.514648438 l 1
 268.641601562 418.829101562 l 1
 201.010742188 365.166992188 l 1
 175.010742188 388 l 1
 330.95703125 509.905273438 l 1
 455.587890625 402.833007812 l 1
 455.587890625 124.426757812 l 1
 498.728515625 86.0791015625 l 1
 537.077148438 114.83984375 l 1
  Spiro
    537.077 114.84 v
    556.25 86.0791 v
    407.654 -14.584 v
    306.99 76.4922 v
    340.544 110.047 v
    340.544 356.515 v
    268.642 418.829 v
    201.011 365.167 v
    175.011 388 v
    330.957 509.905 v
    455.588 402.833 v
    455.588 124.427 v
    498.729 86.0791 v
    541.066 114.84 z
  EndSpiro
225.5 419 m 1
 225.5 110.046875 l 1
 268.641601562 71.69921875 l 1
 172.772460938 -14.583984375 l 1
 57.728515625 76.4921875 l 1
 96.0771484375 110.046875 l 1
 96.0771484375 375.688476562 l 1
 57.728515625 418.829101562 l 1
 19.380859375 394.861328125 l 1
 5 414.036132812 l 1
 144.010742188 509.905273438 l 1
 225.5 419 l 1
  Spiro
    225.5 419 v
    225.5 110.047 v
    268.642 71.6992 v
    172.772 -14.584 v
    57.7285 76.4922 v
    96.077 110.047 v
    96.077 375.688 v
    57.7285 418.829 v
    19.3808 394.861 v
    5 414.036 v
    144.011 509.905 v
    229.489 417 z
  EndSpiro
EndSplineSet
Fore
SplineSet
444.723632812 376.922851562 m 1
 427.086914062 398.669921875 l 1
 486.374023438 446.750976562 l 1
 504.010742188 425.002929688 l 1
 444.723632812 376.922851562 l 1
537.077148438 114.83984375 m 1
 556.25 86.0791015625 l 1
 407.654296875 -14.583984375 l 1
 306.990234375 76.4921875 l 1
 340.543945312 110.046875 l 1
 340.543945312 356.514648438 l 1
 268.641601562 418.829101562 l 1
 201.010742188 365.166992188 l 1
 175.010742188 388 l 1
 330.95703125 509.905273438 l 1
 455.587890625 402.833007812 l 1
 455.587890625 124.426757812 l 1
 498.728515625 86.0791015625 l 1
 537.077148438 114.83984375 l 1
225.5 419 m 1
 225.5 110.046875 l 1
 268.641601562 71.69921875 l 1
 172.772460938 -14.583984375 l 1
 57.728515625 76.4921875 l 1
 96.0771484375 110.046875 l 1
 96.0771484375 375.688476562 l 1
 57.728515625 418.829101562 l 1
 19.380859375 394.861328125 l 1
 5 414.036132812 l 1
 144.010742188 509.905273438 l 1
 225.5 419 l 1
EndSplineSet
EndChar

StartChar: c
Encoding: 99 99 18
Width: 367
VWidth: 0
Flags: HMW
AnchorPoint: "cedilla" 162.826 -4 basechar 0
AnchorPoint: "mark_top" 242.826 576 basechar 0
LayerCount: 3
Back
SplineSet
231.826171875 123 m 0
 211.111328125 135.090820312 193.793945312 152.93359375 182.326171875 174 c 1
 182.326171875 434 l 1
 271.326171875 360 l 1
 366.326171875 432 l 1
 260.326171875 517 l 1
 53.826171875 401.877929688 l 1
 53.826171875 102.877929688 l 1
 204.826171875 0 l 1
 218.826171875 0 l 1
 365.993164062 129.166992188 l 1
 352.993164062 146.666992188 l 1
 295.326171875 105 l 1
 273.096679688 105.53515625 251.029296875 111.791015625 231.826171875 123 c 0
  Spiro
    231.826 123 o
    182.326 174 v
    182.326 434 v
    271.326 360 v
    366.326 432 v
    260.326 517 v
    53.8262 401.878 v
    53.8262 102.878 v
    204.826 0 v
    218.826 0 v
    365.993 129.167 v
    352.993 146.667 v
    295.326 105 v
    616.667 124.333 z
  EndSpiro
EndSplineSet
Fore
SplineSet
231.826171875 123 m 0
 211.111328125 135.090820312 193.793945312 152.93359375 182.326171875 174 c 1
 182.326171875 434 l 1
 271.326171875 360 l 1
 366.326171875 432 l 1
 260.326171875 517 l 1
 53.826171875 401.877929688 l 1
 53.826171875 102.877929688 l 1
 204.826171875 0 l 1
 218.826171875 0 l 1
 365.993164062 129.166992188 l 1
 352.993164062 146.666992188 l 1
 295.326171875 105 l 1
 273.096679688 105.53515625 251.029296875 111.791015625 231.826171875 123 c 0
EndSplineSet
EndChar

StartChar: O
Encoding: 79 79 19
Width: 754
VWidth: 0
InSpiro: 1
Flags: HMW
AnchorPoint: "mark_top" 451.342 856 basechar 0
LayerCount: 3
Back
SplineSet
642.901367188 397.65625 m 1
 655.860351562 372.0859375 l 1
 453.6484375 270.000976562 l 1
 440.731445312 295.586914062 l 1
 642.901367188 397.65625 l 1
  Spiro
    642.901 397.655 v
    655.861 372.086 v
    453.649 270 v
    440.732 295.586 v
    0 0 z
  EndSpiro
643.944335938 503.142578125 m 1
 656.903320312 477.572265625 l 1
 454.69140625 375.487304688 l 1
 441.774414062 401.073242188 l 1
 643.944335938 503.142578125 l 1
  Spiro
    643.944 503.142 v
    656.904 477.573 v
    454.692 375.487 v
    441.774 401.073 v
    0 0 z
  EndSpiro
464.983398438 42.5712890625 m 1
 436.318359375 42.525390625 l 1
 436.319335938 681 l 1
 464.981445312 681 l 1
 464.983398438 42.5712890625 l 1
  Spiro
    464.984 42.5715 v
    436.318 42.5258 v
    436.32 681 v
    464.982 681 v
    0 0 z
  EndSpiro
260.952148438 640.22265625 m 1
 390.018554688 694.333007812 l 1
 389.952148438 330.75390625 l 1
 146.305664062 228.211914062 l 1
 146.325195312 256.836914062 l 1
 260.954101562 305.690429688 l 1
 260.952148438 640.22265625 l 1
  Spiro
    390.018 694.333 v
    389.952 330.754 v
    146.305 228.212 v
    146.325 256.837 v
    260.954 305.69 v
    260.952 640.223 v
    230.948 550.223 z
  EndSpiro
175.534179688 623.25 m 1
 505.201171875 765 l 1
 582.022460938 733.529296875 647.620117188 675.423828125 688.201171875 603 c 0
 718.95703125 548.110351562 735.37109375 485.340820312 735.936523438 422.423828125 c 0
 736.500976562 359.506835938 721.2109375 296.827148438 694.201171875 240 c 0
 666.48828125 181.6953125 627.46875 129.026367188 581.701171875 83.5 c 0
 553.169921875 55.1201171875 521.649414062 29.4951171875 486.610351562 9.7060546875 c 0
 451.571289062 -10.083984375 412.764648438 -23.7138671875 372.701171875 -27.5 c 0
 325.307617188 -31.978515625 276.796875 -22.20703125 234.44140625 -0.4765625 c 0
 192.0859375 21.25390625 156.008789062 54.2265625 127.701171875 92.5 c 0
 76.0322265625 162.358398438 48.6923828125 248.715820312 43.30078125 335.438476562 c 0
 37.9091796875 422.161132812 55.2412109375 510.604492188 95.701171875 587.5 c 0
 142.51171875 676.466796875 221.047851562 748.533203125 314.201171875 786.333007812 c 1
 328.704101562 767.830078125 l 1
 283.081054688 735.838867188 245.116210938 693.123046875 218.201171875 644.333007812 c 0
 184.934570312 584.028320312 168.44921875 515.168945312 166.201171875 446.333007812 c 0
 164.419921875 391.795898438 171.2890625 336.8125 188.23828125 284.944335938 c 0
 205.1875 233.076171875 232.739257812 184.020507812 272.201171875 146.333007812 c 0
 294.00390625 125.509765625 319.416015625 108.32421875 347.31640625 96.900390625 c 0
 375.217773438 85.4765625 405.591796875 79.9326171875 435.701171875 81.5 c 0
 470.819335938 83.328125 505.336914062 94.943359375 534.563476562 114.498046875 c 0
 563.791015625 134.052734375 587.633789062 161.314453125 604.201171875 192.333007812 c 0
 633.711914062 247.586914062 639.809570312 313.573242188 628.108398438 375.111328125 c 0
 616.407226562 436.6484375 587.900390625 494.307617188 550.201171875 544.333007812 c 0
 507.696289062 600.736328125 453.357421875 648.032226562 392.284179688 683.5 c 1
 175.534179688 593.5 l 1
 175.534179688 623.25 l 1
  Spiro
    505.201 765 v
    688.201 603 o
    694.201 240 o
    581.701 83.5 o
    372.701 -27.5 o
    127.7 92.5 o
    95.7001 587.5 o
    314.201 786.333 v
    328.704 767.83 v
    218.201 644.333 o
    166.201 446.333 o
    272.201 146.333 o
    435.701 81.5 o
    604.201 192.333 o
    550.201 544.333 o
    392.284 683.5 v
    175.534 593.5 v
    175.534 623.25 v
    145.5 623.25 z
  EndSpiro
EndSplineSet
Fore
SplineSet
642.901367188 397.65625 m 1
 655.860351562 372.0859375 l 1
 453.6484375 270.000976562 l 1
 440.731445312 295.586914062 l 1
 642.901367188 397.65625 l 1
643.944335938 503.142578125 m 1
 656.903320312 477.572265625 l 1
 454.69140625 375.487304688 l 1
 441.774414062 401.073242188 l 1
 643.944335938 503.142578125 l 1
464.983398438 42.5712890625 m 1
 436.318359375 42.525390625 l 1
 436.319335938 681 l 1
 464.981445312 681 l 1
 464.983398438 42.5712890625 l 1
260.952148438 640.22265625 m 1
 390.018554688 694.333007812 l 1
 389.952148438 330.75390625 l 1
 146.305664062 228.211914062 l 1
 146.325195312 256.836914062 l 1
 260.954101562 305.690429688 l 1
 260.952148438 640.22265625 l 1
175.534179688 623.25 m 1
 505.201171875 765 l 1
 582.022460938 733.529296875 647.620117188 675.423828125 688.201171875 603 c 0
 718.95703125 548.110351562 735.37109375 485.340820312 735.936523438 422.423828125 c 0
 736.500976562 359.506835938 721.2109375 296.827148438 694.201171875 240 c 0
 666.48828125 181.6953125 627.46875 129.026367188 581.701171875 83.5 c 0
 553.169921875 55.1201171875 521.649414062 29.4951171875 486.610351562 9.7060546875 c 0
 451.571289062 -10.083984375 412.764648438 -23.7138671875 372.701171875 -27.5 c 0
 325.307617188 -31.978515625 276.796875 -22.20703125 234.44140625 -0.4765625 c 0
 192.0859375 21.25390625 156.008789062 54.2265625 127.701171875 92.5 c 0
 76.0322265625 162.358398438 48.6923828125 248.715820312 43.30078125 335.438476562 c 0
 37.9091796875 422.161132812 55.2412109375 510.604492188 95.701171875 587.5 c 0
 142.51171875 676.466796875 221.047851562 748.533203125 314.201171875 786.333007812 c 1
 328.704101562 767.830078125 l 1
 283.081054688 735.838867188 245.116210938 693.123046875 218.201171875 644.333007812 c 0
 184.934570312 584.028320312 168.44921875 515.168945312 166.201171875 446.333007812 c 0
 164.419921875 391.795898438 171.2890625 336.8125 188.23828125 284.944335938 c 0
 205.1875 233.076171875 232.739257812 184.020507812 272.201171875 146.333007812 c 0
 294.00390625 125.509765625 319.416015625 108.32421875 347.31640625 96.900390625 c 0
 375.217773438 85.4765625 405.591796875 79.9326171875 435.701171875 81.5 c 0
 470.819335938 83.328125 505.336914062 94.943359375 534.563476562 114.498046875 c 0
 563.791015625 134.052734375 587.633789062 161.314453125 604.201171875 192.333007812 c 0
 633.711914062 247.586914062 639.809570312 313.573242188 628.108398438 375.111328125 c 0
 616.407226562 436.6484375 587.900390625 494.307617188 550.201171875 544.333007812 c 0
 507.696289062 600.736328125 453.357421875 648.032226562 392.284179688 683.5 c 1
 175.534179688 593.5 l 1
 175.534179688 623.25 l 1
EndSplineSet
EndChar

StartChar: Q
Encoding: 81 81 20
Width: 780
VWidth: 0
InSpiro: 1
Flags: HMW
AnchorPoint: "mark_top" 444 848 basechar 0
LayerCount: 3
Back
SplineSet
519.708984375 53.697265625 m 1
 626.359375 147 l 1
 650.555664062 99.3291015625 686.311523438 57.5751953125 729.692382812 26.3330078125 c 0
 743.234375 16.5810546875 757.50390625 7.837890625 772.34375 0.2021484375 c 1
 812.359375 34.3330078125 l 1
 833.359375 13 l 1
 682.359375 -106.666992188 l 1
 661.524414062 -95.794921875 641.962890625 -82.5166015625 624.026367188 -67.3330078125 c 0
 597.033203125 -44.484375 573.811523438 -17.5244140625 552.026367188 10.3330078125 c 0
 540.919921875 24.53515625 530.166015625 39.01171875 519.708984375 53.697265625 c 1
  Spiro
    519.708 53.6969 v
    626.359 147 v
    729.692 26.3333 o
    772.343 0.202083 v
    812.359 34.3333 v
    833.359 13 v
    682.359 -106.667 v
    624.025 -67.3333 o
    552.025 10.3333 o
    0 0 z
  EndSpiro
655.559570312 397.65625 m 1
 668.518554688 372.0859375 l 1
 466.306640625 270.000976562 l 1
 453.389648438 295.586914062 l 1
 655.559570312 397.65625 l 1
  Spiro
    655.559 397.655 v
    668.519 372.086 v
    466.307 270 v
    453.39 295.586 v
    0 0 z
  EndSpiro
656.602539062 503.142578125 m 1
 669.561523438 477.572265625 l 1
 467.349609375 375.487304688 l 1
 454.432617188 401.073242188 l 1
 656.602539062 503.142578125 l 1
  Spiro
    656.602 503.142 v
    669.562 477.573 v
    467.35 375.487 v
    454.432 401.073 v
    0 0 z
  EndSpiro
477.641601562 42.5712890625 m 1
 448.9765625 42.525390625 l 1
 448.977539062 681 l 1
 477.639648438 681 l 1
 477.641601562 42.5712890625 l 1
  Spiro
    477.642 42.5715 v
    448.976 42.5258 v
    448.978 681 v
    477.64 681 v
    0 0 z
  EndSpiro
245.522460938 297 m 0
 255.603515625 313.787109375 261.219726562 332.971679688 263.92578125 352.366210938 c 0
 266.6328125 371.759765625 266.612304688 391.41796875 266.612304688 411 c 2
 266.610351562 640.22265625 l 1
 395.676757812 694.333007812 l 1
 395.610351562 480.666992188 l 1
 395.610351562 415.666992188 l 2
 395.610351562 393.169921875 394.661132812 370.362304688 387.784179688 348.942382812 c 0
 380.908203125 327.5234375 368.689453125 307.97265625 353.19140625 291.666992188 c 0
 332.26953125 269.655273438 305.901367188 253.176757812 277.688476562 241.943359375 c 0
 249.475585938 230.708984375 219.216796875 224.696289062 188.857421875 224 c 1
 179.522460938 248 l 1
 206.918945312 254.474609375 231.030273438 272.866210938 245.522460938 297 c 0
  Spiro
    245.522 297 o
    266.612 411 [
    266.61 640.223 v
    395.676 694.333 v
    395.61 480.667 v
    395.61 415.667 ]
    353.19 291.667 o
    188.857 224 v
    179.522 248 v
    0 0 z
  EndSpiro
188.192382812 623.25 m 1
 517.859375 765 l 1
 594.680664062 733.529296875 660.278320312 675.423828125 700.859375 603 c 0
 731.615234375 548.110351562 748.029296875 485.340820312 748.594726562 422.423828125 c 0
 749.159179688 359.506835938 733.869140625 296.827148438 706.859375 240 c 0
 679.146484375 181.6953125 640.126953125 129.026367188 594.359375 83.5 c 0
 565.828125 55.1201171875 534.307617188 29.4951171875 499.268554688 9.7060546875 c 0
 464.229492188 -10.083984375 425.422851562 -23.7138671875 385.359375 -27.5 c 0
 337.965820312 -31.978515625 289.455078125 -22.20703125 247.099609375 -0.4765625 c 0
 204.744140625 21.25390625 168.666992188 54.2265625 140.359375 92.5 c 0
 88.6904296875 162.358398438 61.3505859375 248.715820312 55.958984375 335.438476562 c 0
 50.5673828125 422.161132812 67.8994140625 510.604492188 108.359375 587.5 c 0
 155.169921875 676.466796875 233.706054688 748.533203125 326.859375 786.333007812 c 1
 341.362304688 767.830078125 l 1
 295.739257812 735.838867188 257.774414062 693.123046875 230.859375 644.333007812 c 0
 197.592773438 584.028320312 181.107421875 515.168945312 178.859375 446.333007812 c 0
 177.078125 391.795898438 183.947265625 336.8125 200.896484375 284.944335938 c 0
 217.845703125 233.076171875 245.397460938 184.020507812 284.859375 146.333007812 c 0
 306.662109375 125.509765625 332.07421875 108.32421875 359.974609375 96.900390625 c 0
 387.875976562 85.4765625 418.25 79.9326171875 448.359375 81.5 c 0
 483.477539062 83.328125 517.995117188 94.943359375 547.221679688 114.498046875 c 0
 576.44921875 134.052734375 600.291992188 161.314453125 616.859375 192.333007812 c 0
 646.370117188 247.586914062 652.467773438 313.573242188 640.766601562 375.111328125 c 0
 629.065429688 436.6484375 600.55859375 494.307617188 562.859375 544.333007812 c 0
 520.354492188 600.736328125 466.015625 648.032226562 404.942382812 683.5 c 1
 188.192382812 593.5 l 1
 188.192382812 623.25 l 1
  Spiro
    517.859 765 v
    700.859 603 o
    706.859 240 o
    594.359 83.5 o
    385.359 -27.5 o
    140.358 92.5 o
    108.358 587.5 o
    326.859 786.333 v
    341.362 767.83 v
    230.859 644.333 o
    178.859 446.333 o
    284.859 146.333 o
    448.359 81.5 o
    616.859 192.333 o
    562.859 544.333 o
    404.942 683.5 v
    188.192 593.5 v
    188.192 623.25 v
    145.5 623.25 z
  EndSpiro
EndSplineSet
Fore
SplineSet
519.708984375 53.697265625 m 1
 626.359375 147 l 1
 650.555664062 99.3291015625 686.311523438 57.5751953125 729.692382812 26.3330078125 c 0
 743.234375 16.5810546875 757.50390625 7.837890625 772.34375 0.2021484375 c 1
 812.359375 34.3330078125 l 1
 833.359375 13 l 1
 682.359375 -106.666992188 l 1
 661.524414062 -95.794921875 641.962890625 -82.5166015625 624.026367188 -67.3330078125 c 0
 597.033203125 -44.484375 573.811523438 -17.5244140625 552.026367188 10.3330078125 c 0
 540.919921875 24.53515625 530.166015625 39.01171875 519.708984375 53.697265625 c 1
655.559570312 397.65625 m 1
 668.518554688 372.0859375 l 1
 466.306640625 270.000976562 l 1
 453.389648438 295.586914062 l 1
 655.559570312 397.65625 l 1
656.602539062 503.142578125 m 1
 669.561523438 477.572265625 l 1
 467.349609375 375.487304688 l 1
 454.432617188 401.073242188 l 1
 656.602539062 503.142578125 l 1
477.641601562 42.5712890625 m 1
 448.9765625 42.525390625 l 1
 448.977539062 681 l 1
 477.639648438 681 l 1
 477.641601562 42.5712890625 l 1
245.522460938 297 m 0
 255.603515625 313.787109375 261.219726562 332.971679688 263.92578125 352.366210938 c 0
 266.6328125 371.759765625 266.612304688 391.41796875 266.612304688 411 c 2
 266.610351562 640.22265625 l 1
 395.676757812 694.333007812 l 1
 395.610351562 480.666992188 l 1
 395.610351562 415.666992188 l 2
 395.610351562 393.169921875 394.661132812 370.362304688 387.784179688 348.942382812 c 0
 380.908203125 327.5234375 368.689453125 307.97265625 353.19140625 291.666992188 c 0
 332.26953125 269.655273438 305.901367188 253.176757812 277.688476562 241.943359375 c 0
 249.475585938 230.708984375 219.216796875 224.696289062 188.857421875 224 c 1
 179.522460938 248 l 1
 206.918945312 254.474609375 231.030273438 272.866210938 245.522460938 297 c 0
188.192382812 623.25 m 1
 517.859375 765 l 1
 594.680664062 733.529296875 660.278320312 675.423828125 700.859375 603 c 0
 731.615234375 548.110351562 748.029296875 485.340820312 748.594726562 422.423828125 c 0
 749.159179688 359.506835938 733.869140625 296.827148438 706.859375 240 c 0
 679.146484375 181.6953125 640.126953125 129.026367188 594.359375 83.5 c 0
 565.828125 55.1201171875 534.307617188 29.4951171875 499.268554688 9.7060546875 c 0
 464.229492188 -10.083984375 425.422851562 -23.7138671875 385.359375 -27.5 c 0
 337.965820312 -31.978515625 289.455078125 -22.20703125 247.099609375 -0.4765625 c 0
 204.744140625 21.25390625 168.666992188 54.2265625 140.359375 92.5 c 0
 88.6904296875 162.358398438 61.3505859375 248.715820312 55.958984375 335.438476562 c 0
 50.5673828125 422.161132812 67.8994140625 510.604492188 108.359375 587.5 c 0
 155.169921875 676.466796875 233.706054688 748.533203125 326.859375 786.333007812 c 1
 341.362304688 767.830078125 l 1
 295.739257812 735.838867188 257.774414062 693.123046875 230.859375 644.333007812 c 0
 197.592773438 584.028320312 181.107421875 515.168945312 178.859375 446.333007812 c 0
 177.078125 391.795898438 183.947265625 336.8125 200.896484375 284.944335938 c 0
 217.845703125 233.076171875 245.397460938 184.020507812 284.859375 146.333007812 c 0
 306.662109375 125.509765625 332.07421875 108.32421875 359.974609375 96.900390625 c 0
 387.875976562 85.4765625 418.25 79.9326171875 448.359375 81.5 c 0
 483.477539062 83.328125 517.995117188 94.943359375 547.221679688 114.498046875 c 0
 576.44921875 134.052734375 600.291992188 161.314453125 616.859375 192.333007812 c 0
 646.370117188 247.586914062 652.467773438 313.573242188 640.766601562 375.111328125 c 0
 629.065429688 436.6484375 600.55859375 494.307617188 562.859375 544.333007812 c 0
 520.354492188 600.736328125 466.015625 648.032226562 404.942382812 683.5 c 1
 188.192382812 593.5 l 1
 188.192382812 623.25 l 1
EndSplineSet
EndChar

StartChar: Q.ss01
Encoding: 65536 -1 21
Width: 758
VWidth: 0
InSpiro: 1
Flags: HMW
LayerCount: 3
Back
SplineSet
215.076171875 114 m 1
 200.576171875 178.5 l 1
 235.985351562 216.315429688 285.751953125 240.151367188 337.352539062 244.762695312 c 0
 388.952148438 249.374023438 441.172851562 234.836914062 486.076171875 209 c 0
 532.947265625 182.030273438 572.501953125 144.22265625 611.409179688 106.666992188 c 0
 635.501953125 83.4111328125 659.46875 60.02734375 683.654296875 36.869140625 c 1
 724.811523438 69.44921875 l 1
 744.669921875 49.6669921875 l 1
 593.669921875 -70 l 1
 568.610351562 -43.3369140625 545.665039062 -14.75390625 523.909179688 14.6669921875 c 0
 493.985351562 55.1337890625 465.525390625 98.052734375 425.076171875 128 c 0
 393.965820312 151.033203125 355.479492188 165.0546875 316.817382812 163.149414062 c 0
 278.155273438 161.244140625 240.448242188 143.234375 215.076171875 114 c 1
  Spiro
    215.076 114 v
    200.576 178.5 v
    486.076 209 o
    611.409 106.667 o
    683.654 36.8688 v
    724.811 69.4493 v
    744.67 49.6667 v
    593.67 -70 v
    523.909 14.6667 o
    425.076 128 o
    0 0 z
  EndSpiro
637.537109375 397.65625 m 1
 650.49609375 372.0859375 l 1
 448.284179688 270.000976562 l 1
 435.3671875 295.586914062 l 1
 637.537109375 397.65625 l 1
  Spiro
    637.537 397.655 v
    650.497 372.086 v
    448.285 270 v
    435.368 295.586 v
    0 0 z
  EndSpiro
638.580078125 503.142578125 m 1
 651.5390625 477.572265625 l 1
 449.327148438 375.487304688 l 1
 436.41015625 401.073242188 l 1
 638.580078125 503.142578125 l 1
  Spiro
    638.58 503.142 v
    651.54 477.573 v
    449.328 375.487 v
    436.41 401.073 v
    0 0 z
  EndSpiro
459.620117188 171 m 1
 430.954101562 170.954101562 l 1
 430.956054688 681 l 1
 459.618164062 681 l 1
 459.620117188 171 l 1
  Spiro
    459.62 171 v
    430.954 170.954 v
    430.956 681 v
    459.618 681 v
    0 0 z
  EndSpiro
255.587890625 640.22265625 m 1
 384.654296875 694.333007812 l 1
 384.587890625 330.75390625 l 1
 140.94140625 228.211914062 l 1
 140.9609375 256.836914062 l 1
 255.58984375 305.690429688 l 1
 255.587890625 640.22265625 l 1
  Spiro
    384.654 694.333 v
    384.588 330.754 v
    140.941 228.212 v
    140.961 256.837 v
    255.59 305.69 v
    255.588 640.223 v
    230.948 550.223 z
  EndSpiro
170.169921875 623.25 m 1
 499.836914062 765 l 1
 576.658203125 733.529296875 642.255859375 675.423828125 682.836914062 603 c 0
 713.592773438 548.110351562 730.006835938 485.340820312 730.572265625 422.423828125 c 0
 731.13671875 359.506835938 715.846679688 296.827148438 688.836914062 240 c 0
 661.124023438 181.6953125 622.104492188 129.026367188 576.336914062 83.5 c 0
 547.805664062 55.1201171875 516.28515625 29.4951171875 481.24609375 9.7060546875 c 0
 446.20703125 -10.083984375 407.400390625 -23.7138671875 367.336914062 -27.5 c 0
 319.943359375 -31.978515625 271.432617188 -22.20703125 229.077148438 -0.4765625 c 0
 186.721679688 21.25390625 150.64453125 54.2265625 122.336914062 92.5 c 0
 70.66796875 162.358398438 43.328125 248.715820312 37.9365234375 335.438476562 c 0
 32.544921875 422.161132812 49.876953125 510.604492188 90.3369140625 587.5 c 0
 137.147460938 676.466796875 215.68359375 748.533203125 308.836914062 786.333007812 c 1
 323.33984375 767.830078125 l 1
 277.716796875 735.838867188 239.751953125 693.123046875 212.836914062 644.333007812 c 0
 179.5703125 584.028320312 163.084960938 515.168945312 160.836914062 446.333007812 c 0
 159.055664062 391.795898438 165.924804688 336.8125 182.874023438 284.944335938 c 0
 199.823242188 233.076171875 227.375 184.020507812 266.836914062 146.333007812 c 0
 288.639648438 125.509765625 314.051757812 108.32421875 341.952148438 96.900390625 c 0
 369.853515625 85.4765625 400.227539062 79.9326171875 430.336914062 81.5 c 0
 465.455078125 83.328125 499.97265625 94.943359375 529.19921875 114.498046875 c 0
 558.426757812 134.052734375 582.26953125 161.314453125 598.836914062 192.333007812 c 0
 628.34765625 247.586914062 634.4453125 313.573242188 622.744140625 375.111328125 c 0
 611.04296875 436.6484375 582.536132812 494.307617188 544.836914062 544.333007812 c 0
 502.33203125 600.736328125 447.993164062 648.032226562 386.919921875 683.5 c 1
 170.169921875 593.5 l 1
 170.169921875 623.25 l 1
  Spiro
    499.837 765 v
    682.837 603 o
    688.837 240 o
    576.337 83.5 o
    367.337 -27.5 o
    122.336 92.5 o
    90.3365 587.5 o
    308.837 786.333 v
    323.34 767.83 v
    212.837 644.333 o
    160.837 446.333 o
    266.837 146.333 o
    430.337 81.5 o
    598.837 192.333 o
    544.837 544.333 o
    386.92 683.5 v
    170.17 593.5 v
    170.17 623.25 v
    145.5 623.25 z
  EndSpiro
EndSplineSet
Fore
SplineSet
215.076171875 114 m 1
 200.576171875 178.5 l 1
 235.985351562 216.315429688 285.751953125 240.151367188 337.352539062 244.762695312 c 0
 388.952148438 249.374023438 441.172851562 234.836914062 486.076171875 209 c 0
 532.947265625 182.030273438 572.501953125 144.22265625 611.409179688 106.666992188 c 0
 635.501953125 83.4111328125 659.46875 60.02734375 683.654296875 36.869140625 c 1
 724.811523438 69.44921875 l 1
 744.669921875 49.6669921875 l 1
 593.669921875 -70 l 1
 568.610351562 -43.3369140625 545.665039062 -14.75390625 523.909179688 14.6669921875 c 0
 493.985351562 55.1337890625 465.525390625 98.052734375 425.076171875 128 c 0
 393.965820312 151.033203125 355.479492188 165.0546875 316.817382812 163.149414062 c 0
 278.155273438 161.244140625 240.448242188 143.234375 215.076171875 114 c 1
637.537109375 397.65625 m 1
 650.49609375 372.0859375 l 1
 448.284179688 270.000976562 l 1
 435.3671875 295.586914062 l 1
 637.537109375 397.65625 l 1
638.580078125 503.142578125 m 1
 651.5390625 477.572265625 l 1
 449.327148438 375.487304688 l 1
 436.41015625 401.073242188 l 1
 638.580078125 503.142578125 l 1
459.620117188 171 m 1
 430.954101562 170.954101562 l 1
 430.956054688 681 l 1
 459.618164062 681 l 1
 459.620117188 171 l 1
255.587890625 640.22265625 m 1
 384.654296875 694.333007812 l 1
 384.587890625 330.75390625 l 1
 140.94140625 228.211914062 l 1
 140.9609375 256.836914062 l 1
 255.58984375 305.690429688 l 1
 255.587890625 640.22265625 l 1
170.169921875 623.25 m 1
 499.836914062 765 l 1
 576.658203125 733.529296875 642.255859375 675.423828125 682.836914062 603 c 0
 713.592773438 548.110351562 730.006835938 485.340820312 730.572265625 422.423828125 c 0
 731.13671875 359.506835938 715.846679688 296.827148438 688.836914062 240 c 0
 661.124023438 181.6953125 622.104492188 129.026367188 576.336914062 83.5 c 0
 547.805664062 55.1201171875 516.28515625 29.4951171875 481.24609375 9.7060546875 c 0
 446.20703125 -10.083984375 407.400390625 -23.7138671875 367.336914062 -27.5 c 0
 319.943359375 -31.978515625 271.432617188 -22.20703125 229.077148438 -0.4765625 c 0
 186.721679688 21.25390625 150.64453125 54.2265625 122.336914062 92.5 c 0
 70.66796875 162.358398438 43.328125 248.715820312 37.9365234375 335.438476562 c 0
 32.544921875 422.161132812 49.876953125 510.604492188 90.3369140625 587.5 c 0
 137.147460938 676.466796875 215.68359375 748.533203125 308.836914062 786.333007812 c 1
 323.33984375 767.830078125 l 1
 277.716796875 735.838867188 239.751953125 693.123046875 212.836914062 644.333007812 c 0
 179.5703125 584.028320312 163.084960938 515.168945312 160.836914062 446.333007812 c 0
 159.055664062 391.795898438 165.924804688 336.8125 182.874023438 284.944335938 c 0
 199.823242188 233.076171875 227.375 184.020507812 266.836914062 146.333007812 c 0
 288.639648438 125.509765625 314.051757812 108.32421875 341.952148438 96.900390625 c 0
 369.853515625 85.4765625 400.227539062 79.9326171875 430.336914062 81.5 c 0
 465.455078125 83.328125 499.97265625 94.943359375 529.19921875 114.498046875 c 0
 558.426757812 134.052734375 582.26953125 161.314453125 598.836914062 192.333007812 c 0
 628.34765625 247.586914062 634.4453125 313.573242188 622.744140625 375.111328125 c 0
 611.04296875 436.6484375 582.536132812 494.307617188 544.836914062 544.333007812 c 0
 502.33203125 600.736328125 447.993164062 648.032226562 386.919921875 683.5 c 1
 170.169921875 593.5 l 1
 170.169921875 623.25 l 1
EndSplineSet
EndChar

StartChar: Q.ss02
Encoding: 65537 -1 22
Width: 808
VWidth: 0
Flags: HMW
LayerCount: 3
Back
SplineSet
479.708984375 53.697265625 m 1
 586.359375 147 l 1
 610.555664062 99.3291015625 646.311523438 57.5751953125 689.692382812 26.3330078125 c 0
 703.234375 16.5810546875 717.50390625 7.837890625 732.34375 0.2021484375 c 1
 773.500976562 32.7822265625 l 1
 793.359375 13 l 1
 642.359375 -106.666992188 l 1
 621.524414062 -95.794921875 601.962890625 -82.5166015625 584.026367188 -67.3330078125 c 0
 557.033203125 -44.484375 533.811523438 -17.5244140625 512.026367188 10.3330078125 c 0
 500.919921875 24.53515625 490.166015625 39.01171875 479.708984375 53.697265625 c 1
  Spiro
    479.708 53.6969 v
    586.359 147 v
    689.692 26.3333 o
    732.343 0.202083 v
    773.5 32.7826 v
    793.359 13 v
    642.359 -106.667 v
    584.025 -67.3333 o
    512.025 10.3333 o
    0 0 z
  EndSpiro
615.559570312 397.65625 m 1
 628.518554688 372.0859375 l 1
 426.306640625 270.000976562 l 1
 413.389648438 295.586914062 l 1
 615.559570312 397.65625 l 1
  Spiro
    615.559 397.655 v
    628.519 372.086 v
    426.307 270 v
    413.39 295.586 v
    0 0 z
  EndSpiro
616.602539062 503.142578125 m 1
 629.561523438 477.572265625 l 1
 427.349609375 375.487304688 l 1
 414.432617188 401.073242188 l 1
 616.602539062 503.142578125 l 1
  Spiro
    616.602 503.142 v
    629.562 477.573 v
    427.35 375.487 v
    414.432 401.073 v
    0 0 z
  EndSpiro
437.641601562 42.5712890625 m 1
 408.9765625 42.525390625 l 1
 408.977539062 681 l 1
 437.639648438 681 l 1
 437.641601562 42.5712890625 l 1
  Spiro
    437.642 42.5715 v
    408.976 42.5258 v
    408.978 681 v
    437.64 681 v
    0 0 z
  EndSpiro
233.610351562 640.22265625 m 1
 362.676757812 694.333007812 l 1
 362.610351562 330.75390625 l 1
 118.963867188 228.211914062 l 1
 118.983398438 256.836914062 l 1
 233.612304688 305.690429688 l 1
 233.610351562 640.22265625 l 1
  Spiro
    362.676 694.333 v
    362.61 330.754 v
    118.963 228.212 v
    118.983 256.837 v
    233.612 305.69 v
    233.61 640.223 v
    230.948 550.223 z
  EndSpiro
148.192382812 623.25 m 1
 477.859375 765 l 1
 554.680664062 733.529296875 620.278320312 675.423828125 660.859375 603 c 0
 691.615234375 548.110351562 708.029296875 485.340820312 708.594726562 422.423828125 c 0
 709.159179688 359.506835938 693.869140625 296.827148438 666.859375 240 c 0
 639.146484375 181.6953125 600.126953125 129.026367188 554.359375 83.5 c 0
 525.828125 55.1201171875 494.307617188 29.4951171875 459.268554688 9.7060546875 c 0
 424.229492188 -10.083984375 385.422851562 -23.7138671875 345.359375 -27.5 c 0
 297.965820312 -31.978515625 249.455078125 -22.20703125 207.099609375 -0.4765625 c 0
 164.744140625 21.25390625 128.666992188 54.2265625 100.359375 92.5 c 0
 48.6904296875 162.358398438 21.3505859375 248.715820312 15.958984375 335.438476562 c 0
 10.5673828125 422.161132812 27.8994140625 510.604492188 68.359375 587.5 c 0
 115.169921875 676.466796875 193.706054688 748.533203125 286.859375 786.333007812 c 1
 301.362304688 767.830078125 l 1
 255.739257812 735.838867188 217.774414062 693.123046875 190.859375 644.333007812 c 0
 157.592773438 584.028320312 141.107421875 515.168945312 138.859375 446.333007812 c 0
 137.078125 391.795898438 143.947265625 336.8125 160.896484375 284.944335938 c 0
 177.845703125 233.076171875 205.397460938 184.020507812 244.859375 146.333007812 c 0
 266.662109375 125.509765625 292.07421875 108.32421875 319.974609375 96.900390625 c 0
 347.875976562 85.4765625 378.25 79.9326171875 408.359375 81.5 c 0
 443.477539062 83.328125 477.995117188 94.943359375 507.221679688 114.498046875 c 0
 536.44921875 134.052734375 560.291992188 161.314453125 576.859375 192.333007812 c 0
 606.370117188 247.586914062 612.467773438 313.573242188 600.766601562 375.111328125 c 0
 589.065429688 436.6484375 560.55859375 494.307617188 522.859375 544.333007812 c 0
 480.354492188 600.736328125 426.015625 648.032226562 364.942382812 683.5 c 1
 148.192382812 593.5 l 1
 148.192382812 623.25 l 1
  Spiro
    477.859 765 v
    660.859 603 o
    666.859 240 o
    554.359 83.5 o
    345.359 -27.5 o
    100.358 92.5 o
    68.3585 587.5 o
    286.859 786.333 v
    301.362 767.83 v
    190.859 644.333 o
    138.859 446.333 o
    244.859 146.333 o
    408.359 81.5 o
    576.859 192.333 o
    522.859 544.333 o
    364.942 683.5 v
    148.192 593.5 v
    148.192 623.25 v
    145.5 623.25 z
  EndSpiro
EndSplineSet
Fore
SplineSet
479.708984375 53.697265625 m 1
 586.359375 147 l 1
 610.555664062 99.3291015625 646.311523438 57.5751953125 689.692382812 26.3330078125 c 0
 703.234375 16.5810546875 717.50390625 7.837890625 732.34375 0.2021484375 c 1
 773.500976562 32.7822265625 l 1
 793.359375 13 l 1
 642.359375 -106.666992188 l 1
 621.524414062 -95.794921875 601.962890625 -82.5166015625 584.026367188 -67.3330078125 c 0
 557.033203125 -44.484375 533.811523438 -17.5244140625 512.026367188 10.3330078125 c 0
 500.919921875 24.53515625 490.166015625 39.01171875 479.708984375 53.697265625 c 1
615.559570312 397.65625 m 1
 628.518554688 372.0859375 l 1
 426.306640625 270.000976562 l 1
 413.389648438 295.586914062 l 1
 615.559570312 397.65625 l 1
616.602539062 503.142578125 m 1
 629.561523438 477.572265625 l 1
 427.349609375 375.487304688 l 1
 414.432617188 401.073242188 l 1
 616.602539062 503.142578125 l 1
437.641601562 42.5712890625 m 1
 408.9765625 42.525390625 l 1
 408.977539062 681 l 1
 437.639648438 681 l 1
 437.641601562 42.5712890625 l 1
233.610351562 640.22265625 m 1
 362.676757812 694.333007812 l 1
 362.610351562 330.75390625 l 1
 118.963867188 228.211914062 l 1
 118.983398438 256.836914062 l 1
 233.612304688 305.690429688 l 1
 233.610351562 640.22265625 l 1
148.192382812 623.25 m 1
 477.859375 765 l 1
 554.680664062 733.529296875 620.278320312 675.423828125 660.859375 603 c 0
 691.615234375 548.110351562 708.029296875 485.340820312 708.594726562 422.423828125 c 0
 709.159179688 359.506835938 693.869140625 296.827148438 666.859375 240 c 0
 639.146484375 181.6953125 600.126953125 129.026367188 554.359375 83.5 c 0
 525.828125 55.1201171875 494.307617188 29.4951171875 459.268554688 9.7060546875 c 0
 424.229492188 -10.083984375 385.422851562 -23.7138671875 345.359375 -27.5 c 0
 297.965820312 -31.978515625 249.455078125 -22.20703125 207.099609375 -0.4765625 c 0
 164.744140625 21.25390625 128.666992188 54.2265625 100.359375 92.5 c 0
 48.6904296875 162.358398438 21.3505859375 248.715820312 15.958984375 335.438476562 c 0
 10.5673828125 422.161132812 27.8994140625 510.604492188 68.359375 587.5 c 0
 115.169921875 676.466796875 193.706054688 748.533203125 286.859375 786.333007812 c 1
 301.362304688 767.830078125 l 1
 255.739257812 735.838867188 217.774414062 693.123046875 190.859375 644.333007812 c 0
 157.592773438 584.028320312 141.107421875 515.168945312 138.859375 446.333007812 c 0
 137.078125 391.795898438 143.947265625 336.8125 160.896484375 284.944335938 c 0
 177.845703125 233.076171875 205.397460938 184.020507812 244.859375 146.333007812 c 0
 266.662109375 125.509765625 292.07421875 108.32421875 319.974609375 96.900390625 c 0
 347.875976562 85.4765625 378.25 79.9326171875 408.359375 81.5 c 0
 443.477539062 83.328125 477.995117188 94.943359375 507.221679688 114.498046875 c 0
 536.44921875 134.052734375 560.291992188 161.314453125 576.859375 192.333007812 c 0
 606.370117188 247.586914062 612.467773438 313.573242188 600.766601562 375.111328125 c 0
 589.065429688 436.6484375 560.55859375 494.307617188 522.859375 544.333007812 c 0
 480.354492188 600.736328125 426.015625 648.032226562 364.942382812 683.5 c 1
 148.192382812 593.5 l 1
 148.192382812 623.25 l 1
EndSplineSet
EndChar

StartChar: Q.ss03
Encoding: 65538 -1 23
Width: 808
VWidth: 0
Flags: HMW
LayerCount: 3
Back
SplineSet
193.098632812 114 m 1
 178.598632812 178.5 l 1
 218.853515625 208.248046875 267.311523438 226.690429688 317.125976562 231.58203125 c 0
 366.940429688 236.47265625 417.692382812 227.7578125 464.098632812 209 c 0
 538.784179688 178.811523438 601.186523438 124.94140625 660.098632812 70 c 0
 684.587890625 47.1611328125 708.620117188 23.8359375 732.34375 0.2021484375 c 1
 773.500976562 32.7822265625 l 1
 793.359375 13 l 1
 642.359375 -106.666992188 l 1
 619.068359375 -78.474609375 595.959960938 -50.1328125 572.598632812 -22 c 0
 548.280273438 7.2861328125 523.653320312 36.4345703125 496.131835938 62.7333984375 c 0
 468.610351562 89.0322265625 437.806640625 112.365234375 403.098632812 128 c 0
 369.680664062 143.053710938 332.748046875 150.672851562 296.161132812 148.486328125 c 0
 259.57421875 146.299804688 223.59375 134.333007812 193.098632812 114 c 1
  Spiro
    193.098 114 v
    178.598 178.5 v
    464.098 209 o
    660.098 70 o
    732.343 0.202083 v
    773.5 32.7826 v
    793.359 13 v
    642.359 -106.667 v
    572.598 -22 o
    403.098 128 o
    0 0 z
  EndSpiro
615.559570312 397.65625 m 1
 628.518554688 372.0859375 l 1
 426.306640625 270.000976562 l 1
 413.389648438 295.586914062 l 1
 615.559570312 397.65625 l 1
  Spiro
    615.559 397.655 v
    628.519 372.086 v
    426.307 270 v
    413.39 295.586 v
    0 0 z
  EndSpiro
616.602539062 503.142578125 m 1
 629.561523438 477.572265625 l 1
 427.349609375 375.487304688 l 1
 414.432617188 401.073242188 l 1
 616.602539062 503.142578125 l 1
  Spiro
    616.602 503.142 v
    629.562 477.573 v
    427.35 375.487 v
    414.432 401.073 v
    0 0 z
  EndSpiro
437.642578125 171 m 1
 408.9765625 170.954101562 l 1
 408.978515625 681 l 1
 437.640625 681 l 1
 437.642578125 171 l 1
  Spiro
    437.642 171 v
    408.976 170.954 v
    408.978 681 v
    437.64 681 v
    0 0 z
  EndSpiro
233.610351562 640.22265625 m 1
 362.676757812 694.333007812 l 1
 362.610351562 330.75390625 l 1
 118.963867188 228.211914062 l 1
 118.983398438 256.836914062 l 1
 233.612304688 305.690429688 l 1
 233.610351562 640.22265625 l 1
  Spiro
    362.676 694.333 v
    362.61 330.754 v
    118.963 228.212 v
    118.983 256.837 v
    233.612 305.69 v
    233.61 640.223 v
    230.948 550.223 z
  EndSpiro
148.192382812 623.25 m 1
 477.859375 765 l 1
 554.680664062 733.529296875 620.278320312 675.423828125 660.859375 603 c 0
 691.615234375 548.110351562 708.029296875 485.340820312 708.594726562 422.423828125 c 0
 709.159179688 359.506835938 693.869140625 296.827148438 666.859375 240 c 0
 639.146484375 181.6953125 600.126953125 129.026367188 554.359375 83.5 c 0
 525.828125 55.1201171875 494.307617188 29.4951171875 459.268554688 9.7060546875 c 0
 424.229492188 -10.083984375 385.422851562 -23.7138671875 345.359375 -27.5 c 0
 297.965820312 -31.978515625 249.455078125 -22.20703125 207.099609375 -0.4765625 c 0
 164.744140625 21.25390625 128.666992188 54.2265625 100.359375 92.5 c 0
 48.6904296875 162.358398438 21.3505859375 248.715820312 15.958984375 335.438476562 c 0
 10.5673828125 422.161132812 27.8994140625 510.604492188 68.359375 587.5 c 0
 115.169921875 676.466796875 193.706054688 748.533203125 286.859375 786.333007812 c 1
 301.362304688 767.830078125 l 1
 255.739257812 735.838867188 217.774414062 693.123046875 190.859375 644.333007812 c 0
 157.592773438 584.028320312 141.107421875 515.168945312 138.859375 446.333007812 c 0
 137.078125 391.795898438 143.947265625 336.8125 160.896484375 284.944335938 c 0
 177.845703125 233.076171875 205.397460938 184.020507812 244.859375 146.333007812 c 0
 266.662109375 125.509765625 292.07421875 108.32421875 319.974609375 96.900390625 c 0
 347.875976562 85.4765625 378.25 79.9326171875 408.359375 81.5 c 0
 443.477539062 83.328125 477.995117188 94.943359375 507.221679688 114.498046875 c 0
 536.44921875 134.052734375 560.291992188 161.314453125 576.859375 192.333007812 c 0
 606.370117188 247.586914062 612.467773438 313.573242188 600.766601562 375.111328125 c 0
 589.065429688 436.6484375 560.55859375 494.307617188 522.859375 544.333007812 c 0
 480.354492188 600.736328125 426.015625 648.032226562 364.942382812 683.5 c 1
 148.192382812 593.5 l 1
 148.192382812 623.25 l 1
  Spiro
    477.859 765 v
    660.859 603 o
    666.859 240 o
    554.359 83.5 o
    345.359 -27.5 o
    100.358 92.5 o
    68.3585 587.5 o
    286.859 786.333 v
    301.362 767.83 v
    190.859 644.333 o
    138.859 446.333 o
    244.859 146.333 o
    408.359 81.5 o
    576.859 192.333 o
    522.859 544.333 o
    364.942 683.5 v
    148.192 593.5 v
    148.192 623.25 v
    145.5 623.25 z
  EndSpiro
EndSplineSet
Fore
SplineSet
193.098632812 114 m 1
 178.598632812 178.5 l 1
 218.853515625 208.248046875 267.311523438 226.690429688 317.125976562 231.58203125 c 0
 366.940429688 236.47265625 417.692382812 227.7578125 464.098632812 209 c 0
 538.784179688 178.811523438 601.186523438 124.94140625 660.098632812 70 c 0
 684.587890625 47.1611328125 708.620117188 23.8359375 732.34375 0.2021484375 c 1
 773.500976562 32.7822265625 l 1
 793.359375 13 l 1
 642.359375 -106.666992188 l 1
 619.068359375 -78.474609375 595.959960938 -50.1328125 572.598632812 -22 c 0
 548.280273438 7.2861328125 523.653320312 36.4345703125 496.131835938 62.7333984375 c 0
 468.610351562 89.0322265625 437.806640625 112.365234375 403.098632812 128 c 0
 369.680664062 143.053710938 332.748046875 150.672851562 296.161132812 148.486328125 c 0
 259.57421875 146.299804688 223.59375 134.333007812 193.098632812 114 c 1
615.559570312 397.65625 m 1
 628.518554688 372.0859375 l 1
 426.306640625 270.000976562 l 1
 413.389648438 295.586914062 l 1
 615.559570312 397.65625 l 1
616.602539062 503.142578125 m 1
 629.561523438 477.572265625 l 1
 427.349609375 375.487304688 l 1
 414.432617188 401.073242188 l 1
 616.602539062 503.142578125 l 1
437.642578125 171 m 1
 408.9765625 170.954101562 l 1
 408.978515625 681 l 1
 437.640625 681 l 1
 437.642578125 171 l 1
233.610351562 640.22265625 m 1
 362.676757812 694.333007812 l 1
 362.610351562 330.75390625 l 1
 118.963867188 228.211914062 l 1
 118.983398438 256.836914062 l 1
 233.612304688 305.690429688 l 1
 233.610351562 640.22265625 l 1
148.192382812 623.25 m 1
 477.859375 765 l 1
 554.680664062 733.529296875 620.278320312 675.423828125 660.859375 603 c 0
 691.615234375 548.110351562 708.029296875 485.340820312 708.594726562 422.423828125 c 0
 709.159179688 359.506835938 693.869140625 296.827148438 666.859375 240 c 0
 639.146484375 181.6953125 600.126953125 129.026367188 554.359375 83.5 c 0
 525.828125 55.1201171875 494.307617188 29.4951171875 459.268554688 9.7060546875 c 0
 424.229492188 -10.083984375 385.422851562 -23.7138671875 345.359375 -27.5 c 0
 297.965820312 -31.978515625 249.455078125 -22.20703125 207.099609375 -0.4765625 c 0
 164.744140625 21.25390625 128.666992188 54.2265625 100.359375 92.5 c 0
 48.6904296875 162.358398438 21.3505859375 248.715820312 15.958984375 335.438476562 c 0
 10.5673828125 422.161132812 27.8994140625 510.604492188 68.359375 587.5 c 0
 115.169921875 676.466796875 193.706054688 748.533203125 286.859375 786.333007812 c 1
 301.362304688 767.830078125 l 1
 255.739257812 735.838867188 217.774414062 693.123046875 190.859375 644.333007812 c 0
 157.592773438 584.028320312 141.107421875 515.168945312 138.859375 446.333007812 c 0
 137.078125 391.795898438 143.947265625 336.8125 160.896484375 284.944335938 c 0
 177.845703125 233.076171875 205.397460938 184.020507812 244.859375 146.333007812 c 0
 266.662109375 125.509765625 292.07421875 108.32421875 319.974609375 96.900390625 c 0
 347.875976562 85.4765625 378.25 79.9326171875 408.359375 81.5 c 0
 443.477539062 83.328125 477.995117188 94.943359375 507.221679688 114.498046875 c 0
 536.44921875 134.052734375 560.291992188 161.314453125 576.859375 192.333007812 c 0
 606.370117188 247.586914062 612.467773438 313.573242188 600.766601562 375.111328125 c 0
 589.065429688 436.6484375 560.55859375 494.307617188 522.859375 544.333007812 c 0
 480.354492188 600.736328125 426.015625 648.032226562 364.942382812 683.5 c 1
 148.192382812 593.5 l 1
 148.192382812 623.25 l 1
EndSplineSet
EndChar

StartChar: A
Encoding: 65 65 24
Width: 767
VWidth: 0
InSpiro: 1
Flags: HMW
AnchorPoint: "ogonek" 653 80 basechar 0
AnchorPoint: "mark_top" 505 836 basechar 0
LayerCount: 3
Back
SplineSet
63 -10 m 1
 44 -10 l 1
 61.5126953125 37.2353515625 91.9580078125 79.6025390625 131.141601562 111.263671875 c 0
 170.325195312 142.92578125 218.140625 163.796875 268 171 c 0
 335.760742188 180.790039062 406.926757812 164.813476562 464 127 c 1
 547 197 l 1
 576 164 l 1
 394 6.7724609375 l 1
 350.565429688 44.2216796875 293.348632812 65.3076171875 236 65 c 0
 171.408203125 64.654296875 107.40625 36.9072265625 63 -10 c 1
  Spiro
    63 -10 v
    44 -10 v
    268 171 o
    464 127 v
    547 197 v
    576 164 v
    394 6.77273 v
    236 65 o
    -352 -11 z
  EndSpiro
694 754 m 1
 676.625 734.625 l 2
 667.134765625 721.841796875 660.495117188 707.004882812 656.924804688 691.48828125 c 0
 653.354492188 675.97265625 653 659.920898438 653 644 c 2
 653 613 l 1
 653 276.5 l 1
 653 251.669921875 l 2
 653 225.01953125 651.5625 198.018554688 657.333007812 172 c 0
 662.780273438 147.44140625 676.114257812 124.40625 696 109 c 1
 730 136.833007812 l 1
 759 103.833007812 l 1
 626 -3.2275390625 l 1
 606.493164062 9.685546875 587.779296875 23.796875 570 39 c 0
 546.538085938 59.0615234375 524.704101562 81.02734375 504.782226562 104.608398438 c 1
 524 120.173828125 l 1
 524 646 l 1
 600.5 703.333007812 l 1
 672.25 772.083007812 l 1
 694 754 l 1
  Spiro
    676.625 734.625 v
    653 644 [
    653 613 v
    653 276.5 v
    653 251.67 ]
    657.333 172 o
    696 109 v
    730 136.833 v
    759 103.833 v
    626 -3.22727 v
    570 39 o
    504.783 104.609 v
    524 120.174 v
    524 646 v
    600.5 703.333 v
    672.25 772.083 v
    694 754 v
    611.625 753.938 z
  EndSpiro
280 271 m 1
 333 374 l 1
 592 374 l 1
 592 271 l 1
 280 271 l 1
  Spiro
    280 271 v
    333 374 v
    592 374 v
    592 271 v
    0 0 z
  EndSpiro
182.258789062 98.5419921875 m 1
 157.69140625 113.310546875 l 1
 487.5234375 659.9921875 l 1
 512.065429688 645.185546875 l 1
 182.258789062 98.5419921875 l 1
  Spiro
    182.26 98.5417 v
    157.692 113.311 v
    487.525 659.992 v
    512.066 645.185 v
    0 0 z
  EndSpiro
550 609 m 1
 511.546875 645.849609375 459.2421875 668.123046875 406 669.5 c 0
 372.90234375 670.35546875 339.514648438 663.180664062 310.104492188 647.975585938 c 0
 280.694335938 632.770507812 255.44921875 609.440429688 238.5 581 c 0
 215.15234375 541.823242188 208.260742188 493.442382812 218.5 449 c 0
 231.157226562 394.0625 269.607421875 345.77734375 320 320.5 c 1
 313 311 l 1
 277.317382812 321.322265625 244.455078125 341.213867188 218.743164062 368.0234375 c 0
 193.03125 394.83203125 174.55078125 428.473632812 165.5 464.5 c 0
 156.59765625 499.93359375 156.801757812 537.549804688 165.578125 573.014648438 c 0
 174.354492188 608.479492188 191.618164062 641.731445312 215.028320312 669.780273438 c 0
 261.849609375 725.876953125 332.721679688 759.989257812 405.5 766.5 c 0
 492.235351562 774.258789062 581.458007812 743.459960938 646 685 c 1
 550 609 l 1
  Spiro
    550 609 v
    406 669.5 o
    238.5 581 o
    218.5 449 o
    320 320.5 v
    313 311 v
    165.5 464.5 o
    405.5 766.5 o
    646 685 v
    149.5 615.5 z
  EndSpiro
EndSplineSet
Fore
SplineSet
63 -10 m 1
 44 -10 l 1
 61.5126953125 37.2353515625 91.9580078125 79.6025390625 131.141601562 111.263671875 c 0
 170.325195312 142.92578125 218.140625 163.796875 268 171 c 0
 335.760742188 180.790039062 406.926757812 164.813476562 464 127 c 1
 547 197 l 1
 576 164 l 1
 394 6.7724609375 l 1
 350.565429688 44.2216796875 293.348632812 65.3076171875 236 65 c 0
 171.408203125 64.654296875 107.40625 36.9072265625 63 -10 c 1
694 754 m 1
 676.625 734.625 l 1
 667.134765625 721.841796875 660.495117188 707.004882812 656.924804688 691.48828125 c 0
 653.354492188 675.97265625 653 659.920898438 653 644 c 2
 653 613 l 1
 653 276.5 l 1
 653 251.669921875 l 2
 653 225.01953125 651.5625 198.018554688 657.333007812 172 c 0
 662.780273438 147.44140625 676.114257812 124.40625 696 109 c 1
 730 136.833007812 l 1
 759 103.833007812 l 1
 626 -3.2275390625 l 1
 606.493164062 9.685546875 587.779296875 23.796875 570 39 c 0
 546.538085938 59.0615234375 524.704101562 81.02734375 504.782226562 104.608398438 c 1
 524 120.173828125 l 1
 524 646 l 1
 600.5 703.333007812 l 1
 672.25 772.083007812 l 1
 694 754 l 1
280 271 m 1
 333 374 l 1
 592 374 l 1
 592 271 l 1
 280 271 l 1
182.258789062 98.5419921875 m 1
 157.69140625 113.310546875 l 1
 487.5234375 659.9921875 l 1
 512.065429688 645.185546875 l 1
 182.258789062 98.5419921875 l 1
550 609 m 1
 511.546875 645.849609375 459.2421875 668.123046875 406 669.5 c 0
 372.90234375 670.35546875 339.514648438 663.180664062 310.104492188 647.975585938 c 0
 280.694335938 632.770507812 255.44921875 609.440429688 238.5 581 c 0
 215.15234375 541.823242188 208.260742188 493.442382812 218.5 449 c 0
 231.157226562 394.0625 269.607421875 345.77734375 320 320.5 c 1
 313 311 l 1
 277.317382812 321.322265625 244.455078125 341.213867188 218.743164062 368.0234375 c 0
 193.03125 394.83203125 174.55078125 428.473632812 165.5 464.5 c 0
 156.59765625 499.93359375 156.801757812 537.549804688 165.578125 573.014648438 c 0
 174.354492188 608.479492188 191.618164062 641.731445312 215.028320312 669.780273438 c 0
 261.849609375 725.876953125 332.721679688 759.989257812 405.5 766.5 c 0
 492.235351562 774.258789062 581.458007812 743.459960938 646 685 c 1
 550 609 l 1
EndSplineSet
EndChar

StartChar: A.2
Encoding: 65539 -1 25
Width: 745
VWidth: 0
InSpiro: 1
Flags: HMW
LayerCount: 3
Back
SplineSet
34 -10 m 1
 15 -10 l 1
 32.5126953125 37.2353515625 62.9580078125 79.6025390625 102.141601562 111.263671875 c 0
 141.325195312 142.92578125 189.140625 163.796875 239 171 c 0
 306.760742188 180.790039062 377.926757812 164.813476562 435 127 c 1
 518 197 l 1
 547 164 l 1
 365 6.7724609375 l 1
 321.565429688 44.2216796875 264.348632812 65.3076171875 207 65 c 0
 142.408203125 64.654296875 78.40625 36.9072265625 34 -10 c 1
  Spiro
    34 -10 v
    15 -10 v
    239 171 o
    435 127 v
    518 197 v
    547 164 v
    365 6.77273 v
    207 65 o
    -352 -11 z
  EndSpiro
647.625 734.625 m 2
 638.134765625 721.841796875 631.495117188 707.004882812 627.924804688 691.48828125 c 0
 624.354492188 675.97265625 624 659.920898438 624 644 c 2
 624 613 l 1
 624 276.5 l 1
 624 251.669921875 l 2
 624 225.01953125 622.5625 198.018554688 628.333007812 172 c 0
 633.780273438 147.44140625 647.114257812 124.40625 667 109 c 1
 701 136.833007812 l 1
 730 103.833007812 l 1
 597 6.7724609375 l 1
 575.22265625 19.810546875 554.61328125 34.798828125 535.5 51.5 c 0
 521.112304688 64.0712890625 507.571289062 77.6123046875 495 92 c 1
 495 646 l 1
 571.5 703.333007812 l 1
 643.25 772.083007812 l 1
 665 754 l 1
 647.625 734.625 l 2
  Spiro
    647.625 734.625 v
    624 644 [
    624 613 v
    624 276.5 v
    624 251.67 ]
    628.333 172 o
    667 109 v
    701 136.833 v
    730 103.833 v
    597 6.77273 v
    535.5 51.5 o
    495 92 v
    495 646 v
    571.5 703.333 v
    643.25 772.083 v
    665 754 v
    261 754 z
  EndSpiro
251 271 m 1
 304 374 l 1
 563 374 l 1
 563 271 l 1
 251 271 l 1
  Spiro
    251 271 v
    304 374 v
    563 374 v
    563 271 v
    0 0 z
  EndSpiro
153.258789062 98.5419921875 m 1
 128.69140625 113.310546875 l 1
 458.5234375 659.9921875 l 1
 483.065429688 645.185546875 l 1
 153.258789062 98.5419921875 l 1
  Spiro
    153.26 98.5417 v
    128.692 113.311 v
    458.525 659.992 v
    483.066 645.185 v
    0 0 z
  EndSpiro
521 609 m 1
 482.546875 645.849609375 430.2421875 668.123046875 377 669.5 c 0
 343.90234375 670.35546875 310.514648438 663.180664062 281.104492188 647.975585938 c 0
 251.694335938 632.770507812 226.44921875 609.440429688 209.5 581 c 0
 186.15234375 541.823242188 179.260742188 493.442382812 189.5 449 c 0
 202.157226562 394.0625 240.607421875 345.77734375 291 320.5 c 1
 284 311 l 1
 248.317382812 321.322265625 215.455078125 341.213867188 189.743164062 368.0234375 c 0
 164.03125 394.83203125 145.55078125 428.473632812 136.5 464.5 c 0
 127.59765625 499.93359375 127.801757812 537.549804688 136.578125 573.014648438 c 0
 145.354492188 608.479492188 162.618164062 641.731445312 186.028320312 669.780273438 c 0
 232.849609375 725.876953125 303.721679688 759.989257812 376.5 766.5 c 0
 463.235351562 774.258789062 552.458007812 743.459960938 617 685 c 1
 521 609 l 1
  Spiro
    521 609 v
    377 669.5 o
    209.5 581 o
    189.5 449 o
    291 320.5 v
    284 311 v
    136.5 464.5 o
    376.5 766.5 o
    617 685 v
    149.5 615.5 z
  EndSpiro
EndSplineSet
Fore
SplineSet
34 -10 m 1
 15 -10 l 1
 32.5126953125 37.2353515625 62.9580078125 79.6025390625 102.141601562 111.263671875 c 0
 141.325195312 142.92578125 189.140625 163.796875 239 171 c 0
 306.760742188 180.790039062 377.926757812 164.813476562 435 127 c 1
 518 197 l 1
 547 164 l 1
 365 6.7724609375 l 1
 321.565429688 44.2216796875 264.348632812 65.3076171875 207 65 c 0
 142.408203125 64.654296875 78.40625 36.9072265625 34 -10 c 1
647.625 734.625 m 1
 638.134765625 721.841796875 631.495117188 707.004882812 627.924804688 691.48828125 c 0
 624.354492188 675.97265625 624 659.920898438 624 644 c 2
 624 613 l 1
 624 276.5 l 1
 624 251.669921875 l 2
 624 225.01953125 622.5625 198.018554688 628.333007812 172 c 0
 633.780273438 147.44140625 647.114257812 124.40625 667 109 c 1
 701 136.833007812 l 1
 730 103.833007812 l 1
 597 6.7724609375 l 1
 575.22265625 19.810546875 554.61328125 34.798828125 535.5 51.5 c 0
 521.112304688 64.0712890625 507.571289062 77.6123046875 495 92 c 1
 495 646 l 1
 571.5 703.333007812 l 1
 643.25 772.083007812 l 1
 665 754 l 1
 647.625 734.625 l 1
251 271 m 1
 304 374 l 1
 563 374 l 1
 563 271 l 1
 251 271 l 1
153.258789062 98.5419921875 m 1
 128.69140625 113.310546875 l 1
 458.5234375 659.9921875 l 1
 483.065429688 645.185546875 l 1
 153.258789062 98.5419921875 l 1
521 609 m 1
 482.546875 645.849609375 430.2421875 668.123046875 377 669.5 c 0
 343.90234375 670.35546875 310.514648438 663.180664062 281.104492188 647.975585938 c 0
 251.694335938 632.770507812 226.44921875 609.440429688 209.5 581 c 0
 186.15234375 541.823242188 179.260742188 493.442382812 189.5 449 c 0
 202.157226562 394.0625 240.607421875 345.77734375 291 320.5 c 1
 284 311 l 1
 248.317382812 321.322265625 215.455078125 341.213867188 189.743164062 368.0234375 c 0
 164.03125 394.83203125 145.55078125 428.473632812 136.5 464.5 c 0
 127.59765625 499.93359375 127.801757812 537.549804688 136.578125 573.014648438 c 0
 145.354492188 608.479492188 162.618164062 641.731445312 186.028320312 669.780273438 c 0
 232.849609375 725.876953125 303.721679688 759.989257812 376.5 766.5 c 0
 463.235351562 774.258789062 552.458007812 743.459960938 617 685 c 1
 521 609 l 1
EndSplineSet
EndChar

StartChar: W
Encoding: 87 87 26
Width: 1001
VWidth: 0
InSpiro: 1
Flags: HMW
AnchorPoint: "mark_top" 594 844 basechar 0
LayerCount: 3
Back
SplineSet
957.791992188 692.099609375 m 1
 957.791992188 187.93359375 l 1
 687.973632812 -14.181640625 l 1
 512.791992188 105 l 1
 512.791992188 631.75 l 1
 448.15625 685.436523438 l 1
 395.387695312 645.875 l 1
 395.387695312 673.875 l 1
 543.887695312 785 l 1
 641.791992188 692.25 l 1
 641.791992188 180 l 1
 769.973632812 93.818359375 l 1
 828.791992188 136.333007812 l 1
 828.791992188 631 l 1
 764.15625 684.686523438 l 1
 711.387695312 645.125 l 1
 711.387695312 673.125 l 1
 859.887695312 784.25 l 1
 957.791992188 692.099609375 l 1
  Spiro
    957.793 187.934 v
    687.974 -14.1818 v
    512.793 105 v
    512.793 631.75 v
    448.157 685.436 v
    395.388 645.875 v
    395.388 673.875 v
    543.888 785 v
    641.793 692.25 v
    641.793 180 v
    769.974 93.8182 v
    828.793 136.333 v
    828.793 631 v
    764.157 684.686 v
    711.388 645.125 v
    711.388 673.125 v
    859.888 784.25 v
    957.793 692.1 v
    0 0 z
  EndSpiro
900.711914062 427.71875 m 1
 913.670898438 402.1484375 l 1
 711.458984375 300.063476562 l 1
 698.541992188 325.649414062 l 1
 900.711914062 427.71875 l 1
  Spiro
    900.712 427.717 v
    913.672 402.149 v
    711.46 300.062 v
    698.543 325.649 v
    0 0 z
  EndSpiro
901.754882812 533.205078125 m 1
 914.713867188 507.634765625 l 1
 712.501953125 405.549804688 l 1
 699.584960938 431.135742188 l 1
 901.754882812 533.205078125 l 1
  Spiro
    901.755 533.205 v
    914.715 507.635 v
    712.503 405.55 v
    699.585 431.135 v
    0 0 z
  EndSpiro
722.793945312 132.633789062 m 1
 694.12890625 132.587890625 l 1
 694.129882812 771.0625 l 1
 722.791992188 771.0625 l 1
 722.793945312 132.633789062 l 1
  Spiro
    722.795 132.634 v
    694.129 132.588 v
    694.131 771.062 v
    722.793 771.062 v
    0 0 z
  EndSpiro
585.711914062 427.71875 m 1
 598.670898438 402.1484375 l 1
 396.458984375 300.063476562 l 1
 383.541992188 325.649414062 l 1
 585.711914062 427.71875 l 1
  Spiro
    585.712 427.717 v
    598.672 402.149 v
    396.46 300.062 v
    383.543 325.649 v
    0 0 z
  EndSpiro
586.754882812 533.205078125 m 1
 599.713867188 507.634765625 l 1
 397.501953125 405.549804688 l 1
 384.584960938 431.135742188 l 1
 586.754882812 533.205078125 l 1
  Spiro
    586.755 533.205 v
    599.715 507.635 v
    397.503 405.55 v
    384.585 431.135 v
    0 0 z
  EndSpiro
407.793945312 132.633789062 m 1
 379.12890625 132.587890625 l 1
 379.129882812 771.0625 l 1
 407.791992188 771.0625 l 1
 407.793945312 132.633789062 l 1
  Spiro
    407.795 132.634 v
    379.129 132.588 v
    379.131 771.062 v
    407.793 771.062 v
    0 0 z
  EndSpiro
194.708984375 640.940429688 m 2
 194.72265625 648.948242188 194.642578125 657.013671875 193.065429688 664.865234375 c 0
 191.489257812 672.716796875 188.405273438 680.317382812 183.625 686.743164062 c 0
 178.845703125 693.16796875 172.4140625 698.354492188 165.116210938 701.65234375 c 0
 157.818359375 704.950195312 149.705078125 706.37109375 141.708984375 705.940429688 c 0
 129.030273438 705.2578125 116.713867188 699.93359375 107.2578125 691.461914062 c 0
 97.80078125 682.989257812 91.205078125 671.388671875 88.708984375 658.940429688 c 1
 63.708984375 658.940429688 l 1
 62.1630859375 676.66015625 65.3271484375 694.756835938 72.708984375 710.940429688 c 0
 84.732421875 737.302734375 107.81640625 757.890625 134.461914062 769.2734375 c 0
 161.107421875 780.657226562 191.110351562 783.6015625 219.708984375 778.940429688 c 0
 242.213867188 775.272460938 264.0703125 766.70703125 282.28125 752.984375 c 0
 300.491210938 739.26171875 314.604492188 720.25390625 322.708984375 698.940429688 c 0
 330.600585938 678.1875 332.940429688 655.741210938 333.514648438 633.545898438 c 0
 334.088867188 611.350585938 333.497070312 589.142578125 333.497070312 566.940429688 c 2
 333.5 509.940429688 l 1
 333.5 142.31640625 l 1
 194.491210938 129.375 l 1
 194.487304688 516.940429688 l 1
 194.708984375 640.940429688 l 2
  Spiro
    194.709 640.94 ]
    141.709 705.94 o
    88.709 658.94 v
    63.709 658.94 v
    72.709 710.94 o
    219.709 778.94 o
    322.709 698.94 o
    333.498 566.94 [
    333.5 509.94 v
    333.5 142.316 v
    194.492 129.375 v
    194.488 516.94 v
    141.821 640.94 z
  EndSpiro
68 12.9453125 m 1
 49 12.9453125 l 1
 84.6455078125 94.9619140625 163.747070312 156.549804688 252 171 c 0
 319.723632812 182.088867188 391.513671875 165.97265625 448 127 c 1
 531 197 l 1
 574 149.9453125 l 1
 382 -7.28125 l 1
 340.327148438 36.841796875 280.671875 63.458984375 220 65 c 0
 165.317382812 66.3896484375 110.349609375 47.564453125 68 12.9453125 c 1
  Spiro
    67.9998 12.9456 v
    48.9998 12.9456 v
    252 171 o
    448 127 v
    531 197 v
    574 149.946 v
    382 -7.2817 v
    220 65 o
    -352 -11 z
  EndSpiro
78.328125 301.10546875 m 1
 64.2666015625 326.358398438 59.44140625 356.796875 65.8037109375 384.991210938 c 0
 69.212890625 400.100585938 75.865234375 414.51953125 85.5107421875 426.639648438 c 0
 95.15625 438.759765625 107.784179688 448.405273438 121.803710938 454.991210938 c 0
 146.194335938 466.448242188 173.677734375 468.836914062 200.303710938 472.991210938 c 0
 207.641601562 474.135742188 214.96484375 475.376953125 222.265625 476.741210938 c 1
 230.561523438 358.9453125 l 1
 154.735351562 358.944335938 l 2
 148.607421875 358.944335938 142.447265625 358.879882812 136.40625 357.846679688 c 0
 130.365234375 356.814453125 124.463867188 354.81640625 119.193359375 351.688476562 c 0
 108.653320312 345.432617188 101.05078125 334.647460938 98.1103515625 322.748046875 c 0
 96.3662109375 315.689453125 96.154296875 308.259765625 97.453125 301.10546875 c 1
 78.328125 301.10546875 l 1
  Spiro
    65.8038 384.991 o
    121.804 454.991 o
    200.304 472.991 o
    222.266 476.741 v
    230.562 358.946 v
    154.736 358.944 ]
    98.1108 322.748 o
    97.4533 301.106 v
    78.3283 301.106 v
    24.8781 284.5 z
  EndSpiro
EndSplineSet
Fore
SplineSet
957.791992188 692.099609375 m 1
 957.791992188 187.93359375 l 1
 687.973632812 -14.181640625 l 1
 512.791992188 105 l 1
 512.791992188 631.75 l 1
 448.15625 685.436523438 l 1
 395.387695312 645.875 l 1
 395.387695312 673.875 l 1
 543.887695312 785 l 1
 641.791992188 692.25 l 1
 641.791992188 180 l 1
 769.973632812 93.818359375 l 1
 828.791992188 136.333007812 l 1
 828.791992188 631 l 1
 764.15625 684.686523438 l 1
 711.387695312 645.125 l 1
 711.387695312 673.125 l 1
 859.887695312 784.25 l 1
 957.791992188 692.099609375 l 1
900.711914062 427.71875 m 1
 913.670898438 402.1484375 l 1
 711.458984375 300.063476562 l 1
 698.541992188 325.649414062 l 1
 900.711914062 427.71875 l 1
901.754882812 533.205078125 m 1
 914.713867188 507.634765625 l 1
 712.501953125 405.549804688 l 1
 699.584960938 431.135742188 l 1
 901.754882812 533.205078125 l 1
722.793945312 132.633789062 m 1
 694.12890625 132.587890625 l 1
 694.129882812 771.0625 l 1
 722.791992188 771.0625 l 1
 722.793945312 132.633789062 l 1
585.711914062 427.71875 m 1
 598.670898438 402.1484375 l 1
 396.458984375 300.063476562 l 1
 383.541992188 325.649414062 l 1
 585.711914062 427.71875 l 1
586.754882812 533.205078125 m 1
 599.713867188 507.634765625 l 1
 397.501953125 405.549804688 l 1
 384.584960938 431.135742188 l 1
 586.754882812 533.205078125 l 1
407.793945312 132.633789062 m 1
 379.12890625 132.587890625 l 1
 379.129882812 771.0625 l 1
 407.791992188 771.0625 l 1
 407.793945312 132.633789062 l 1
194.708984375 640.940429688 m 2
 194.72265625 648.948242188 194.642578125 657.013671875 193.065429688 664.865234375 c 0
 191.489257812 672.716796875 188.405273438 680.317382812 183.625 686.743164062 c 0
 178.845703125 693.16796875 172.4140625 698.354492188 165.116210938 701.65234375 c 0
 157.818359375 704.950195312 149.705078125 706.37109375 141.708984375 705.940429688 c 0
 129.030273438 705.2578125 116.713867188 699.93359375 107.2578125 691.461914062 c 0
 97.80078125 682.989257812 91.205078125 671.388671875 88.708984375 658.940429688 c 1
 63.708984375 658.940429688 l 1
 62.1630859375 676.66015625 65.3271484375 694.756835938 72.708984375 710.940429688 c 0
 84.732421875 737.302734375 107.81640625 757.890625 134.461914062 769.2734375 c 0
 161.107421875 780.657226562 191.110351562 783.6015625 219.708984375 778.940429688 c 0
 242.213867188 775.272460938 264.0703125 766.70703125 282.28125 752.984375 c 0
 300.491210938 739.26171875 314.604492188 720.25390625 322.708984375 698.940429688 c 0
 330.600585938 678.1875 332.940429688 655.741210938 333.514648438 633.545898438 c 0
 334.088867188 611.350585938 333.497070312 589.142578125 333.497070312 566.940429688 c 2
 333.5 509.940429688 l 1
 333.5 142.31640625 l 1
 194.491210938 129.375 l 1
 194.487304688 516.940429688 l 1
 194.708984375 640.940429688 l 2
68 12.9453125 m 1
 49 12.9453125 l 1
 84.6455078125 94.9619140625 163.747070312 156.549804688 252 171 c 0
 319.723632812 182.088867188 391.513671875 165.97265625 448 127 c 1
 531 197 l 1
 574 149.9453125 l 1
 382 -7.28125 l 1
 340.327148438 36.841796875 280.671875 63.458984375 220 65 c 0
 165.317382812 66.3896484375 110.349609375 47.564453125 68 12.9453125 c 1
78.328125 301.10546875 m 1
 64.2666015625 326.358398438 59.44140625 356.796875 65.8037109375 384.991210938 c 0
 69.212890625 400.100585938 75.865234375 414.51953125 85.5107421875 426.639648438 c 0
 95.15625 438.759765625 107.784179688 448.405273438 121.803710938 454.991210938 c 0
 146.194335938 466.448242188 173.677734375 468.836914062 200.303710938 472.991210938 c 0
 207.641601562 474.135742188 214.96484375 475.376953125 222.265625 476.741210938 c 1
 230.561523438 358.9453125 l 1
 154.735351562 358.944335938 l 2
 148.607421875 358.944335938 142.447265625 358.879882812 136.40625 357.846679688 c 0
 130.365234375 356.814453125 124.463867188 354.81640625 119.193359375 351.688476562 c 0
 108.653320312 345.432617188 101.05078125 334.647460938 98.1103515625 322.748046875 c 0
 96.3662109375 315.689453125 96.154296875 308.259765625 97.453125 301.10546875 c 1
 78.328125 301.10546875 l 1
EndSplineSet
EndChar

StartChar: l
Encoding: 108 108 27
Width: 287
VWidth: 0
InSpiro: 1
Flags: HMW
AnchorPoint: "middledot" 340 375 basechar 0
AnchorPoint: "cedilla" 100 116 basechar 0
AnchorPoint: "mark_top" 160 816 basechar 0
LayerCount: 3
Back
SplineSet
216.326171875 119.6328125 m 1
 254.673828125 81.2861328125 l 1
 283.435546875 105.252929688 l 1
 297.815429688 86.0791015625 l 1
 173.185546875 -0.203125 l 1
 67.728515625 90.8720703125 l 1
 29.380859375 66.9052734375 l 1
 15 86.0791015625 l 1
 82.109375 129.220703125 l 1
 82.109375 584.600585938 l 2
 82.109375 589.59765625 82.0244140625 594.6328125 80.97265625 599.517578125 c 0
 79.919921875 604.403320312 77.9130859375 609.088867188 75.021484375 613.1640625 c 0
 70.521484375 619.504882812 64.0712890625 624.229492188 57.232421875 627.930664062 c 0
 49.921875 631.88671875 42.12890625 634.909179688 34.17578125 637.330078125 c 1
 34.173828125 651.709960938 l 1
 197.15234375 766.752929688 l 1
 216.326171875 766.752929688 l 1
 216.326171875 119.6328125 l 1
  Spiro
    216.326 119.633 v
    254.674 81.2861 v
    283.435 105.253 v
    297.815 86.0791 v
    173.185 -0.203125 v
    67.7285 90.8721 v
    29.3809 66.9053 v
    15 86.0791 v
    82.1094 129.221 v
    82.1094 584.601 ]
    75.0212 613.164 o
    57.2326 627.93 o
    34.1762 637.33 v
    34.1739 651.71 v
    197.152 766.753 v
    216.326 766.753 v
    206 119.633 z
  EndSpiro
EndSplineSet
Fore
SplineSet
216.326171875 119.6328125 m 1
 254.673828125 81.2861328125 l 1
 283.435546875 105.252929688 l 1
 297.815429688 86.0791015625 l 1
 173.185546875 -0.203125 l 1
 67.728515625 90.8720703125 l 1
 29.380859375 66.9052734375 l 1
 15 86.0791015625 l 1
 82.109375 129.220703125 l 1
 82.109375 584.600585938 l 2
 82.109375 589.59765625 82.0244140625 594.6328125 80.97265625 599.517578125 c 0
 79.919921875 604.403320312 77.9130859375 609.088867188 75.021484375 613.1640625 c 0
 70.521484375 619.504882812 64.0712890625 624.229492188 57.232421875 627.930664062 c 0
 49.921875 631.88671875 42.12890625 634.909179688 34.17578125 637.330078125 c 1
 34.173828125 651.709960938 l 1
 197.15234375 766.752929688 l 1
 216.326171875 766.752929688 l 1
 216.326171875 119.6328125 l 1
EndSplineSet
EndChar

StartChar: X
Encoding: 88 88 28
Width: 736
VWidth: 0
InSpiro: 1
Flags: HMW
LayerCount: 3
Back
SplineSet
707 107 m 1
 715.5 93 l 1
 557.5 -9 l 1
 258 555 l 2
 242.454618583 584.274107242 227.049091213 613.683265283 209.417 641.75 c 0
 204.009507965 650.35763721 197.92247366 658.700277233 190.046947865 665.12744472 c 0
 182.171422071 671.554612207 172.330344316 675.802970187 162.167 676 c 0
 155.324298846 676.132654772 148.484038761 674.477557474 142.349063731 671.444038437 c 0
 136.214088702 668.410519399 130.778038223 664.057517462 126.167 659 c 0
 115.863253582 647.698558781 109.437311924 633.097989087 107 618 c 1
 48 618 l 1
 56.5355474696 667.989973226 88.0461761143 713.703471393 132 739 c 0
 154.231853186 751.794989386 179.440349894 759.444164774 205.051049454 760.87912733 c 0
 230.661749014 762.314089885 256.585832729 757.475868484 280 747 c 0
 308.32817442 734.325527055 332.610875039 713.463545435 351.285071882 688.676409605 c 0
 369.959268725 663.889273775 382.992557617 635.402317078 395.5 607 c 2
 491.5 389 l 2
 539.052877424 281.01534085 593.518419087 174.847262307 670 85 c 1
 707 107 l 1
  Spiro
    707 107 v
    715.5 93 v
    557.5 -9 v
    258 555 ]
    209.417 641.75 o
    162.167 676 o
    126.167 659 o
    107 618 v
    48 618 v
    132 739 o
    280 747 o
    395.5 607 [
    491.5 389 ]
    670 85 v
    611.333 130 z
  EndSpiro
89.1669921875 373 m 1
 186.318359375 480 l 1
 665.318359375 480 l 1
 568.166992188 373 l 1
 89.1669921875 373 l 1
  Spiro
    89.1669 373 v
    186.319 480 v
    665.319 480 v
    568.167 373 v
    0 0 z
  EndSpiro
189.694335938 122.546875 m 1
 166.685546875 139.642578125 l 1
 548.284179688 651.533203125 l 1
 571.264648438 634.40234375 l 1
 189.694335938 122.546875 l 1
  Spiro
    189.696 122.546 v
    166.686 139.642 v
    548.285 651.533 v
    571.265 634.402 v
    0 0 z
  EndSpiro
407.038085938 107.143554688 m 1
 440.573242188 145.474609375 l 1
 454.953125 131.09375 l 1
 326.0546875 -12.5068359375 l 1
 300.24609375 12.484375 269.590820312 33.5634765625 234.953125 43.09375 c 0
 217.720703125 47.833984375 199.138671875 49.189453125 182.059570312 43.9228515625 c 0
 173.51953125 41.2890625 165.458984375 36.9912109375 158.74609375 31.091796875 c 0
 152.034179688 25.193359375 146.711914062 17.689453125 143.543945312 9.3330078125 c 0
 138.306640625 -4.4794921875 139.270507812 -20.4541015625 145.876953125 -33.6669921875 c 0
 151.2734375 -44.458984375 160.262695312 -53.39453125 171.028320312 -58.84375 c 0
 181.793945312 -64.2919921875 194.295898438 -66.2373046875 206.2109375 -64.3330078125 c 1
 201.543945312 -83 l 1
 179.935546875 -86.2421875 157.530273438 -84.0419921875 136.969726562 -76.6455078125 c 0
 116.409179688 -69.2490234375 97.72265625 -56.66796875 83.2109375 -40.3330078125 c 0
 63.01953125 -17.607421875 51.193359375 12.49609375 51.025390625 42.8955078125 c 0
 50.8564453125 73.2939453125 62.4755859375 103.5 82.5439453125 126.333007812 c 0
 100.943359375 147.268554688 125.955078125 161.905273438 152.705078125 169.733398438 c 0
 179.454101562 177.5625 207.837890625 178.905273438 235.556640625 175.985351562 c 0
 297.479492188 169.463867188 356.538085938 143.567382812 407.038085938 107.143554688 c 1
  Spiro
    407.038 107.143 v
    440.574 145.475 v
    454.953 131.093 v
    326.054 -12.5065 v
    234.953 43.0934 o
    143.544 9.3333 o
    145.877 -33.6667 o
    206.211 -64.3333 v
    201.544 -83 v
    83.2101 -40.3333 o
    82.5435 126.333 o
    235.556 175.986 o
    0 0 z
  EndSpiro
416.666992188 654 m 1
 373.666992188 620 l 1
 359.288085938 634.380859375 l 1
 508.5 761.333007812 l 1
 528.166992188 761 l 1
 534.71484375 752.254882812 542.611328125 744.518554688 551.5 738.166992188 c 0
 571.9921875 723.525390625 598.124023438 716.481445312 623 720.416992188 c 0
 648.512695312 724.454101562 671.95703125 740.39453125 684.750976562 762.833984375 c 1
 698.416992188 762.5 l 1
 703.688476562 719.557617188 689.447265625 674.517578125 660.166992188 642.666992188 c 0
 633.53125 613.693359375 594.685546875 596.477539062 555.333984375 595.833007812 c 0
 530.778320312 595.430664062 506.3125 600.995117188 483.666992188 610.5 c 0
 458.989257812 620.858398438 436.278320312 635.788085938 416.666992188 654 c 1
  Spiro
    416.667 654 v
    373.667 620 v
    359.288 634.381 v
    508.5 761.333 v
    528.167 761 v
    551.5 738.167 o
    623 720.417 o
    684.751 762.834 v
    698.417 762.5 v
    660.167 642.667 o
    555.334 595.833 o
    483.667 610.5 o
    436.333 632.333 z
  EndSpiro
EndSplineSet
Fore
SplineSet
707 107 m 1
 715.5 93 l 1
 557.5 -9 l 1
 258 555 l 2
 242.454618583 584.274107242 227.049091213 613.683265283 209.417 641.75 c 0
 204.009507965 650.35763721 197.92247366 658.700277233 190.046947865 665.12744472 c 0
 182.171422071 671.554612207 172.330344316 675.802970187 162.167 676 c 0
 155.324298846 676.132654772 148.484038761 674.477557474 142.349063731 671.444038437 c 0
 136.214088702 668.410519399 130.778038223 664.057517462 126.167 659 c 0
 115.863253582 647.698558781 109.437311924 633.097989087 107 618 c 1
 48 618 l 1
 56.5355474696 667.989973226 88.0461761143 713.703471393 132 739 c 0
 154.231853186 751.794989386 179.440349894 759.444164774 205.051049454 760.87912733 c 0
 230.661749014 762.314089885 256.585832729 757.475868484 280 747 c 0
 308.32817442 734.325527055 332.610875039 713.463545435 351.285071882 688.676409605 c 0
 369.959268725 663.889273775 382.992557617 635.402317078 395.5 607 c 2
 491.5 389 l 2
 539.052877424 281.01534085 593.518419087 174.847262307 670 85 c 1
 707 107 l 1
89.1669921875 373 m 1
 186.318359375 480 l 1
 665.318359375 480 l 1
 568.166992188 373 l 1
 89.1669921875 373 l 1
189.694335938 122.546875 m 1
 166.685546875 139.642578125 l 1
 548.284179688 651.533203125 l 1
 571.264648438 634.40234375 l 1
 189.694335938 122.546875 l 1
407.038085938 107.143554688 m 1
 440.573242188 145.474609375 l 1
 454.953125 131.09375 l 1
 326.0546875 -12.5068359375 l 1
 300.24609375 12.484375 269.590820312 33.5634765625 234.953125 43.09375 c 0
 217.720703125 47.833984375 199.138671875 49.189453125 182.059570312 43.9228515625 c 0
 173.51953125 41.2890625 165.458984375 36.9912109375 158.74609375 31.091796875 c 0
 152.034179688 25.193359375 146.711914062 17.689453125 143.543945312 9.3330078125 c 0
 138.306640625 -4.4794921875 139.270507812 -20.4541015625 145.876953125 -33.6669921875 c 0
 151.2734375 -44.458984375 160.262695312 -53.39453125 171.028320312 -58.84375 c 0
 181.793945312 -64.2919921875 194.295898438 -66.2373046875 206.2109375 -64.3330078125 c 1
 201.543945312 -83 l 1
 179.935546875 -86.2421875 157.530273438 -84.0419921875 136.969726562 -76.6455078125 c 0
 116.409179688 -69.2490234375 97.72265625 -56.66796875 83.2109375 -40.3330078125 c 0
 63.01953125 -17.607421875 51.193359375 12.49609375 51.025390625 42.8955078125 c 0
 50.8564453125 73.2939453125 62.4755859375 103.5 82.5439453125 126.333007812 c 0
 100.943359375 147.268554688 125.955078125 161.905273438 152.705078125 169.733398438 c 0
 179.454101562 177.5625 207.837890625 178.905273438 235.556640625 175.985351562 c 0
 297.479492188 169.463867188 356.538085938 143.567382812 407.038085938 107.143554688 c 1
416.666992188 654 m 1
 373.666992188 620 l 1
 359.288085938 634.380859375 l 1
 508.5 761.333007812 l 1
 528.166992188 761 l 1
 534.71484375 752.254882812 542.611328125 744.518554688 551.5 738.166992188 c 0
 571.9921875 723.525390625 598.124023438 716.481445312 623 720.416992188 c 0
 648.512695312 724.454101562 671.95703125 740.39453125 684.750976562 762.833984375 c 1
 698.416992188 762.5 l 1
 703.688476562 719.557617188 689.447265625 674.517578125 660.166992188 642.666992188 c 0
 633.53125 613.693359375 594.685546875 596.477539062 555.333984375 595.833007812 c 0
 530.778320312 595.430664062 506.3125 600.995117188 483.666992188 610.5 c 0
 458.989257812 620.858398438 436.278320312 635.788085938 416.666992188 654 c 1
EndSplineSet
EndChar

StartChar: d
Encoding: 100 100 29
Width: 475
VWidth: 0
InSpiro: 1
Flags: HMW
AnchorPoint: "mark_top" 267.588 680 basechar 0
LayerCount: 3
Back
SplineSet
402.051757812 390.538085938 m 1
 384.415039062 412.28515625 l 1
 443.702148438 460.366210938 l 1
 461.338867188 438.618164062 l 1
 402.051757812 390.538085938 l 1
  Spiro
    402.05 390.536 v
    384.414 412.283 v
    443.701 460.364 v
    461.338 438.616 v
    0 0 z
  EndSpiro
61.849609375 733.84375 m 1
 418.588867188 419.97265625 l 1
 418.088867188 120.5 l 1
 198.838867188 -9 l 1
 54.58984375 89.91796875 l 1
 54.587890625 397.333984375 l 1
 183.588867188 476.66796875 l 1
 183.588867188 142.375 l 1
 289.590820312 68.6611328125 l 1
 289.588867188 369.166992188 l 1
 82.255859375 557.974609375 l 1
 61.8388671875 554.5 l 1
 61.849609375 733.84375 l 1
  Spiro
    61.8491 733.843 v
    418.588 419.973 v
    418.088 120.5 v
    198.838 -9 v
    54.5892 89.918 v
    54.5872 397.334 v
    183.588 476.668 v
    183.588 142.375 v
    289.59 68.6611 v
    289.588 369.167 v
    82.255 557.974 v
    61.8382 554.5 v
    0 0 z
  EndSpiro
EndSplineSet
Fore
SplineSet
402.051757812 390.538085938 m 1
 384.415039062 412.28515625 l 1
 443.702148438 460.366210938 l 1
 461.338867188 438.618164062 l 1
 402.051757812 390.538085938 l 1
61.849609375 733.84375 m 1
 418.588867188 419.97265625 l 1
 418.088867188 120.5 l 1
 198.838867188 -9 l 1
 54.58984375 89.91796875 l 1
 54.587890625 397.333984375 l 1
 183.588867188 476.66796875 l 1
 183.588867188 142.375 l 1
 289.590820312 68.6611328125 l 1
 289.588867188 369.166992188 l 1
 82.255859375 557.974609375 l 1
 61.8388671875 554.5 l 1
 61.849609375 733.84375 l 1
EndSplineSet
EndChar

StartChar: S
Encoding: 83 83 30
Width: 670
VWidth: 0
InSpiro: 1
Flags: HMW
AnchorPoint: "cedilla" 298 36 basechar 0
AnchorPoint: "mark_top" 426 808 basechar 0
LayerCount: 3
Back
SplineSet
581.861328125 12.150390625 m 1
 580.712890625 7.626953125 579.4296875 3.1376953125 578.014648438 -1.3095703125 c 0
 559.241210938 -60.2802734375 516.252929688 -110.225585938 463.053710938 -141.84375 c 0
 409.853515625 -173.462890625 347.274414062 -188.42578125 285.404296875 -187 c 0
 245.978515625 -186.091796875 206.500976562 -178.352539062 170.506835938 -162.239257812 c 0
 134.512695312 -146.125 102.11328125 -121.241210938 79.404296875 -89 c 0
 61.40234375 -63.44140625 49.7177734375 -33.408203125 46.169921875 -2.3486328125 c 0
 42.6220703125 28.7119140625 47.27734375 60.5029296875 58.3037109375 89.755859375 c 0
 70.4267578125 121.919921875 89.861328125 150.875 111.645507812 177.463867188 c 0
 133.4296875 204.052734375 157.317382812 228.8515625 181.755859375 253.024414062 c 0
 196.134765625 267.247070312 210.994140625 280.975585938 226.081054688 294.444335938 c 2
 459.081054688 502.440429688 l 2
 498.672851562 537.783203125 540.29296875 571.552734375 572.971679688 613.370117188 c 0
 604.120117188 653.229492188 628.280273438 699.555664062 637.430664062 749.307617188 c 0
 639.715820312 761.736328125 640.37109375 774.40234375 640.404296875 787.0390625 c 2
 640.44140625 801.040039062 l 1
 668.443359375 800.9609375 l 1
 668.404296875 786.9609375 l 2
 668.365234375 772.915039062 667.633789062 758.836914062 665.106445312 745.01953125 c 0
 655.109375 690.377929688 629.0859375 639.247070312 594.76171875 595.573242188 c 0
 561.059570312 552.69140625 518.4140625 517.876953125 477.727539062 481.555664062 c 2
 244.727539062 273.555664062 l 2
 229.979492188 260.390625 215.448242188 246.977539062 201.401367188 233.06640625 c 0
 178.297851562 210.18359375 155.780273438 186.651367188 135.103515625 161.552734375 c 0
 114.427734375 136.455078125 95.62109375 109.313476562 84.111328125 78.900390625 c 0
 75.5771484375 56.34765625 71.310546875 31.943359375 73.81640625 7.9599609375 c 0
 76.3232421875 -16.0224609375 85.8369140625 -39.3017578125 101.302734375 -57.8017578125 c 0
 123.165039062 -83.9541015625 155.908203125 -99.271484375 189.432617188 -105.434570312 c 0
 222.958007812 -111.59765625 257.385742188 -110.15234375 291.404296875 -108 c 0
 341.577148438 -104.826171875 392.34375 -101.8203125 440.529296875 -87.482421875 c 0
 464.622070312 -80.3134765625 487.923828125 -69.6591796875 507.55078125 -53.955078125 c 0
 527.177734375 -38.25 542.83984375 -17.353515625 551.094726562 6.388671875 c 0
 552.627929688 10.798828125 553.913085938 15.2958984375 554.94140625 19.849609375 c 1
 581.861328125 12.150390625 l 1
  Spiro
    581.862 12.15 v
    578.015 -1.30957 o
    285.405 -187 o
    79.405 -89 o
    58.3038 89.7558 o
    181.756 253.024 o
    226.082 294.444 [
    459.082 502.44 ]
    572.972 613.37 o
    637.431 749.308 o
    640.405 787.039 [
    640.442 801.04 v
    668.444 800.961 v
    668.405 786.961 ]
    665.107 745.02 o
    594.762 595.573 o
    477.728 481.556 [
    244.728 273.556 ]
    201.402 233.066 o
    84.112 78.9 o
    101.303 -57.8022 o
    291.405 -108 o
    551.095 6.38867 o
    554.942 19.85 v
    554.645 11.9375 z
  EndSpiro
281.70703125 664 m 1
 309.70703125 664 l 1
 309.70703125 362.747070312 l 1
 281.70703125 362.747070312 l 1
 281.70703125 664 l 1
  Spiro
    281.708 664 v
    309.708 664 v
    309.708 362.747 v
    281.708 362.747 v
    0 0 z
  EndSpiro
432.70703125 422 m 1
 460.70703125 422 l 1
 460.70703125 120.747070312 l 1
 432.70703125 120.747070312 l 1
 432.70703125 422 l 1
  Spiro
    432.708 422 v
    460.708 422 v
    460.708 120.747 v
    432.708 120.747 v
    0 0 z
  EndSpiro
649.737304688 169 m 1
 375.571289062 -3.8330078125 l 1
 344.563476562 30.2431640625 304.8984375 56.7783203125 260.904296875 70.4580078125 c 0
 238.354492188 77.470703125 214.646484375 80.6494140625 191.040039062 80 c 0
 162.643554688 79.21875 133.934570312 76.4462890625 106.904296875 67.7080078125 c 0
 99.7939453125 65.41015625 92.8583984375 62.3427734375 86.8837890625 57.85546875 c 0
 80.9091796875 53.3681640625 75.966796875 47.36328125 73.3740234375 40.35546875 c 0
 71.2158203125 34.5244140625 70.7216796875 28.0791015625 72.029296875 22 c 1
 47.7373046875 22 l 1
 54.2724609375 64.7431640625 74.8857421875 105.177734375 105.479492188 135.735351562 c 0
 136.072265625 166.29296875 176.3046875 186.681640625 218.737304688 195 c 0
 271.982421875 205.438476562 327.715820312 197.4609375 378.737304688 179 c 0
 422.430664062 163.190429688 463.329101562 139.870117188 499.737304688 111 c 1
 518.737304688 120 l 1
 518.737304688 350 l 1
 385.737304688 415 l 1
 479.737304688 509 l 1
 513.05859375 499.635742188 545.326171875 486.52734375 575.737304688 470 c 0
 601.934570312 455.762695312 626.75390625 438.993164062 649.737304688 420 c 1
 649.737304688 169 l 1
  Spiro
    375.572 -3.83337 v
    260.905 70.4583 o
    191.041 80 o
    106.905 67.7083 o
    73.3745 40.3556 o
    72.03 22 v
    47.7384 22 v
    218.738 195 o
    378.738 179 o
    499.738 111 v
    518.738 120 v
    518.738 350 v
    385.738 415 v
    479.738 509 v
    575.738 470 o
    649.738 420 v
    649.738 169 v
    78.3331 595 z
  EndSpiro
95.404296875 595 m 1
 369.571289062 767.833007812 l 1
 398.818359375 740.833007812 434.274414062 720.24609375 472.737304688 710 c 0
 500.995117188 702.47265625 531.25390625 700.783203125 559.430664062 708.609375 c 0
 587.606445312 716.434570312 613.302734375 734.567382812 627.737304688 760 c 0
 634.854492188 772.538085938 639.22265625 786.630859375 640.404296875 801 c 1
 655.404296875 801 l 1
 664.0234375 755.46484375 653.8671875 706.735351562 628.0625 668.241210938 c 0
 602.2578125 629.747070312 561.451171875 602.181640625 516.737304688 590 c 0
 464.498046875 575.768554688 408.3125 581.521484375 356.737304688 598 c 0
 317.168945312 610.641601562 279.630859375 629.461914062 245.404296875 653 c 1
 226.404296875 644 l 1
 226.404296875 468 l 1
 342.404296875 388 l 1
 248.404296875 294 l 1
 95.404296875 394 l 1
 95.404296875 595 l 1
  Spiro
    369.572 767.833 v
    472.738 710 o
    627.738 760 o
    640.405 801 v
    655.405 801 v
    516.738 590 o
    356.738 598 o
    245.405 653 v
    226.405 644 v
    226.405 468 v
    342.405 388 v
    248.405 294 v
    95.4051 394 v
    95.4051 595 v
    78.3331 595 z
  EndSpiro
EndSplineSet
Fore
SplineSet
581.861328125 12.150390625 m 1
 580.712890625 7.626953125 579.4296875 3.1376953125 578.014648438 -1.3095703125 c 0
 559.241210938 -60.2802734375 516.252929688 -110.225585938 463.053710938 -141.84375 c 0
 409.853515625 -173.462890625 347.274414062 -188.42578125 285.404296875 -187 c 0
 245.978515625 -186.091796875 206.500976562 -178.352539062 170.506835938 -162.239257812 c 0
 134.512695312 -146.125 102.11328125 -121.241210938 79.404296875 -89 c 0
 61.40234375 -63.44140625 49.7177734375 -33.408203125 46.169921875 -2.3486328125 c 0
 42.6220703125 28.7119140625 47.27734375 60.5029296875 58.3037109375 89.755859375 c 0
 70.4267578125 121.919921875 89.861328125 150.875 111.645507812 177.463867188 c 0
 133.4296875 204.052734375 157.317382812 228.8515625 181.755859375 253.024414062 c 0
 196.134765625 267.247070312 210.994140625 280.975585938 226.081054688 294.444335938 c 2
 459.081054688 502.440429688 l 2
 498.672851562 537.783203125 540.29296875 571.552734375 572.971679688 613.370117188 c 0
 604.120117188 653.229492188 628.280273438 699.555664062 637.430664062 749.307617188 c 0
 639.715820312 761.736328125 640.37109375 774.40234375 640.404296875 787.0390625 c 2
 640.44140625 801.040039062 l 1
 668.443359375 800.9609375 l 1
 668.404296875 786.9609375 l 2
 668.365234375 772.915039062 667.633789062 758.836914062 665.106445312 745.01953125 c 0
 655.109375 690.377929688 629.0859375 639.247070312 594.76171875 595.573242188 c 0
 561.059570312 552.69140625 518.4140625 517.876953125 477.727539062 481.555664062 c 2
 244.727539062 273.555664062 l 2
 229.979492188 260.390625 215.448242188 246.977539062 201.401367188 233.06640625 c 0
 178.297851562 210.18359375 155.780273438 186.651367188 135.103515625 161.552734375 c 0
 114.427734375 136.455078125 95.62109375 109.313476562 84.111328125 78.900390625 c 0
 75.5771484375 56.34765625 71.310546875 31.943359375 73.81640625 7.9599609375 c 0
 76.3232421875 -16.0224609375 85.8369140625 -39.3017578125 101.302734375 -57.8017578125 c 0
 123.165039062 -83.9541015625 155.908203125 -99.271484375 189.432617188 -105.434570312 c 0
 222.958007812 -111.59765625 257.385742188 -110.15234375 291.404296875 -108 c 0
 341.577148438 -104.826171875 392.34375 -101.8203125 440.529296875 -87.482421875 c 0
 464.622070312 -80.3134765625 487.923828125 -69.6591796875 507.55078125 -53.955078125 c 0
 527.177734375 -38.25 542.83984375 -17.353515625 551.094726562 6.388671875 c 0
 552.627929688 10.798828125 553.913085938 15.2958984375 554.94140625 19.849609375 c 1
 581.861328125 12.150390625 l 1
281.70703125 664 m 1
 309.70703125 664 l 1
 309.70703125 362.747070312 l 1
 281.70703125 362.747070312 l 1
 281.70703125 664 l 1
432.70703125 422 m 1
 460.70703125 422 l 1
 460.70703125 120.747070312 l 1
 432.70703125 120.747070312 l 1
 432.70703125 422 l 1
649.737304688 169 m 1
 375.571289062 -3.8330078125 l 1
 344.563476562 30.2431640625 304.8984375 56.7783203125 260.904296875 70.4580078125 c 0
 238.354492188 77.470703125 214.646484375 80.6494140625 191.040039062 80 c 0
 162.643554688 79.21875 133.934570312 76.4462890625 106.904296875 67.7080078125 c 0
 99.7939453125 65.41015625 92.8583984375 62.3427734375 86.8837890625 57.85546875 c 0
 80.9091796875 53.3681640625 75.966796875 47.36328125 73.3740234375 40.35546875 c 0
 71.2158203125 34.5244140625 70.7216796875 28.0791015625 72.029296875 22 c 1
 47.7373046875 22 l 1
 54.2724609375 64.7431640625 74.8857421875 105.177734375 105.479492188 135.735351562 c 0
 136.072265625 166.29296875 176.3046875 186.681640625 218.737304688 195 c 0
 271.982421875 205.438476562 327.715820312 197.4609375 378.737304688 179 c 0
 422.430664062 163.190429688 463.329101562 139.870117188 499.737304688 111 c 1
 518.737304688 120 l 1
 518.737304688 350 l 1
 385.737304688 415 l 1
 479.737304688 509 l 1
 513.05859375 499.635742188 545.326171875 486.52734375 575.737304688 470 c 0
 601.934570312 455.762695312 626.75390625 438.993164062 649.737304688 420 c 1
 649.737304688 169 l 1
95.404296875 595 m 1
 369.571289062 767.833007812 l 1
 398.818359375 740.833007812 434.274414062 720.24609375 472.737304688 710 c 0
 500.995117188 702.47265625 531.25390625 700.783203125 559.430664062 708.609375 c 0
 587.606445312 716.434570312 613.302734375 734.567382812 627.737304688 760 c 0
 634.854492188 772.538085938 639.22265625 786.630859375 640.404296875 801 c 1
 655.404296875 801 l 1
 664.0234375 755.46484375 653.8671875 706.735351562 628.0625 668.241210938 c 0
 602.2578125 629.747070312 561.451171875 602.181640625 516.737304688 590 c 0
 464.498046875 575.768554688 408.3125 581.521484375 356.737304688 598 c 0
 317.168945312 610.641601562 279.630859375 629.461914062 245.404296875 653 c 1
 226.404296875 644 l 1
 226.404296875 468 l 1
 342.404296875 388 l 1
 248.404296875 294 l 1
 95.404296875 394 l 1
 95.404296875 595 l 1
EndSplineSet
EndChar

